<svg id="Layer_1" data-name="Layer 1" xmlns="http://www.w3.org/2000/svg" viewBox="0 0 376 287"><defs><style>.cls-1{fill:#d5d5d5;}.cls-14,.cls-2,.cls-3,.cls-6,.cls-9{isolation:isolate;}.cls-3{font-size:9px;}.cls-14,.cls-3,.cls-6,.cls-9{font-family:Nunito-Bold, Nunito;font-weight:700;}.cls-12,.cls-13,.cls-4{fill:none;}.cls-12,.cls-4{stroke:#d5d5d5;}.cls-4{stroke-dasharray:10;}.cls-5,.cls-6{fill:#fff;}.cls-6,.cls-9{font-size:13px;}.cls-7{letter-spacing:0em;}.cls-8{letter-spacing:0em;}.cls-10{letter-spacing:0.02em;}.cls-11{letter-spacing:0em;}.cls-13{stroke:#00f53f;stroke-linecap:round;stroke-width:5px;}.cls-14{font-size:20px;}.cls-15{fill:#f7f7f7;}</style></defs><rect id="Rectangle_61" data-name="Rectangle 61" class="cls-1" y="47" width="376" height="1"/><g id="_70" data-name=" 70" class="cls-2"><text class="cls-3" transform="translate(14 143)">70</text></g><g id="_60" data-name=" 60" class="cls-2"><text class="cls-3" transform="translate(14 172)">60</text></g><g id="_50" data-name=" 50" class="cls-2"><text class="cls-3" transform="translate(14 202)">50</text></g><g id="_40" data-name=" 40" class="cls-2"><text class="cls-3" transform="translate(14 231)">40</text></g><g class="cls-2"><text class="cls-3" transform="translate(14 256)">30</text></g><line id="Line_12" data-name="Line 12" class="cls-4" x1="42.17" y1="138.63" x2="342.56" y2="138.63"/><rect id="Rectangle_60-2" data-name="Rectangle 60-2" class="cls-5" width="376" height="287" rx="15"/><g id="Gemiddelde_temperatuur" data-name="Gemiddelde temperatuur" class="cls-2"><text class="cls-6" transform="translate(4 28)">Gemiddelde tempe<tspan class="cls-7" x="112.92" y="0">r</tspan><tspan class="cls-8" x="117.87" y="0">atuur</tspan></text></g><rect id="Rectangle_62" data-name="Rectangle 62" class="cls-1" y="47" width="376" height="1"/><g id="Jan" class="cls-2"><g class="cls-2"><path d="M37.87,257.34A.42.42,0,0,1,38,257a.49.49,0,0,1,.35-.13l.29,0a.76.76,0,0,0,.56-.23,1,1,0,0,0,.19-.66v-4a.53.53,0,0,1,.57-.58.56.56,0,0,1,.43.16.54.54,0,0,1,.16.42v4a1.63,1.63,0,0,1-1.69,1.83h-.28C38.1,257.83,37.87,257.67,37.87,257.34Z" transform="translate(0 -0.76)"/><path d="M45.08,253.71a1.88,1.88,0,0,1,.44,1.38v2.19a.52.52,0,0,1-.14.39.57.57,0,0,1-.4.13.51.51,0,0,1-.38-.14.5.5,0,0,1-.15-.38v-.2a1.12,1.12,0,0,1-.48.55,1.37,1.37,0,0,1-.76.2,1.77,1.77,0,0,1-.8-.18,1.44,1.44,0,0,1-.57-.49,1.24,1.24,0,0,1-.2-.7,1.15,1.15,0,0,1,.24-.77,1.47,1.47,0,0,1,.81-.4,6.87,6.87,0,0,1,1.54-.13h.22V255a.89.89,0,0,0-.19-.64.77.77,0,0,0-.61-.2,2,2,0,0,0-.53.07c-.18,0-.39.13-.64.22a.86.86,0,0,1-.34.12.34.34,0,0,1-.27-.12.47.47,0,0,1-.1-.3.5.5,0,0,1,.08-.27.79.79,0,0,1,.25-.21,3.27,3.27,0,0,1,.75-.27,3.73,3.73,0,0,1,.86-.1A1.82,1.82,0,0,1,45.08,253.71Zm-.91,3a1.08,1.08,0,0,0,.28-.78v-.19h-.16a5.73,5.73,0,0,0-.94.06.82.82,0,0,0-.47.19.47.47,0,0,0-.15.37.61.61,0,0,0,.21.47.71.71,0,0,0,.5.18A1,1,0,0,0,44.17,256.72Z" transform="translate(0 -0.76)"/><path d="M50.4,253.7a2,2,0,0,1,.39,1.36v2.21a.54.54,0,0,1-.15.4.67.67,0,0,1-.82,0,.51.51,0,0,1-.16-.4v-2.15a1.13,1.13,0,0,0-.19-.74.74.74,0,0,0-.61-.24,1,1,0,0,0-.78.31,1.14,1.14,0,0,0-.29.82v2a.54.54,0,0,1-.15.4.55.55,0,0,1-.41.14.53.53,0,0,1-.41-.14.54.54,0,0,1-.15-.4v-3.48a.5.5,0,0,1,.15-.38.6.6,0,0,1,.41-.14.56.56,0,0,1,.39.14.46.46,0,0,1,.15.36V254a1.49,1.49,0,0,1,.6-.57,1.81,1.81,0,0,1,.85-.2A1.47,1.47,0,0,1,50.4,253.7Z" transform="translate(0 -0.76)"/></g></g><g id="Feb" class="cls-2"><g class="cls-2"><path d="M63.84,257.65a.61.61,0,0,1-.16-.42V252a.54.54,0,0,1,.15-.4.55.55,0,0,1,.41-.14H67.4c.37,0,.55.15.55.46s-.18.46-.55.46H64.83v1.73h2.39c.37,0,.55.16.55.47s-.18.46-.55.46H64.83v2.23a.57.57,0,0,1-.16.42.53.53,0,0,1-.41.16A.57.57,0,0,1,63.84,257.65Z" transform="translate(0 -0.76)"/><path d="M72.32,256.67a.51.51,0,0,1,.09.32.54.54,0,0,1-.33.46,2.69,2.69,0,0,1-.69.28,2.85,2.85,0,0,1-.74.1,2.27,2.27,0,0,1-1.68-.61,2.23,2.23,0,0,1-.62-1.67,2.59,2.59,0,0,1,.27-1.2,1.92,1.92,0,0,1,.76-.81,2.14,2.14,0,0,1,1.11-.29,2,2,0,0,1,1,.26,1.83,1.83,0,0,1,.69.74,2.48,2.48,0,0,1,.24,1.13c0,.25-.11.38-.34.38H69.45a1.44,1.44,0,0,0,.35.91,1.18,1.18,0,0,0,.87.3,2,2,0,0,0,.51-.07l.5-.2a1,1,0,0,1,.39-.15A.3.3,0,0,1,72.32,256.67Zm-2.54-2.34a1.4,1.4,0,0,0-.33.83h2a1.36,1.36,0,0,0-.27-.83.9.9,0,0,0-.7-.29A1,1,0,0,0,69.78,254.33Z" transform="translate(0 -0.76)"/><path d="M76.91,253.53a1.83,1.83,0,0,1,.69.79,2.65,2.65,0,0,1,.25,1.2,2.76,2.76,0,0,1-.25,1.21,1.83,1.83,0,0,1-.69.81,1.9,1.9,0,0,1-1.86.09,1.54,1.54,0,0,1-.58-.58v.22a.51.51,0,0,1-.15.39.54.54,0,0,1-.4.14.53.53,0,0,1-.4-.14.51.51,0,0,1-.15-.39v-5.38a.49.49,0,0,1,.16-.38.59.59,0,0,1,.4-.14.65.65,0,0,1,.41.13.48.48,0,0,1,.15.37V254a1.34,1.34,0,0,1,.57-.56,1.89,1.89,0,0,1,.84-.19A1.81,1.81,0,0,1,76.91,253.53Zm-.48,3a1.67,1.67,0,0,0,.29-1.06,1.59,1.59,0,0,0-.29-1,1.13,1.13,0,0,0-1.66,0,1.6,1.6,0,0,0-.3,1,1.64,1.64,0,0,0,.3,1,1,1,0,0,0,.83.37A1,1,0,0,0,76.43,256.58Z" transform="translate(0 -0.76)"/></g></g><g id="Mrt" class="cls-2"><g class="cls-2"><path d="M95.72,251.53a.54.54,0,0,1,.16.42v5.32a.54.54,0,0,1-.15.4.48.48,0,0,1-.38.14.49.49,0,0,1-.37-.14.62.62,0,0,1-.13-.4v-3.7l-1.53,2.89a.94.94,0,0,1-.23.3.53.53,0,0,1-.3.09.51.51,0,0,1-.3-.09.84.84,0,0,1-.23-.3l-1.54-2.85v3.66a.57.57,0,0,1-.14.4.51.51,0,0,1-.37.14.46.46,0,0,1-.37-.14.57.57,0,0,1-.14-.4V252a.57.57,0,0,1,.15-.42.51.51,0,0,1,.4-.16.61.61,0,0,1,.55.39l2,3.8,2-3.8a.59.59,0,0,1,.53-.39A.51.51,0,0,1,95.72,251.53Z" transform="translate(0 -0.76)"/><path d="M100,253.37a.43.43,0,0,1,.13.35.49.49,0,0,1-.11.36.69.69,0,0,1-.43.15l-.27,0a1.06,1.06,0,0,0-.77.36,1.14,1.14,0,0,0-.25.76v1.89a.51.51,0,0,1-.16.4.59.59,0,0,1-.41.14.56.56,0,0,1-.4-.14.51.51,0,0,1-.16-.4v-3.48a.5.5,0,0,1,.16-.39.59.59,0,0,1,.39-.13.53.53,0,0,1,.38.13.46.46,0,0,1,.14.37v.36a1.46,1.46,0,0,1,.51-.61,1.66,1.66,0,0,1,.75-.24h.13A.48.48,0,0,1,100,253.37Z" transform="translate(0 -0.76)"/><path d="M103.74,257.38a.37.37,0,0,1-.17.33.77.77,0,0,1-.5.09h-.25a1.46,1.46,0,0,1-1.51-1.62v-2h-.45a.58.58,0,0,1-.37-.11.39.39,0,0,1-.13-.32.36.36,0,0,1,.13-.31.53.53,0,0,1,.37-.11h.45v-.83a.53.53,0,0,1,.15-.39.63.63,0,0,1,.42-.14.57.57,0,0,1,.4.14.5.5,0,0,1,.16.39v.83h.76a.56.56,0,0,1,.38.11.39.39,0,0,1,.13.31.43.43,0,0,1-.13.32.61.61,0,0,1-.38.11h-.76v2c0,.44.2.68.61.71l.24,0C103.59,257,103.74,257.13,103.74,257.38Z" transform="translate(0 -0.76)"/></g></g><g id="Apr" class="cls-2"><g class="cls-2"><path d="M121.49,257.3a.44.44,0,0,1-.17.35.55.55,0,0,1-.38.15.5.5,0,0,1-.27-.08.54.54,0,0,1-.2-.24l-.54-1.21h-3.17l-.54,1.21a.47.47,0,0,1-.19.24.57.57,0,0,1-.28.08.55.55,0,0,1-.38-.15.41.41,0,0,1-.17-.35.59.59,0,0,1,0-.23l2.49-5.34a.53.53,0,0,1,.24-.27.65.65,0,0,1,.36-.1.64.64,0,0,1,.35.1.51.51,0,0,1,.25.27l2.5,5.34A.59.59,0,0,1,121.49,257.3Zm-1.95-1.92-1.19-2.68-1.19,2.68Z" transform="translate(0 -0.76)"/><path d="M125.8,253.54a1.92,1.92,0,0,1,.7.81,2.9,2.9,0,0,1,.24,1.21,2.79,2.79,0,0,1-.24,1.2,1.91,1.91,0,0,1-.69.79,1.84,1.84,0,0,1-1,.28,1.68,1.68,0,0,1-.84-.2,1.35,1.35,0,0,1-.56-.55v1.84a.44.44,0,0,1-.16.37.57.57,0,0,1-.4.13.55.55,0,0,1-.41-.14.51.51,0,0,1-.16-.38v-5.1a.53.53,0,0,1,.15-.39.57.57,0,0,1,.4-.14.62.62,0,0,1,.41.14.53.53,0,0,1,.15.39V254a1.42,1.42,0,0,1,.57-.57,1.9,1.9,0,0,1,1.86.09Zm-.48,3a1.56,1.56,0,0,0,.3-1,1.67,1.67,0,0,0-.3-1.06,1,1,0,0,0-.83-.38,1,1,0,0,0-.83.37,1.71,1.71,0,0,0-.29,1.06,1.67,1.67,0,0,0,.29,1,1.12,1.12,0,0,0,1.66,0Z" transform="translate(0 -0.76)"/><path d="M130.5,253.37a.43.43,0,0,1,.13.35.53.53,0,0,1-.11.36.69.69,0,0,1-.43.15l-.27,0a1.11,1.11,0,0,0-.78.36,1.19,1.19,0,0,0-.24.76v1.89a.49.49,0,0,1-.17.4.64.64,0,0,1-.8,0,.48.48,0,0,1-.16-.4v-3.48a.47.47,0,0,1,.16-.39.56.56,0,0,1,.39-.13.53.53,0,0,1,.38.13.5.5,0,0,1,.14.37v.36a1.46,1.46,0,0,1,.51-.61,1.66,1.66,0,0,1,.75-.24h.13A.49.49,0,0,1,130.5,253.37Z" transform="translate(0 -0.76)"/></g></g><g id="Jun" class="cls-2"><g class="cls-2"><path d="M165.87,257.34A.42.42,0,0,1,166,257a.49.49,0,0,1,.35-.13l.29,0a.76.76,0,0,0,.56-.23,1,1,0,0,0,.19-.66v-4a.53.53,0,0,1,.57-.58.56.56,0,0,1,.43.16.54.54,0,0,1,.16.42v4a1.63,1.63,0,0,1-1.69,1.83h-.28C166.1,257.83,165.87,257.67,165.87,257.34Z" transform="translate(0 -0.76)"/><path d="M173.69,253.41a.5.5,0,0,1,.16.39v3.49a.51.51,0,0,1-.16.38.57.57,0,0,1-.41.14.56.56,0,0,1-.39-.13.5.5,0,0,1-.14-.37v-.23a1.37,1.37,0,0,1-.56.56,1.59,1.59,0,0,1-.79.19c-1.08,0-1.62-.6-1.62-1.82V253.8a.53.53,0,0,1,.15-.39.67.67,0,0,1,.82,0,.53.53,0,0,1,.15.39V256a1.12,1.12,0,0,0,.19.7.75.75,0,0,0,.6.22,1,1,0,0,0,.75-.31,1.17,1.17,0,0,0,.28-.82v-2a.5.5,0,0,1,.16-.39.57.57,0,0,1,.4-.14A.6.6,0,0,1,173.69,253.41Z" transform="translate(0 -0.76)"/><path d="M178.75,253.7a2,2,0,0,1,.39,1.36v2.21a.5.5,0,0,1-.56.54.55.55,0,0,1-.41-.14.54.54,0,0,1-.16-.4v-2.15a1.13,1.13,0,0,0-.19-.74.74.74,0,0,0-.61-.24,1,1,0,0,0-.77.31,1.1,1.1,0,0,0-.3.82v2a.54.54,0,0,1-.15.4.55.55,0,0,1-.41.14.5.5,0,0,1-.56-.54v-3.48a.5.5,0,0,1,.15-.38.6.6,0,0,1,.41-.14.56.56,0,0,1,.39.14.46.46,0,0,1,.15.36V254a1.49,1.49,0,0,1,.6-.57,1.84,1.84,0,0,1,.85-.2A1.47,1.47,0,0,1,178.75,253.7Z" transform="translate(0 -0.76)"/></g></g><g id="Jul" class="cls-2"><g class="cls-2"><path d="M190.87,257.34A.42.42,0,0,1,191,257a.49.49,0,0,1,.35-.13l.29,0a.76.76,0,0,0,.56-.23,1,1,0,0,0,.19-.66v-4a.54.54,0,0,1,.16-.42.53.53,0,0,1,.41-.16.56.56,0,0,1,.43.16.54.54,0,0,1,.16.42v4a1.63,1.63,0,0,1-1.68,1.83h-.29C191.11,257.83,190.87,257.67,190.87,257.34Z" transform="translate(0 -0.76)"/><path d="M198.7,253.41a.53.53,0,0,1,.15.39v3.49a.51.51,0,0,1-.16.38.57.57,0,0,1-.41.14.56.56,0,0,1-.39-.13.5.5,0,0,1-.14-.37v-.23a1.37,1.37,0,0,1-.56.56,1.59,1.59,0,0,1-.79.19c-1.08,0-1.62-.6-1.62-1.82V253.8a.53.53,0,0,1,.15-.39.62.62,0,0,1,.41-.14.6.6,0,0,1,.41.14.53.53,0,0,1,.15.39V256a1.12,1.12,0,0,0,.19.7.75.75,0,0,0,.6.22,1,1,0,0,0,.75-.31,1.17,1.17,0,0,0,.28-.82v-2a.5.5,0,0,1,.16-.39.57.57,0,0,1,.4-.14A.63.63,0,0,1,198.7,253.41Z" transform="translate(0 -0.76)"/><path d="M200.18,257.67a.48.48,0,0,1-.16-.4V251.9a.49.49,0,0,1,.16-.4.62.62,0,0,1,.4-.13.66.66,0,0,1,.4.13.49.49,0,0,1,.16.4v5.37a.48.48,0,0,1-.16.4.56.56,0,0,1-.4.14A.53.53,0,0,1,200.18,257.67Z" transform="translate(0 -0.76)"/></g></g><g id="Mei" class="cls-2"><g class="cls-2"><path d="M146.72,251.53a.54.54,0,0,1,.16.42v5.32a.54.54,0,0,1-.15.4.48.48,0,0,1-.38.14.49.49,0,0,1-.37-.14.62.62,0,0,1-.13-.4v-3.7l-1.53,2.89a.94.94,0,0,1-.23.3.53.53,0,0,1-.3.09.51.51,0,0,1-.3-.09.84.84,0,0,1-.23-.3l-1.54-2.85v3.66a.57.57,0,0,1-.14.4.51.51,0,0,1-.37.14.46.46,0,0,1-.37-.14.57.57,0,0,1-.14-.4V252a.57.57,0,0,1,.15-.42.51.51,0,0,1,.4-.16.61.61,0,0,1,.55.39l2,3.8,2-3.8a.59.59,0,0,1,.53-.39A.51.51,0,0,1,146.72,251.53Z" transform="translate(0 -0.76)"/><path d="M151.88,256.67a.46.46,0,0,1,.1.32.54.54,0,0,1-.33.46,2.93,2.93,0,0,1-.7.28,2.8,2.8,0,0,1-.74.1,2.3,2.3,0,0,1-1.68-.61,2.26,2.26,0,0,1-.62-1.67,2.59,2.59,0,0,1,.27-1.2,1.92,1.92,0,0,1,.76-.81,2.19,2.19,0,0,1,1.11-.29,2.06,2.06,0,0,1,1,.26,1.8,1.8,0,0,1,.68.74,2.48,2.48,0,0,1,.24,1.13c0,.25-.11.38-.34.38H149a1.34,1.34,0,0,0,.35.91,1.15,1.15,0,0,0,.86.3,2,2,0,0,0,.51-.07c.15,0,.31-.12.5-.2a1,1,0,0,1,.4-.15A.29.29,0,0,1,151.88,256.67Zm-2.53-2.34a1.29,1.29,0,0,0-.33.83h2a1.25,1.25,0,0,0-.27-.83.89.89,0,0,0-.7-.29A1,1,0,0,0,149.35,254.33Z" transform="translate(0 -0.76)"/><path d="M153,252.3a.57.57,0,0,1-.18-.43.56.56,0,0,1,.18-.44.76.76,0,0,1,.49-.16.73.73,0,0,1,.48.16.53.53,0,0,1,.19.44.57.57,0,0,1-.18.43.79.79,0,0,1-1,0Zm.09,5.37a.51.51,0,0,1-.16-.4V253.8a.53.53,0,0,1,.16-.4.58.58,0,0,1,.4-.13.63.63,0,0,1,.41.13.53.53,0,0,1,.16.4v3.47a.51.51,0,0,1-.16.4.59.59,0,0,1-.41.14A.54.54,0,0,1,153.09,257.67Z" transform="translate(0 -0.76)"/></g></g><g id="Aug" class="cls-2"><g class="cls-2"><path d="M219.49,257.3a.44.44,0,0,1-.17.35.55.55,0,0,1-.38.15.5.5,0,0,1-.27-.08.54.54,0,0,1-.2-.24l-.54-1.21h-3.17l-.54,1.21a.47.47,0,0,1-.19.24.57.57,0,0,1-.28.08.55.55,0,0,1-.38-.15.41.41,0,0,1-.17-.35.59.59,0,0,1,.05-.23l2.49-5.34a.53.53,0,0,1,.24-.27.65.65,0,0,1,.36-.1.64.64,0,0,1,.35.1.51.51,0,0,1,.25.27l2.5,5.34A.59.59,0,0,1,219.49,257.3Zm-2-1.92-1.19-2.68-1.19,2.68Z" transform="translate(0 -0.76)"/><path d="M224.15,253.41a.53.53,0,0,1,.15.39v3.49a.5.5,0,0,1-.15.38.59.59,0,0,1-.41.14.54.54,0,0,1-.39-.13.46.46,0,0,1-.14-.37v-.23a1.44,1.44,0,0,1-.56.56,1.62,1.62,0,0,1-.79.19c-1.08,0-1.62-.6-1.62-1.82V253.8a.53.53,0,0,1,.15-.39.59.59,0,0,1,.4-.14.61.61,0,0,1,.42.14.53.53,0,0,1,.15.39V256a1.06,1.06,0,0,0,.19.7.73.73,0,0,0,.59.22.93.93,0,0,0,.75-.31,1.17,1.17,0,0,0,.29-.82v-2a.53.53,0,0,1,.15-.39.67.67,0,0,1,.82,0Z" transform="translate(0 -0.76)"/><path d="M229.6,253.41a.5.5,0,0,1,.16.39v3.55a2,2,0,0,1-.58,1.57,2.44,2.44,0,0,1-1.7.53,3.29,3.29,0,0,1-1.64-.37.56.56,0,0,1-.33-.47.51.51,0,0,1,.09-.32.32.32,0,0,1,.25-.12.88.88,0,0,1,.2,0l.24.1a6.13,6.13,0,0,0,.58.21,2.58,2.58,0,0,0,.59.07,1,1,0,0,0,1.18-1.15v-.58a1.31,1.31,0,0,1-.57.57,1.77,1.77,0,0,1-.87.2,1.94,1.94,0,0,1-1-.27,1.87,1.87,0,0,1-.7-.77,2.75,2.75,0,0,1,0-2.29,1.8,1.8,0,0,1,.7-.77,1.86,1.86,0,0,1,1-.28,1.89,1.89,0,0,1,.87.2,1.42,1.42,0,0,1,.57.57v-.23a.5.5,0,0,1,.15-.38.62.62,0,0,1,.41-.14A.57.57,0,0,1,229.6,253.41Zm-1.26,3a1.43,1.43,0,0,0,.3-1,1.47,1.47,0,0,0-.3-1,1.06,1.06,0,0,0-.84-.35,1.07,1.07,0,0,0-.84.35,1.47,1.47,0,0,0-.3,1,1.43,1.43,0,0,0,.3,1,1.07,1.07,0,0,0,.84.35A1.06,1.06,0,0,0,228.34,256.41Z" transform="translate(0 -0.76)"/></g></g><g id="Sep" class="cls-2"><g class="cls-2"><path d="M241.57,257.66a2.92,2.92,0,0,1-1-.5.52.52,0,0,1-.21-.44.52.52,0,0,1,.11-.32.33.33,0,0,1,.27-.14.76.76,0,0,1,.37.12,2.69,2.69,0,0,0,.81.41,3.38,3.38,0,0,0,.93.12,1.78,1.78,0,0,0,1-.23.73.73,0,0,0,.35-.67.57.57,0,0,0-.33-.52,4.25,4.25,0,0,0-1.09-.36,6.25,6.25,0,0,1-1.29-.39,1.78,1.78,0,0,1-.74-.58,1.47,1.47,0,0,1-.26-.89,1.68,1.68,0,0,1,.32-1,2.13,2.13,0,0,1,.88-.69,3.45,3.45,0,0,1,3.36.44.54.54,0,0,1,.16.19.43.43,0,0,1,.05.24.47.47,0,0,1-.11.33.33.33,0,0,1-.26.14.47.47,0,0,1-.17,0,1.22,1.22,0,0,1-.2-.1,3.28,3.28,0,0,0-.72-.4,2.34,2.34,0,0,0-.85-.13,1.64,1.64,0,0,0-1,.25.79.79,0,0,0-.35.69.62.62,0,0,0,.31.56,3.39,3.39,0,0,0,1.07.37,7.55,7.55,0,0,1,1.3.4,1.94,1.94,0,0,1,.77.57,1.31,1.31,0,0,1,.27.85,1.65,1.65,0,0,1-.32,1,2,2,0,0,1-.87.66,3.23,3.23,0,0,1-1.29.24A4.66,4.66,0,0,1,241.57,257.66Z" transform="translate(0 -0.76)"/><path d="M250.06,256.67a.51.51,0,0,1,.09.32.54.54,0,0,1-.33.46,3,3,0,0,1-1.43.38,2.27,2.27,0,0,1-1.68-.61,2.23,2.23,0,0,1-.63-1.67,2.59,2.59,0,0,1,.27-1.2,2,2,0,0,1,.76-.81,2.2,2.2,0,0,1,1.12-.29,2,2,0,0,1,1,.26,1.9,1.9,0,0,1,.69.74,2.48,2.48,0,0,1,.24,1.13c0,.25-.12.38-.34.38h-2.66a1.39,1.39,0,0,0,.35.91,1.18,1.18,0,0,0,.87.3,1.83,1.83,0,0,0,.5-.07c.15,0,.32-.12.5-.2a1,1,0,0,1,.4-.15A.32.32,0,0,1,250.06,256.67Zm-2.54-2.34a1.4,1.4,0,0,0-.33.83h2a1.3,1.3,0,0,0-.26-.83.91.91,0,0,0-.71-.29A1,1,0,0,0,247.52,254.33Z" transform="translate(0 -0.76)"/><path d="M254.65,253.54a1.9,1.9,0,0,1,.69.81,2.76,2.76,0,0,1,.25,1.21,2.65,2.65,0,0,1-.25,1.2,1.78,1.78,0,0,1-.69.79,1.82,1.82,0,0,1-1,.28,1.62,1.62,0,0,1-.83-.2,1.32,1.32,0,0,1-.57-.55v1.84a.47.47,0,0,1-.15.37.59.59,0,0,1-.41.13.57.57,0,0,1-.41-.14.5.5,0,0,1-.15-.38v-5.1a.56.56,0,0,1,.14-.39.59.59,0,0,1,.4-.14.6.6,0,0,1,.41.14.53.53,0,0,1,.15.39V254a1.45,1.45,0,0,1,.58-.57,1.77,1.77,0,0,1,.84-.2A1.87,1.87,0,0,1,254.65,253.54Zm-.48,3a1.62,1.62,0,0,0,.29-1,1.73,1.73,0,0,0-.29-1.06,1.11,1.11,0,0,0-1.66,0,1.65,1.65,0,0,0-.3,1.06,1.61,1.61,0,0,0,.3,1,1,1,0,0,0,.83.37A1,1,0,0,0,254.17,256.59Z" transform="translate(0 -0.76)"/></g></g><g id="Okt" class="cls-2"><g class="cls-2"><path d="M266.9,257.44a2.59,2.59,0,0,1-1-1.13,3.77,3.77,0,0,1-.37-1.73,3.86,3.86,0,0,1,.36-1.72,2.56,2.56,0,0,1,1-1.13,3.44,3.44,0,0,1,3.22,0,2.59,2.59,0,0,1,1,1.13,3.86,3.86,0,0,1,.37,1.72,3.9,3.9,0,0,1-.37,1.73,2.67,2.67,0,0,1-1.05,1.13,3.42,3.42,0,0,1-3.21,0Zm3-1.13a2.66,2.66,0,0,0,.49-1.73,2.63,2.63,0,0,0-.49-1.72,1.85,1.85,0,0,0-2.73,0,2.63,2.63,0,0,0-.49,1.72,2.66,2.66,0,0,0,.49,1.73,1.85,1.85,0,0,0,2.73,0Z" transform="translate(0 -0.76)"/><path d="M276.69,257.27a.51.51,0,0,1-.15.37.44.44,0,0,1-.34.16.5.5,0,0,1-.37-.16l-2.11-1.91v1.54a.48.48,0,0,1-.16.4.61.61,0,0,1-.41.13.6.6,0,0,1-.4-.13.51.51,0,0,1-.15-.4V251.9a.52.52,0,0,1,.15-.4.66.66,0,0,1,.4-.13.67.67,0,0,1,.41.13.49.49,0,0,1,.16.4v3.39l1.93-1.85a.49.49,0,0,1,.37-.16.53.53,0,0,1,.36.15.49.49,0,0,1,.15.36.55.55,0,0,1-.17.38L275,255.48l1.56,1.41A.51.51,0,0,1,276.69,257.27Z" transform="translate(0 -0.76)"/><path d="M280.14,257.38a.35.35,0,0,1-.18.33.74.74,0,0,1-.5.09h-.24a1.45,1.45,0,0,1-1.51-1.62v-2h-.45a.61.61,0,0,1-.38-.11.43.43,0,0,1-.13-.32.39.39,0,0,1,.13-.31.56.56,0,0,1,.38-.11h.45v-.83a.53.53,0,0,1,.15-.39.61.61,0,0,1,.42-.14.59.59,0,0,1,.4.14.53.53,0,0,1,.15.39v.83h.77a.53.53,0,0,1,.37.11.36.36,0,0,1,.13.31.39.39,0,0,1-.13.32.58.58,0,0,1-.37.11h-.77v2a.62.62,0,0,0,.62.71l.24,0C280,257,280.14,257.13,280.14,257.38Z" transform="translate(0 -0.76)"/></g></g><g id="Nov" class="cls-2"><g class="cls-2"><path d="M295.89,251.53a.57.57,0,0,1,.15.42v5.28a.6.6,0,0,1-.15.42.54.54,0,0,1-.4.16.5.5,0,0,1-.44-.2l-3.29-4.28v3.9a.59.59,0,0,1-.14.42.51.51,0,0,1-.4.16.48.48,0,0,1-.39-.16.6.6,0,0,1-.15-.42V252a.54.54,0,0,1,.16-.42.51.51,0,0,1,.4-.16.49.49,0,0,1,.43.21l3.28,4.25V252a.57.57,0,0,1,.15-.42.5.5,0,0,1,.39-.16A.51.51,0,0,1,295.89,251.53Z" transform="translate(0 -0.76)"/><path d="M298.13,257.55a1.91,1.91,0,0,1-.79-.8,2.6,2.6,0,0,1-.28-1.21,2.57,2.57,0,0,1,.28-1.21,2,2,0,0,1,.79-.8,2.65,2.65,0,0,1,2.37,0,1.88,1.88,0,0,1,.78.8,2.57,2.57,0,0,1,.28,1.21,2.6,2.6,0,0,1-.28,1.21,1.83,1.83,0,0,1-.78.8,2.65,2.65,0,0,1-2.37,0Zm2-.95a2.08,2.08,0,0,0,0-2.12,1,1,0,0,0-.83-.36,1,1,0,0,0-.83.36,2.08,2.08,0,0,0,0,2.12,1.14,1.14,0,0,0,1.66,0Z" transform="translate(0 -0.76)"/><path d="M305.67,253.35a.5.5,0,0,1,.27-.08.57.57,0,0,1,.37.14.44.44,0,0,1,.17.34.54.54,0,0,1-.05.22l-1.67,3.48a.49.49,0,0,1-.23.26.63.63,0,0,1-.33.09.68.68,0,0,1-.33-.09.56.56,0,0,1-.24-.26L302,254a.46.46,0,0,1,0-.21.44.44,0,0,1,.17-.35.65.65,0,0,1,.4-.14.5.5,0,0,1,.48.31l1.26,2.79,1.25-2.78A.52.52,0,0,1,305.67,253.35Z" transform="translate(0 -0.76)"/></g></g><g id="Dec" class="cls-2"><g class="cls-2"><path d="M317.83,257.62a.56.56,0,0,1-.15-.41V252a.54.54,0,0,1,.15-.4.55.55,0,0,1,.41-.14H320a3.31,3.31,0,0,1,2.42.83,3.09,3.09,0,0,1,.86,2.33,3.14,3.14,0,0,1-.86,2.35,3.35,3.35,0,0,1-2.42.83h-1.78A.6.6,0,0,1,317.83,257.62Zm2.12-.81a2.23,2.23,0,0,0,0-4.45h-1.1v4.45Z" transform="translate(0 -0.76)"/><path d="M328.1,256.67a.51.51,0,0,1,.1.32.55.55,0,0,1-.34.46,2.69,2.69,0,0,1-.69.28,2.8,2.8,0,0,1-.74.1,2.27,2.27,0,0,1-1.68-.61,2.23,2.23,0,0,1-.62-1.67,2.59,2.59,0,0,1,.27-1.2,1.92,1.92,0,0,1,.76-.81,2.19,2.19,0,0,1,1.11-.29,2,2,0,0,1,1,.26,1.76,1.76,0,0,1,.69.74,2.48,2.48,0,0,1,.24,1.13c0,.25-.11.38-.34.38h-2.65a1.34,1.34,0,0,0,.35.91,1.14,1.14,0,0,0,.86.3,2,2,0,0,0,.51-.07c.15,0,.31-.12.5-.2a1,1,0,0,1,.39-.15A.29.29,0,0,1,328.1,256.67Zm-2.54-2.34a1.34,1.34,0,0,0-.32.83h2a1.25,1.25,0,0,0-.27-.83.89.89,0,0,0-.7-.29A1,1,0,0,0,325.56,254.33Z" transform="translate(0 -0.76)"/><path d="M330,257.55a1.84,1.84,0,0,1-.77-.79,2.78,2.78,0,0,1,0-2.41,2,2,0,0,1,.8-.81,2.37,2.37,0,0,1,1.18-.29,2.47,2.47,0,0,1,.7.1,2.6,2.6,0,0,1,.63.27.58.58,0,0,1,.29.48.55.55,0,0,1-.1.32.29.29,0,0,1-.25.12.53.53,0,0,1-.2,0,1.13,1.13,0,0,1-.22-.11l-.38-.18a1.3,1.3,0,0,0-.41-.07,1,1,0,0,0-.86.37,1.6,1.6,0,0,0-.3,1.05,1.56,1.56,0,0,0,.3,1,1,1,0,0,0,.86.37,1,1,0,0,0,.4-.07,2.2,2.2,0,0,0,.39-.18,1,1,0,0,1,.23-.12.51.51,0,0,1,.2,0,.32.32,0,0,1,.25.12.55.55,0,0,1,.09.32.53.53,0,0,1-.06.26.62.62,0,0,1-.22.2,2.42,2.42,0,0,1-.65.29,2.78,2.78,0,0,1-.76.1A2.28,2.28,0,0,1,330,257.55Z" transform="translate(0 -0.76)"/></g></g><line id="Line_10" data-name="Line 10" class="cls-4" x1="42.17" y1="92.63" x2="342.56" y2="92.63"/><line id="Line_11" data-name="Line 11" class="cls-4" x1="42.17" y1="121.55" x2="342.56" y2="121.55"/><line id="Line_13" data-name="Line 13" class="cls-4" x1="42.17" y1="150.46" x2="342.56" y2="150.46"/><line id="Line_14" data-name="Line 14" class="cls-4" x1="42.17" y1="179.38" x2="342.56" y2="179.38"/><line id="Line_15" data-name="Line 15" class="cls-4" x1="42.17" y1="208.29" x2="342.56" y2="208.29"/><line id="Line_16" data-name="Line 16" class="cls-4" x1="41.37" y1="237.21" x2="341.76" y2="237.21"/><g id="Bekijk_per:" data-name="Bekijk per:" class="cls-2"><text class="cls-9" transform="translate(243 28)">Bekijk pe<tspan class="cls-10" x="54.56" y="0">r</tspan><tspan class="cls-11" x="59.76" y="0">:</tspan></text></g><g id="Group_185" data-name="Group 185"><rect id="Rectangle_9-2" data-name="Rectangle 9-2" class="cls-5" x="309" y="12" width="57" height="25"/><path id="Path_39" data-name="Path 39" class="cls-12" d="M357.76,23.81l3,3,3-3" transform="translate(0 -0.76)"/><g id="maand" class="cls-2"><text class="cls-9" transform="translate(315 28)">maand</text></g></g><path id="Path_197" data-name="Path 197" class="cls-13" d="M44.65,231.79,68,214.55,90.53,192.8l38.72-3.61,22.27-30.6,24.93-25.2L203,115.63l22-28.12,25.46,38.19,23.34,19.89,33.68,18.57,22,54.36" transform="translate(0 -0.76)"/><g id="_70-2" data-name=" 70-2" class="cls-2"><g class="cls-2"><path d="M18.89,90.54a.5.5,0,0,1,.12.34.88.88,0,0,1-.12.43L16,96.53a.56.56,0,0,1-.5.3.55.55,0,0,1-.38-.15.48.48,0,0,1-.17-.36.64.64,0,0,1,.09-.31l2.59-4.66H14.93c-.36,0-.54-.15-.54-.46s.18-.47.54-.47h3.6A.52.52,0,0,1,18.89,90.54Z" transform="translate(0 -0.76)"/><path d="M20.38,96a4.15,4.15,0,0,1-.59-2.43,4.09,4.09,0,0,1,.59-2.41,2.18,2.18,0,0,1,3.44,0,5.24,5.24,0,0,1,0,4.83,2.19,2.19,0,0,1-3.44,0ZM23,95.37a4.21,4.21,0,0,0,.28-1.79A4.13,4.13,0,0,0,23,91.8a1,1,0,0,0-1.78,0,4.16,4.16,0,0,0-.28,1.78,4.21,4.21,0,0,0,.28,1.79,1,1,0,0,0,1.78,0Z" transform="translate(0 -0.76)"/></g></g><g id="_60-2" data-name=" 60-2" class="cls-2"><g class="cls-2"><path d="M18.1,122a1.75,1.75,0,0,1,.68.72,2.16,2.16,0,0,1,.25,1.06,2.2,2.2,0,0,1-.27,1.09,2,2,0,0,1-.76.75,2.2,2.2,0,0,1-1.09.27,2.24,2.24,0,0,1-1.86-.81,3.63,3.63,0,0,1-.65-2.33,4.92,4.92,0,0,1,.3-1.8,2.62,2.62,0,0,1,.88-1.16,2.26,2.26,0,0,1,1.34-.41,3.18,3.18,0,0,1,1,.19,2.65,2.65,0,0,1,.87.5.58.58,0,0,1,.17.19.52.52,0,0,1,.05.23.55.55,0,0,1-.11.34.36.36,0,0,1-.27.14.47.47,0,0,1-.17,0l-.2-.11a2.4,2.4,0,0,0-1.33-.52,1.15,1.15,0,0,0-1,.61,3.21,3.21,0,0,0-.4,1.7,1.53,1.53,0,0,1,.62-.64,1.84,1.84,0,0,1,.93-.24A2,2,0,0,1,18.1,122Zm-.46,2.65a1.36,1.36,0,0,0,0-1.68,1.05,1.05,0,0,0-.8-.31,1.1,1.1,0,0,0-.81.32,1.28,1.28,0,0,0,0,1.67,1.06,1.06,0,0,0,.81.32A1,1,0,0,0,17.64,124.6Z" transform="translate(0 -0.76)"/><path d="M20.38,125a4.15,4.15,0,0,1-.59-2.43,4.09,4.09,0,0,1,.59-2.41,2.18,2.18,0,0,1,3.44,0,5.24,5.24,0,0,1,0,4.83,2.19,2.19,0,0,1-3.44,0Zm2.61-.64a4.21,4.21,0,0,0,.28-1.79A4.13,4.13,0,0,0,23,120.8a1,1,0,0,0-1.78,0,4.16,4.16,0,0,0-.28,1.78,4.21,4.21,0,0,0,.28,1.79,1,1,0,0,0,1.78,0Z" transform="translate(0 -0.76)"/></g></g><g id="_50-2" data-name=" 50-2" class="cls-2"><g class="cls-2"><path d="M18.08,152a1.86,1.86,0,0,1,.71.71,2.16,2.16,0,0,1,.25,1.06,2.06,2.06,0,0,1-.28,1.09,2,2,0,0,1-.8.75,2.71,2.71,0,0,1-1.2.26,3.41,3.41,0,0,1-1.09-.18,2.94,2.94,0,0,1-.91-.5.54.54,0,0,1-.21-.43.52.52,0,0,1,.11-.33.32.32,0,0,1,.27-.14.51.51,0,0,1,.17,0l.19.1a3.3,3.3,0,0,0,.7.39,2,2,0,0,0,.73.13,1.28,1.28,0,0,0,.91-.29,1.29,1.29,0,0,0,0-1.69,1.17,1.17,0,0,0-.87-.31,1.74,1.74,0,0,0-.63.1,2,2,0,0,0-.56.33.62.62,0,0,1-.35.12.47.47,0,0,1-.31-.11.38.38,0,0,1-.13-.29V150a.54.54,0,0,1,.15-.4.52.52,0,0,1,.4-.14h3c.36,0,.54.14.54.45s-.18.44-.54.44H15.91V152A1.92,1.92,0,0,1,17,151.7,2.1,2.1,0,0,1,18.08,152Z" transform="translate(0 -0.76)"/><path d="M20.38,155a4.15,4.15,0,0,1-.59-2.43,4.09,4.09,0,0,1,.59-2.41,2.18,2.18,0,0,1,3.44,0,5.24,5.24,0,0,1,0,4.83,2.19,2.19,0,0,1-3.44,0Zm2.61-.64a4.21,4.21,0,0,0,.28-1.79A4.13,4.13,0,0,0,23,150.8a1,1,0,0,0-1.78,0,4.16,4.16,0,0,0-.28,1.78,4.21,4.21,0,0,0,.28,1.79,1,1,0,0,0,1.78,0Z" transform="translate(0 -0.76)"/></g></g><g id="_40-2" data-name=" 40-2" class="cls-2"><g class="cls-2"><path d="M19.13,182.73a.43.43,0,0,1,.14.34c0,.3-.19.45-.54.45h-.46v.71a.53.53,0,0,1-.57.58.56.56,0,0,1-.41-.15.54.54,0,0,1-.16-.43v-.71H14.77a.5.5,0,0,1-.37-.14.48.48,0,0,1-.14-.35.72.72,0,0,1,.14-.41l2.79-4a.57.57,0,0,1,.22-.19.55.55,0,0,1,.28-.07.61.61,0,0,1,.41.15.59.59,0,0,1,.17.44v3.67h.46A.66.66,0,0,1,19.13,182.73Zm-2-.11V180.2l-1.67,2.42Z" transform="translate(0 -0.76)"/><path d="M20.38,184a4.15,4.15,0,0,1-.59-2.43,4.09,4.09,0,0,1,.59-2.41,2.18,2.18,0,0,1,3.44,0,5.24,5.24,0,0,1,0,4.83,2.19,2.19,0,0,1-3.44,0Zm2.61-.64a4.21,4.21,0,0,0,.28-1.79A4.13,4.13,0,0,0,23,179.8a1,1,0,0,0-1.78,0,4.16,4.16,0,0,0-.28,1.78,4.21,4.21,0,0,0,.28,1.79,1,1,0,0,0,1.78,0Z" transform="translate(0 -0.76)"/></g></g><g id="_30_2" data-name=" 30 2" class="cls-2"><g class="cls-2"><path d="M18.54,207.05a1.58,1.58,0,0,1,.3,1,1.6,1.6,0,0,1-.6,1.31,2.55,2.55,0,0,1-1.63.48,3.61,3.61,0,0,1-1.13-.18,2.85,2.85,0,0,1-.91-.5.54.54,0,0,1-.21-.43.52.52,0,0,1,.11-.33.33.33,0,0,1,.27-.14.41.41,0,0,1,.16,0l.2.1a3.68,3.68,0,0,0,.72.39,2,2,0,0,0,.74.13,1.39,1.39,0,0,0,.89-.23.89.89,0,0,0,.28-.73.81.81,0,0,0-.3-.7,1.48,1.48,0,0,0-.93-.23H16a.39.39,0,0,1-.32-.14.48.48,0,0,1-.11-.32.47.47,0,0,1,.11-.33.38.38,0,0,1,.32-.13h.36q1.23,0,1.23-.93a.8.8,0,0,0-.26-.66,1,1,0,0,0-.72-.24,2.43,2.43,0,0,0-1.4.52l-.2.11a.41.41,0,0,1-.16,0,.35.35,0,0,1-.27-.14.55.55,0,0,1-.11-.34.52.52,0,0,1,0-.23.54.54,0,0,1,.16-.19,2.8,2.8,0,0,1,.9-.5,3.32,3.32,0,0,1,1.08-.19,2.31,2.31,0,0,1,1.49.46,1.55,1.55,0,0,1,.55,1.23,1.63,1.63,0,0,1-.28.91,1.47,1.47,0,0,1-.74.57A1.51,1.51,0,0,1,18.54,207.05Z" transform="translate(0 -0.76)"/><path d="M20.38,209a4.15,4.15,0,0,1-.59-2.43,4.09,4.09,0,0,1,.59-2.41,2.18,2.18,0,0,1,3.44,0,5.24,5.24,0,0,1,0,4.83,2.19,2.19,0,0,1-3.44,0Zm2.61-.64a4.21,4.21,0,0,0,.28-1.79A4.13,4.13,0,0,0,23,204.8a1,1,0,0,0-1.78,0,4.16,4.16,0,0,0-.28,1.78,4.21,4.21,0,0,0,.28,1.79,1,1,0,0,0,1.78,0Z" transform="translate(0 -0.76)"/></g></g><g id="_0" data-name=" 0" class="cls-2"><g class="cls-2"><path d="M20.87,240.09a4.63,4.63,0,0,1,0-4.3,2,2,0,0,1,3.06,0,4.63,4.63,0,0,1,0,4.3,2,2,0,0,1-3.06,0Zm2.32-.57a5.15,5.15,0,0,0,0-3.17.88.88,0,0,0-1.58,0,5.15,5.15,0,0,0,0,3.17.87.87,0,0,0,1.58,0Z" transform="translate(0 -0.76)"/></g></g><g id="Group_186" data-name="Group 186"><path id="Path_198" data-name="Path 198" class="cls-5" d="M16,1.76H173a15,15,0,0,1,15,15v16a15,15,0,0,1-15,15H16a15,15,0,0,1-15-15v-16A15,15,0,0,1,16,1.76Z" transform="translate(0 -0.76)"/><g id="D" class="cls-2"><text class="cls-14" transform="translate(87 31)">D</text></g></g><g id="Group_187" data-name="Group 187"><rect id="Rectangle_63-2" data-name="Rectangle 63-2" class="cls-15" x="192" y="1" width="184" height="46" rx="15"/><g id="M" class="cls-2"><text class="cls-14" transform="translate(275 31)">M</text></g></g></svg>