<svg id="Layer_1" data-name="Layer 1" xmlns="http://www.w3.org/2000/svg" viewBox="0 0 376 329"><defs><style>.cls-1,.cls-17,.cls-3{fill:#fff;}.cls-16,.cls-2,.cls-3,.cls-8{isolation:isolate;}.cls-3,.cls-8{font-size:13px;}.cls-16,.cls-3,.cls-8{font-family:Nunito-Bold, Nunito;font-weight:700;}.cls-4{letter-spacing:0em;}.cls-5{letter-spacing:0em;}.cls-6{fill:#d5d5d5;}.cls-11,.cls-14,.cls-7{fill:none;}.cls-11,.cls-7{stroke:#d5d5d5;}.cls-7{stroke-dasharray:10;}.cls-9{letter-spacing:0.02em;}.cls-10{letter-spacing:0em;}.cls-12{letter-spacing:-0.01em;}.cls-13{fill:#00f53f;}.cls-14,.cls-17{stroke:#707070;}.cls-15{fill:#f7f7f7;}.cls-16{font-size:20px;}.cls-17{stroke-miterlimit:10;}</style></defs><rect id="Rectangle_7-2" data-name="Rectangle 7-2" class="cls-1" width="376" height="329" rx="15"/><g id="Gemiddelde_temperatuur" data-name="Gemiddelde temperatuur" class="cls-2"><text class="cls-3" transform="translate(4 27)">Gemiddelde tempe<tspan class="cls-4" x="112.92" y="0">r</tspan><tspan class="cls-5" x="117.87" y="0">atuur</tspan></text></g><rect id="Rectangle_8" data-name="Rectangle 8" class="cls-6" y="46" width="376" height="1"/><g id="_70" data-name=" 70" class="cls-2"><g class="cls-2"><path d="M18.89,135.79a.46.46,0,0,1,.12.33.88.88,0,0,1-.12.43L16,141.77a.56.56,0,0,1-.5.3.55.55,0,0,1-.38-.15.48.48,0,0,1-.17-.36.64.64,0,0,1,.09-.31l2.59-4.66H14.93c-.36,0-.54-.15-.54-.46s.18-.47.54-.47h3.6A.48.48,0,0,1,18.89,135.79Z" transform="translate(0 0)"/><path d="M20.38,141.25a4.15,4.15,0,0,1-.59-2.43,4.09,4.09,0,0,1,.59-2.41,2.18,2.18,0,0,1,3.44,0,5.24,5.24,0,0,1,0,4.83,2.19,2.19,0,0,1-3.44,0Zm2.61-.64a4.21,4.21,0,0,0,.28-1.79A4.13,4.13,0,0,0,23,137a1,1,0,0,0-1.78,0,4.16,4.16,0,0,0-.28,1.78,4.21,4.21,0,0,0,.28,1.79,1,1,0,0,0,1.78,0Z" transform="translate(0 0)"/></g></g><g id="_60" data-name=" 60" class="cls-2"><g class="cls-2"><path d="M18.1,167.19a1.75,1.75,0,0,1,.68.72A2.16,2.16,0,0,1,19,169a2.2,2.2,0,0,1-.27,1.09,2,2,0,0,1-.76.75,2.2,2.2,0,0,1-1.09.27,2.24,2.24,0,0,1-1.86-.81,3.63,3.63,0,0,1-.65-2.33,4.92,4.92,0,0,1,.3-1.8,2.62,2.62,0,0,1,.88-1.16,2.26,2.26,0,0,1,1.34-.41,3.18,3.18,0,0,1,1,.19,2.65,2.65,0,0,1,.87.5.58.58,0,0,1,.17.19.52.52,0,0,1,.05.23.55.55,0,0,1-.11.34.36.36,0,0,1-.27.14.47.47,0,0,1-.17,0l-.2-.11A2.4,2.4,0,0,0,17,165.5a1.15,1.15,0,0,0-1,.61,3.21,3.21,0,0,0-.4,1.7,1.53,1.53,0,0,1,.62-.64,1.84,1.84,0,0,1,.93-.24A2,2,0,0,1,18.1,167.19Zm-.46,2.65a1.21,1.21,0,0,0,.29-.84,1.18,1.18,0,0,0-.29-.83,1.06,1.06,0,0,0-.8-.32,1.1,1.1,0,0,0-.81.32,1.28,1.28,0,0,0,0,1.67,1.06,1.06,0,0,0,.81.32A1,1,0,0,0,17.64,169.84Z" transform="translate(0 0)"/><path d="M20.38,170.25a4.15,4.15,0,0,1-.59-2.43,4.09,4.09,0,0,1,.59-2.41,2.18,2.18,0,0,1,3.44,0,5.24,5.24,0,0,1,0,4.83,2.19,2.19,0,0,1-3.44,0Zm2.61-.64a4.21,4.21,0,0,0,.28-1.79A4.13,4.13,0,0,0,23,166a1,1,0,0,0-1.78,0,4.16,4.16,0,0,0-.28,1.78,4.21,4.21,0,0,0,.28,1.79,1,1,0,0,0,1.78,0Z" transform="translate(0 0)"/></g></g><g id="_50" data-name=" 50" class="cls-2"><g class="cls-2"><path d="M18.08,197.2a1.86,1.86,0,0,1,.71.71A2.16,2.16,0,0,1,19,199a2.06,2.06,0,0,1-.28,1.09,2,2,0,0,1-.8.75,2.71,2.71,0,0,1-1.2.26,3.41,3.41,0,0,1-1.09-.18,2.94,2.94,0,0,1-.91-.5.54.54,0,0,1-.21-.43.52.52,0,0,1,.11-.33.32.32,0,0,1,.27-.14.51.51,0,0,1,.17,0l.19.1a3.3,3.3,0,0,0,.7.39,2,2,0,0,0,.73.13,1.28,1.28,0,0,0,.91-.29,1.29,1.29,0,0,0,0-1.69,1.17,1.17,0,0,0-.87-.31,1.74,1.74,0,0,0-.63.1,2,2,0,0,0-.56.33.62.62,0,0,1-.35.12.47.47,0,0,1-.31-.11.38.38,0,0,1-.13-.29v-2.8a.54.54,0,0,1,.15-.4.52.52,0,0,1,.4-.14h3c.36,0,.54.14.54.45s-.18.44-.54.44H15.91v1.71a1.92,1.92,0,0,1,1.12-.32A2.1,2.1,0,0,1,18.08,197.2Z" transform="translate(0 0)"/><path d="M20.38,200.25a4.15,4.15,0,0,1-.59-2.43,4.09,4.09,0,0,1,.59-2.41,2.18,2.18,0,0,1,3.44,0,5.24,5.24,0,0,1,0,4.83,2.19,2.19,0,0,1-3.44,0Zm2.61-.64a4.21,4.21,0,0,0,.28-1.79A4.13,4.13,0,0,0,23,196a1,1,0,0,0-1.78,0,4.16,4.16,0,0,0-.28,1.78,4.21,4.21,0,0,0,.28,1.79,1,1,0,0,0,1.78,0Z" transform="translate(0 0)"/></g></g><g id="_40" data-name=" 40" class="cls-2"><g class="cls-2"><path d="M19.13,228a.43.43,0,0,1,.14.34c0,.3-.19.45-.54.45h-.46v.71a.53.53,0,0,1-.57.58.56.56,0,0,1-.41-.15.54.54,0,0,1-.16-.43v-.71H14.77a.5.5,0,0,1-.37-.14.48.48,0,0,1-.14-.35.72.72,0,0,1,.14-.41l2.79-4a.57.57,0,0,1,.22-.19.55.55,0,0,1,.28-.07.61.61,0,0,1,.41.15.59.59,0,0,1,.17.44v3.67h.46A.66.66,0,0,1,19.13,228Zm-2-.11v-2.42l-1.67,2.42Z" transform="translate(0 0)"/><path d="M20.38,229.25a4.15,4.15,0,0,1-.59-2.43,4.09,4.09,0,0,1,.59-2.41,2.18,2.18,0,0,1,3.44,0,5.24,5.24,0,0,1,0,4.83,2.19,2.19,0,0,1-3.44,0Zm2.61-.64a4.21,4.21,0,0,0,.28-1.79A4.13,4.13,0,0,0,23,225a1,1,0,0,0-1.78,0,4.16,4.16,0,0,0-.28,1.78,4.21,4.21,0,0,0,.28,1.79,1,1,0,0,0,1.78,0Z" transform="translate(0 0)"/></g></g><g class="cls-2"><g class="cls-2"><path d="M18.54,252.29a1.58,1.58,0,0,1,.3,1,1.6,1.6,0,0,1-.6,1.31,2.55,2.55,0,0,1-1.63.48,3.61,3.61,0,0,1-1.13-.18,2.85,2.85,0,0,1-.91-.5.54.54,0,0,1-.21-.43.52.52,0,0,1,.11-.33.33.33,0,0,1,.27-.14.41.41,0,0,1,.16,0l.2.1a3.68,3.68,0,0,0,.72.39,2,2,0,0,0,.74.13,1.39,1.39,0,0,0,.89-.23.89.89,0,0,0,.28-.73.81.81,0,0,0-.3-.7,1.48,1.48,0,0,0-.93-.23H16a.39.39,0,0,1-.32-.14.48.48,0,0,1-.11-.32.47.47,0,0,1,.11-.33.38.38,0,0,1,.32-.13h.36q1.23,0,1.23-.93a.8.8,0,0,0-.26-.66,1,1,0,0,0-.72-.24,2.43,2.43,0,0,0-1.4.52l-.2.11a.41.41,0,0,1-.16,0,.35.35,0,0,1-.27-.14.55.55,0,0,1-.11-.34.52.52,0,0,1,0-.23.54.54,0,0,1,.16-.19,2.8,2.8,0,0,1,.9-.5,3.32,3.32,0,0,1,1.08-.19,2.31,2.31,0,0,1,1.49.46,1.55,1.55,0,0,1,.55,1.23,1.63,1.63,0,0,1-.28.91,1.47,1.47,0,0,1-.74.57A1.51,1.51,0,0,1,18.54,252.29Z" transform="translate(0 0)"/><path d="M20.38,254.25a4.15,4.15,0,0,1-.59-2.43,4.09,4.09,0,0,1,.59-2.41,2.18,2.18,0,0,1,3.44,0,5.24,5.24,0,0,1,0,4.83,2.19,2.19,0,0,1-3.44,0Zm2.61-.64a4.21,4.21,0,0,0,.28-1.79A4.13,4.13,0,0,0,23,250a1,1,0,0,0-1.78,0,4.16,4.16,0,0,0-.28,1.78,4.21,4.21,0,0,0,.28,1.79,1,1,0,0,0,1.78,0Z" transform="translate(0 0)"/></g></g><g id="Ma" class="cls-2"><g class="cls-2"><path d="M48.72,298.77a.54.54,0,0,1,.16.42v5.32a.54.54,0,0,1-.15.4.48.48,0,0,1-.38.14.49.49,0,0,1-.37-.14.62.62,0,0,1-.13-.4v-3.7l-1.53,2.89a.94.94,0,0,1-.23.3.53.53,0,0,1-.3.09.51.51,0,0,1-.3-.09.84.84,0,0,1-.23-.3l-1.54-2.85v3.66a.57.57,0,0,1-.14.4.51.51,0,0,1-.37.14.46.46,0,0,1-.37-.14.57.57,0,0,1-.14-.4v-5.32a.57.57,0,0,1,.15-.42.51.51,0,0,1,.4-.16.61.61,0,0,1,.55.39l2,3.8,2-3.8a.59.59,0,0,1,.53-.39A.51.51,0,0,1,48.72,298.77Z" transform="translate(0 0)"/><path d="M53.43,301a1.92,1.92,0,0,1,.44,1.38v2.19a.47.47,0,0,1-.54.52.5.5,0,0,1-.38-.14.5.5,0,0,1-.15-.38v-.19a1.14,1.14,0,0,1-.48.54,1.37,1.37,0,0,1-.76.2,1.74,1.74,0,0,1-.8-.18,1.44,1.44,0,0,1-.57-.49,1.25,1.25,0,0,1-.21-.7,1.15,1.15,0,0,1,.25-.77,1.44,1.44,0,0,1,.81-.4,6.83,6.83,0,0,1,1.53-.13h.23v-.21a.89.89,0,0,0-.19-.64.79.79,0,0,0-.61-.2,1.93,1.93,0,0,0-.53.07c-.18.05-.4.13-.64.22a.91.91,0,0,1-.34.12.34.34,0,0,1-.27-.12.42.42,0,0,1-.1-.3.5.5,0,0,1,.07-.27,1,1,0,0,1,.26-.21,3.27,3.27,0,0,1,.75-.27,3.67,3.67,0,0,1,.86-.1A1.83,1.83,0,0,1,53.43,301Zm-.91,3a1.08,1.08,0,0,0,.28-.78V303h-.16a5.65,5.65,0,0,0-.94.06.89.89,0,0,0-.48.19.5.5,0,0,0-.14.37.62.62,0,0,0,.2.47.73.73,0,0,0,.5.18A1,1,0,0,0,52.52,304Z" transform="translate(0 0)"/></g></g><g id="Di" class="cls-2"><g class="cls-2"><path d="M92.83,304.86a.54.54,0,0,1-.15-.41V299.2a.54.54,0,0,1,.15-.4.55.55,0,0,1,.41-.14H95a3.31,3.31,0,0,1,2.42.83,3.09,3.09,0,0,1,.86,2.33,3.14,3.14,0,0,1-.86,2.35A3.35,3.35,0,0,1,95,305H93.24A.6.6,0,0,1,92.83,304.86Zm2.12-.81a2.23,2.23,0,0,0,0-4.45h-1.1v4.45Z" transform="translate(0 0)"/><path d="M99.44,299.54a.55.55,0,0,1-.18-.43.56.56,0,0,1,.18-.44.76.76,0,0,1,.49-.16.73.73,0,0,1,.48.16.57.57,0,0,1,.19.44.55.55,0,0,1-.18.43.73.73,0,0,1-.49.17A.71.71,0,0,1,99.44,299.54Zm.09,5.37a.48.48,0,0,1-.16-.4V301a.49.49,0,0,1,.16-.4.68.68,0,0,1,.8,0,.5.5,0,0,1,.17.4v3.47a.49.49,0,0,1-.17.4.64.64,0,0,1-.8,0Z" transform="translate(0 0)"/></g></g><g id="Wo" class="cls-2"><g class="cls-2"><path d="M145.84,298.69a.59.59,0,0,1,.31-.09.57.57,0,0,1,.38.14.46.46,0,0,1,.15.36.84.84,0,0,1,0,.23l-1.94,5.35a.49.49,0,0,1-.23.28.73.73,0,0,1-.74,0,.49.49,0,0,1-.23-.28l-1.5-4.23-1.52,4.23a.47.47,0,0,1-.24.28.7.7,0,0,1-.72,0,.46.46,0,0,1-.23-.28l-1.94-5.35a.74.74,0,0,1,0-.23.44.44,0,0,1,.16-.36.6.6,0,0,1,.39-.14.63.63,0,0,1,.33.09.58.58,0,0,1,.21.27l1.52,4.4L141.5,299a.56.56,0,0,1,.21-.29.57.57,0,0,1,.31-.1.6.6,0,0,1,.32.1.55.55,0,0,1,.21.3l1.53,4.42,1.56-4.46A.51.51,0,0,1,145.84,298.69Z" transform="translate(0 0)"/><path d="M147.88,304.79a1.85,1.85,0,0,1-.79-.8,2.49,2.49,0,0,1-.28-1.21,2.46,2.46,0,0,1,.28-1.21,1.9,1.9,0,0,1,.79-.8,2.63,2.63,0,0,1,2.36,0,2,2,0,0,1,.79.8,2.57,2.57,0,0,1,.27,1.21A2.6,2.6,0,0,1,151,304a1.91,1.91,0,0,1-.79.8,2.63,2.63,0,0,1-2.36,0Zm2-1a1.67,1.67,0,0,0,.29-1.06,1.69,1.69,0,0,0-.29-1.06,1.14,1.14,0,0,0-1.66,0,1.63,1.63,0,0,0-.3,1.06,1.67,1.67,0,0,0,.29,1.06,1.15,1.15,0,0,0,1.67,0Z" transform="translate(0 0)"/></g></g><g id="Do" class="cls-2"><g class="cls-2"><path d="M191.83,304.86a.54.54,0,0,1-.15-.41V299.2a.54.54,0,0,1,.15-.4.55.55,0,0,1,.41-.14H194a3.31,3.31,0,0,1,2.42.83,3.09,3.09,0,0,1,.86,2.33,3.14,3.14,0,0,1-.86,2.35A3.35,3.35,0,0,1,194,305h-1.78A.6.6,0,0,1,191.83,304.86Zm2.12-.81a2.23,2.23,0,0,0,0-4.45h-1.1v4.45Z" transform="translate(0 0)"/><path d="M199.2,304.79a1.85,1.85,0,0,1-.79-.8,2.49,2.49,0,0,1-.28-1.21,2.46,2.46,0,0,1,.28-1.21,1.9,1.9,0,0,1,.79-.8,2.34,2.34,0,0,1,1.18-.28,2.37,2.37,0,0,1,1.18.28,1.88,1.88,0,0,1,.78.8,2.46,2.46,0,0,1,.28,1.21,2.49,2.49,0,0,1-.28,1.21,1.83,1.83,0,0,1-.78.8,2.37,2.37,0,0,1-1.18.28A2.34,2.34,0,0,1,199.2,304.79Zm2-1a1.68,1.68,0,0,0,.28-1.06,1.7,1.7,0,0,0-.28-1.06,1,1,0,0,0-.83-.36,1,1,0,0,0-.84.36,1.69,1.69,0,0,0-.29,1.06,1.67,1.67,0,0,0,.29,1.06,1,1,0,0,0,.83.36A1,1,0,0,0,201.21,303.84Z" transform="translate(0 0)"/></g></g><g id="Vr" class="cls-2"><g class="cls-2"><path d="M245.78,298.6a.6.6,0,0,1,.4.15.43.43,0,0,1,.18.36.49.49,0,0,1-.05.22l-2.49,5.36a.6.6,0,0,1-.25.27.74.74,0,0,1-.36.09.73.73,0,0,1-.35-.09.55.55,0,0,1-.25-.27l-2.48-5.36a.52.52,0,0,1-.06-.22.41.41,0,0,1,.19-.36.63.63,0,0,1,.41-.15.57.57,0,0,1,.29.08.51.51,0,0,1,.2.23l2.07,4.6,2.07-4.6A.5.5,0,0,1,245.78,298.6Z" transform="translate(0 0)"/><path d="M249.31,300.61a.44.44,0,0,1,.14.35.49.49,0,0,1-.12.36.69.69,0,0,1-.42.15l-.27,0a1.15,1.15,0,0,0-.78.36,1.2,1.2,0,0,0-.25.76v1.89a.48.48,0,0,1-.16.4.56.56,0,0,1-.4.14.53.53,0,0,1-.4-.14.48.48,0,0,1-.16-.4V301a.47.47,0,0,1,.16-.39.56.56,0,0,1,.39-.13.55.55,0,0,1,.38.13.5.5,0,0,1,.14.37v.36a1.33,1.33,0,0,1,.51-.61,1.58,1.58,0,0,1,.75-.24H249A.47.47,0,0,1,249.31,300.61Z" transform="translate(0 0)"/></g></g><g id="Za" class="cls-2"><g class="cls-2"><path d="M291.21,304.53c0,.31-.18.47-.54.47h-3.83a.54.54,0,0,1-.38-.14.49.49,0,0,1-.14-.36.67.67,0,0,1,.15-.41l3.22-4.51h-2.82c-.36,0-.54-.15-.54-.46s.18-.46.54-.46h3.72a.49.49,0,0,1,.37.13.46.46,0,0,1,.14.35.67.67,0,0,1-.15.41l-3.22,4.52h2.94C291,304.07,291.21,304.23,291.21,304.53Z" transform="translate(0 0)"/><path d="M295.18,301a1.88,1.88,0,0,1,.45,1.38v2.19a.47.47,0,0,1-.54.52.5.5,0,0,1-.38-.14.5.5,0,0,1-.15-.38v-.19a1.14,1.14,0,0,1-.48.54,1.37,1.37,0,0,1-.76.2,1.74,1.74,0,0,1-.8-.18,1.44,1.44,0,0,1-.57-.49,1.25,1.25,0,0,1-.21-.7,1.1,1.1,0,0,1,.25-.77,1.4,1.4,0,0,1,.8-.4,7,7,0,0,1,1.54-.13h.23v-.21a.89.89,0,0,0-.19-.64.79.79,0,0,0-.61-.2,1.93,1.93,0,0,0-.53.07c-.18.05-.4.13-.64.22a.91.91,0,0,1-.34.12.34.34,0,0,1-.27-.12.42.42,0,0,1-.1-.3.5.5,0,0,1,.07-.27.84.84,0,0,1,.26-.21,3.27,3.27,0,0,1,.75-.27,3.67,3.67,0,0,1,.86-.1A1.79,1.79,0,0,1,295.18,301Zm-.9,3a1.13,1.13,0,0,0,.28-.78V303h-.16a5.65,5.65,0,0,0-.94.06.89.89,0,0,0-.48.19.5.5,0,0,0-.14.37.62.62,0,0,0,.2.47.73.73,0,0,0,.5.18A1,1,0,0,0,294.28,304Z" transform="translate(0 0)"/></g></g><g id="Zo" class="cls-2"><g class="cls-2"><path d="M337.21,304.53c0,.31-.18.47-.54.47h-3.83a.54.54,0,0,1-.38-.14.49.49,0,0,1-.14-.36.67.67,0,0,1,.15-.41l3.22-4.51h-2.82c-.36,0-.54-.15-.54-.46s.18-.46.54-.46h3.72a.49.49,0,0,1,.37.13.46.46,0,0,1,.14.35.67.67,0,0,1-.15.41l-3.22,4.52h2.94C337,304.07,337.21,304.23,337.21,304.53Z" transform="translate(0 0)"/><path d="M338.75,304.79a1.88,1.88,0,0,1-.78-.8,2.49,2.49,0,0,1-.28-1.21,2.46,2.46,0,0,1,.28-1.21,1.94,1.94,0,0,1,.78-.8,2.41,2.41,0,0,1,1.19-.28,2.37,2.37,0,0,1,1.18.28,1.88,1.88,0,0,1,.78.8,2.46,2.46,0,0,1,.28,1.21,2.49,2.49,0,0,1-.28,1.21,1.83,1.83,0,0,1-.78.8,2.37,2.37,0,0,1-1.18.28A2.41,2.41,0,0,1,338.75,304.79Zm2-1a1.68,1.68,0,0,0,.28-1.06,1.7,1.7,0,0,0-.28-1.06,1,1,0,0,0-.83-.36,1,1,0,0,0-.83.36,1.63,1.63,0,0,0-.3,1.06,1.67,1.67,0,0,0,.29,1.06,1,1,0,0,0,.83.36A1,1,0,0,0,340.77,303.84Z" transform="translate(0 0)"/></g></g><g id="_0" data-name=" 0" class="cls-2"><g class="cls-2"><path d="M20.87,285.33a4.63,4.63,0,0,1,0-4.3,2,2,0,0,1,3.06,0,4.63,4.63,0,0,1,0,4.3,1.77,1.77,0,0,1-1.53.74A1.74,1.74,0,0,1,20.87,285.33Zm2.32-.57a5.15,5.15,0,0,0,0-3.17.88.88,0,0,0-1.58,0,5.15,5.15,0,0,0,0,3.17.87.87,0,0,0,1.58,0Z" transform="translate(0 0)"/></g></g><line id="Line_1" data-name="Line 1" class="cls-7" x1="42.17" y1="137.63" x2="342.56" y2="137.63"/><line id="Line_2" data-name="Line 2" class="cls-7" x1="42.17" y1="169.55" x2="342.56" y2="169.55"/><line id="Line_3" data-name="Line 3" class="cls-7" x1="42.17" y1="198.46" x2="342.56" y2="198.46"/><line id="Line_4" data-name="Line 4" class="cls-7" x1="42.17" y1="227.38" x2="342.56" y2="227.38"/><line id="Line_5" data-name="Line 5" class="cls-7" x1="42.17" y1="256.29" x2="342.56" y2="256.29"/><line id="Line_6" data-name="Line 6" class="cls-7" x1="41.37" y1="285.21" x2="341.76" y2="285.21"/><g id="Bekijk_per:" data-name="Bekijk per:" class="cls-2"><text class="cls-8" transform="translate(243 27)">Bekijk pe<tspan class="cls-9" x="54.56" y="0">r</tspan><tspan class="cls-10" x="59.76" y="0">:</tspan></text></g><g id="Group_134" data-name="Group 134"><rect id="Rectangle_9-2" data-name="Rectangle 9-2" class="cls-1" x="309" y="11" width="57" height="25"/><path id="Path_39" data-name="Path 39" class="cls-11" d="M357.76,22.05l3,3,3-3" transform="translate(0 0)"/><g id="week" class="cls-2"><text class="cls-8" transform="translate(315 27)"><tspan class="cls-12">w</tspan><tspan x="11.02" y="0">eek</tspan></text></g></g><rect id="Rectangle_53" data-name="Rectangle 53" class="cls-13" x="39" y="158" width="20" height="128"/><rect id="Rectangle_54" data-name="Rectangle 54" class="cls-13" x="88" y="152" width="20" height="134"/><g id="Rectangle_55" data-name="Rectangle 55"><rect class="cls-13" x="136" y="147" width="20" height="139"/><rect class="cls-14" x="136.5" y="147.5" width="19" height="138"/></g><rect id="Rectangle_56" data-name="Rectangle 56" class="cls-13" x="188" y="162" width="20" height="124"/><rect id="Rectangle_57" data-name="Rectangle 57" class="cls-13" x="236" y="168" width="20" height="118"/><rect id="Rectangle_58" data-name="Rectangle 58" class="cls-13" x="282" y="172" width="20" height="114"/><rect id="Rectangle_59" data-name="Rectangle 59" class="cls-13" x="327" y="179" width="20" height="107"/><line id="Line_9" data-name="Line 9" class="cls-14" x1="145.5" y1="147.5" x2="145.5" y2="116.5"/><g id="Group_186" data-name="Group 186"><path id="Path_198-2" data-name="Path 198-2" class="cls-15" d="M16,0H173a15,15,0,0,1,15,15V31a15,15,0,0,1-15,15H16A15,15,0,0,1,1,31V15A15,15,0,0,1,16,0Z" transform="translate(0 0)"/><g id="D" class="cls-2"><text class="cls-16" transform="translate(87 30)">D</text></g></g><g id="Group_187" data-name="Group 187"><rect id="Rectangle_63" data-name="Rectangle 63" class="cls-1" x="192" width="184" height="46" rx="15"/><g id="M" class="cls-2"><text class="cls-16" transform="translate(275 30)">M</text></g></g><rect id="Rectangle_35-2" data-name="Rectangle 35-2" class="cls-17" x="102" y="61" width="87" height="56" rx="9"/><g id="LUCHTVOCHTIGHEID" class="cls-2"><g class="cls-2"><path d="M106.55,69.9a.36.36,0,0,1-.09-.26V66.12a.4.4,0,0,1,.1-.28.41.41,0,0,1,.28-.1.44.44,0,0,1,.29.1.45.45,0,0,1,.1.28v3.24h1.69c.24,0,.36.11.36.32s-.12.32-.36.32h-2.1A.36.36,0,0,1,106.55,69.9Z" transform="translate(0 0)"/><path d="M111.24,69.6a1.76,1.76,0,0,1-.45-1.31V66.12a.41.41,0,0,1,.11-.28.39.39,0,0,1,.27-.1.41.41,0,0,1,.28.1.4.4,0,0,1,.1.28v2.21a1.2,1.2,0,0,0,.26.83,1,1,0,0,0,.75.28,1,1,0,0,0,.75-.29,1.12,1.12,0,0,0,.26-.82V66.12a.45.45,0,0,1,.1-.28.44.44,0,0,1,.56,0,.45.45,0,0,1,.1.28v2.17a1.87,1.87,0,0,1-3.09,1.31Z" transform="translate(0 0)"/><path d="M117.23,69.79a1.78,1.78,0,0,1-.7-.76,2.57,2.57,0,0,1-.25-1.15,2.6,2.6,0,0,1,.25-1.15,1.81,1.81,0,0,1,.7-.75,2.11,2.11,0,0,1,1.08-.26,2.25,2.25,0,0,1,.74.11,2,2,0,0,1,.62.34.33.33,0,0,1,.11.13.38.38,0,0,1,0,.16.33.33,0,0,1-.08.22.2.2,0,0,1-.17.09.52.52,0,0,1-.25-.08,1.69,1.69,0,0,0-.48-.27,1.49,1.49,0,0,0-.49-.07,1.15,1.15,0,0,0-.94.39,2.21,2.21,0,0,0,0,2.29,1.15,1.15,0,0,0,.94.39,1.51,1.51,0,0,0,.48-.07,2.47,2.47,0,0,0,.49-.27l.12-.06.13,0a.2.2,0,0,1,.17.09.33.33,0,0,1,.08.22.41.41,0,0,1,0,.16.42.42,0,0,1-.11.13,2,2,0,0,1-.62.34,2.55,2.55,0,0,1-.74.11A2.11,2.11,0,0,1,117.23,69.79Z" transform="translate(0 0)"/><path d="M125.27,65.84a.45.45,0,0,1,.1.28v3.53a.39.39,0,0,1-.11.28A.37.37,0,0,1,125,70a.38.38,0,0,1-.28-.11.43.43,0,0,1-.1-.28V68.16h-2.16v1.49a.39.39,0,0,1-.11.28.38.38,0,0,1-.28.11.37.37,0,0,1-.27-.11.39.39,0,0,1-.11-.28V66.12a.41.41,0,0,1,.11-.28.39.39,0,0,1,.27-.1.36.36,0,0,1,.39.38v1.42h2.16V66.12a.45.45,0,0,1,.1-.28.44.44,0,0,1,.56,0Z" transform="translate(0 0)"/><path d="M128.58,69.92a.35.35,0,0,1-.1-.27V66.41h-1.1c-.24,0-.36-.11-.36-.32s.12-.32.36-.32h3c.24,0,.36.11.36.32s-.12.32-.36.32h-1.09v3.24a.39.39,0,0,1-.1.27.37.37,0,0,1-.28.11A.36.36,0,0,1,128.58,69.92Z" transform="translate(0 0)"/><path d="M135.87,65.73a.45.45,0,0,1,.27.1.29.29,0,0,1,.12.24.49.49,0,0,1,0,.15l-1.66,3.58a.46.46,0,0,1-.17.17.48.48,0,0,1-.24.07.48.48,0,0,1-.23-.07.4.4,0,0,1-.17-.17l-1.65-3.58a.3.3,0,0,1,.08-.39.48.48,0,0,1,.28-.1.33.33,0,0,1,.19.06.34.34,0,0,1,.14.15L134.18,69l1.38-3.06A.32.32,0,0,1,135.87,65.73Z" transform="translate(0 0)"/><path d="M138.67,69.79A1.72,1.72,0,0,1,138,69a2.44,2.44,0,0,1-.25-1.15,2.6,2.6,0,0,1,.24-1.15,1.88,1.88,0,0,1,.7-.75,2.11,2.11,0,0,1,1.08-.26,2,2,0,0,1,1.07.26,1.79,1.79,0,0,1,.69.75,2.47,2.47,0,0,1,.25,1.15A2.44,2.44,0,0,1,141.5,69a1.78,1.78,0,0,1-.7.76,2,2,0,0,1-1.06.26A2,2,0,0,1,138.67,69.79Zm2-.76a1.81,1.81,0,0,0,.32-1.15,1.83,1.83,0,0,0-.32-1.15,1.13,1.13,0,0,0-.91-.4,1.15,1.15,0,0,0-.92.4,1.77,1.77,0,0,0-.32,1.15,1.75,1.75,0,0,0,.32,1.15,1.13,1.13,0,0,0,.92.41A1.11,1.11,0,0,0,140.65,69Z" transform="translate(0 0)"/><path d="M144.55,69.79a1.8,1.8,0,0,1-.71-.76,2.57,2.57,0,0,1-.24-1.15,2.6,2.6,0,0,1,.24-1.15,1.83,1.83,0,0,1,.71-.75,2,2,0,0,1,1.07-.26,2.25,2.25,0,0,1,.74.11,2,2,0,0,1,.62.34.33.33,0,0,1,.11.13.4.4,0,0,1,0,.38.23.23,0,0,1-.18.09.46.46,0,0,1-.24-.08,2,2,0,0,0-.48-.27,1.59,1.59,0,0,0-.5-.07,1.15,1.15,0,0,0-.94.39,2.21,2.21,0,0,0,0,2.29,1.15,1.15,0,0,0,.94.39,1.47,1.47,0,0,0,.48-.07,2.51,2.51,0,0,0,.5-.27l.12-.06.12,0a.23.23,0,0,1,.18.09.38.38,0,0,1,.07.22.41.41,0,0,1,0,.16.42.42,0,0,1-.11.13,2,2,0,0,1-.62.34,2.55,2.55,0,0,1-.74.11A2,2,0,0,1,144.55,69.79Z" transform="translate(0 0)"/><path d="M152.58,65.84a.4.4,0,0,1,.1.28v3.53a.39.39,0,0,1-.11.28.37.37,0,0,1-.27.11.35.35,0,0,1-.27-.11.39.39,0,0,1-.11-.28V68.16h-2.16v1.49a.39.39,0,0,1-.11.28.38.38,0,0,1-.28.11.37.37,0,0,1-.27-.11.39.39,0,0,1-.1-.28V66.12a.4.4,0,0,1,.1-.28.41.41,0,0,1,.27-.1.36.36,0,0,1,.39.38v1.42h2.16V66.12a.41.41,0,0,1,.11-.28.39.39,0,0,1,.27-.1A.41.41,0,0,1,152.58,65.84Z" transform="translate(0 0)"/><path d="M155.89,69.92a.35.35,0,0,1-.1-.27V66.41H154.7c-.24,0-.36-.11-.36-.32s.12-.32.36-.32h3c.24,0,.36.11.36.32s-.12.32-.36.32h-1.09v3.24a.35.35,0,0,1-.1.27.36.36,0,0,1-.28.11A.36.36,0,0,1,155.89,69.92Z" transform="translate(0 0)"/><path d="M159.77,69.93a.39.39,0,0,1-.1-.28V66.12a.4.4,0,0,1,.1-.28.43.43,0,0,1,.28-.1.44.44,0,0,1,.29.1.4.4,0,0,1,.1.28v3.53a.39.39,0,0,1-.1.28.4.4,0,0,1-.29.11A.39.39,0,0,1,159.77,69.93Z" transform="translate(0 0)"/><path d="M166,67.79a.29.29,0,0,1,.08.22V69.3a.77.77,0,0,1-.07.39.5.5,0,0,1-.29.18,3.52,3.52,0,0,1-.56.14,4.35,4.35,0,0,1-.61,0,2.4,2.4,0,0,1-1.14-.25,1.76,1.76,0,0,1-.73-.75,2.52,2.52,0,0,1-.26-1.17,2.44,2.44,0,0,1,.26-1.15,1.74,1.74,0,0,1,.72-.75,2.17,2.17,0,0,1,1.11-.26,2.08,2.08,0,0,1,1.38.45l.11.13a.41.41,0,0,1,0,.16.32.32,0,0,1-.07.22.23.23,0,0,1-.18.09l-.12,0-.12-.07a2.14,2.14,0,0,0-.49-.26,1.72,1.72,0,0,0-.52-.07,1.22,1.22,0,0,0-1,.38,1.73,1.73,0,0,0-.33,1.15c0,1,.46,1.56,1.37,1.56a3.22,3.22,0,0,0,.81-.11V68.27h-.67a.32.32,0,0,1-.23-.08.29.29,0,0,1,0-.4.32.32,0,0,1,.23-.08h1.06A.33.33,0,0,1,166,67.79Z" transform="translate(0 0)"/><path d="M171.74,65.84a.45.45,0,0,1,.1.28v3.53a.39.39,0,0,1-.11.28.37.37,0,0,1-.27.11.38.38,0,0,1-.28-.11.43.43,0,0,1-.1-.28V68.16h-2.16v1.49a.39.39,0,0,1-.11.28.38.38,0,0,1-.28.11.37.37,0,0,1-.27-.11.39.39,0,0,1-.11-.28V66.12a.41.41,0,0,1,.11-.28.39.39,0,0,1,.27-.1.36.36,0,0,1,.39.38v1.42h2.16V66.12a.45.45,0,0,1,.1-.28.44.44,0,0,1,.56,0Z" transform="translate(0 0)"/><path d="M174.05,69.9a.33.33,0,0,1-.1-.27V66.14a.33.33,0,0,1,.1-.27.35.35,0,0,1,.27-.1h2.17a.46.46,0,0,1,.27.08.27.27,0,0,1,.09.22.29.29,0,0,1-.09.23.4.4,0,0,1-.27.08h-1.78v1.17h1.66a.45.45,0,0,1,.27.07.3.3,0,0,1,.09.23.27.27,0,0,1-.09.22.4.4,0,0,1-.27.08h-1.66v1.24h1.78a.46.46,0,0,1,.27.08.29.29,0,0,1,.09.23.27.27,0,0,1-.09.22.46.46,0,0,1-.27.08h-2.17A.35.35,0,0,1,174.05,69.9Z" transform="translate(0 0)"/><path d="M178.79,69.93a.39.39,0,0,1-.11-.28V66.12a.39.39,0,1,1,.78,0v3.53a.39.39,0,0,1-.11.28.41.41,0,0,1-.56,0Z" transform="translate(0 0)"/><path d="M181.67,69.9a.33.33,0,0,1-.1-.27V66.14a.33.33,0,0,1,.1-.27.35.35,0,0,1,.27-.1h1.19a2.22,2.22,0,0,1,1.61.56,2.05,2.05,0,0,1,.57,1.55,2.1,2.1,0,0,1-.57,1.57,2.22,2.22,0,0,1-1.61.55h-1.19A.35.35,0,0,1,181.67,69.9Zm1.41-.53a1.49,1.49,0,0,0,0-3h-.74v3Z" transform="translate(0 0)"/></g></g><g id="Group_166" data-name="Group 166"><g id="_61" data-name=" 61" class="cls-2"><g class="cls-2"><path d="M139.28,87.22a3.27,3.27,0,0,1,1.22,1.28,3.87,3.87,0,0,1,.44,1.88,3.91,3.91,0,0,1-.48,2,3.52,3.52,0,0,1-1.35,1.33,3.9,3.9,0,0,1-1.94.48,4,4,0,0,1-3.31-1.44,6.52,6.52,0,0,1-1.16-4.14,8.55,8.55,0,0,1,.55-3.19,4.49,4.49,0,0,1,1.56-2.07,4,4,0,0,1,2.39-.72,5.6,5.6,0,0,1,1.83.32,4.72,4.72,0,0,1,1.56.89,1.17,1.17,0,0,1,.3.35.82.82,0,0,1,.09.4.92.92,0,0,1-.2.6.59.59,0,0,1-.48.25,1,1,0,0,1-.3,0,2.11,2.11,0,0,1-.35-.19,4.32,4.32,0,0,0-2.37-.93,2.07,2.07,0,0,0-1.84,1.08,5.94,5.94,0,0,0-.7,3,2.71,2.71,0,0,1,1.1-1.15,3.27,3.27,0,0,1,1.65-.42A3.53,3.53,0,0,1,139.28,87.22Zm-.82,4.72a2.36,2.36,0,0,0,0-3,1.84,1.84,0,0,0-1.4-.56,1.93,1.93,0,0,0-1.45.57,2.28,2.28,0,0,0,0,3,1.93,1.93,0,0,0,1.45.57A1.82,1.82,0,0,0,138.46,91.94Z" transform="translate(0 0)"/><path d="M150.58,93.15c0,.57-.32.85-1,.85h-5.41c-.65,0-1-.28-1-.85s.33-.81,1-.81h1.66V85l-1.53.94a.81.81,0,0,1-.4.13.68.68,0,0,1-.57-.29,1,1,0,0,1-.23-.64.8.8,0,0,1,.41-.72L146,82.93a1.82,1.82,0,0,1,.91-.29,1,1,0,0,1,.72.27,1,1,0,0,1,.28.75v8.68h1.68Q150.58,92.34,150.58,93.15Z" transform="translate(0 0)"/></g></g><g id="_" data-name=" " class="cls-2"><g class="cls-2"><path d="M151.72,86.29a2.36,2.36,0,0,1,0-2.57,1.47,1.47,0,0,1,2.1,0,2.36,2.36,0,0,1,0,2.57,1.47,1.47,0,0,1-2.1,0Zm1.49-.46a1.74,1.74,0,0,0,.14-.83,1.86,1.86,0,0,0-.14-.82.51.51,0,0,0-.88,0,1.83,1.83,0,0,0-.14.82,1.88,1.88,0,0,0,.14.83.47.47,0,0,0,.44.25A.46.46,0,0,0,153.21,85.83Zm.27,3.25a.42.42,0,0,1-.21.06A.35.35,0,0,1,153,89a.36.36,0,0,1-.11-.26.6.6,0,0,1,.08-.28l2.91-5a.55.55,0,0,1,.18-.19.42.42,0,0,1,.21-.06.35.35,0,0,1,.25.1.36.36,0,0,1,.11.26.6.6,0,0,1-.08.28l-2.91,5A.55.55,0,0,1,153.48,89.08Zm2.26-.46a2,2,0,0,1-.37-1.3,1.87,1.87,0,0,1,.38-1.28,1.3,1.3,0,0,1,1-.43,1.28,1.28,0,0,1,1.05.44,1.92,1.92,0,0,1,.38,1.28,2,2,0,0,1-.38,1.29,1.47,1.47,0,0,1-2.1,0Zm1.49-.46a1.72,1.72,0,0,0,.15-.83,1.71,1.71,0,0,0-.15-.82.46.46,0,0,0-.44-.25.47.47,0,0,0-.44.25,1.86,1.86,0,0,0-.14.82,1.88,1.88,0,0,0,.14.83.49.49,0,0,0,.44.25A.48.48,0,0,0,157.23,88.16Z" transform="translate(0 0)"/></g></g></g><g id="_27_MEI_2020" data-name=" 27 MEI 2020" class="cls-2"><g class="cls-2"><path d="M126.35,111.68c0,.21-.12.32-.36.32h-2.28a.31.31,0,0,1-.34-.32.49.49,0,0,1,.14-.33l1.37-1.47a2.36,2.36,0,0,0,.37-.5,1,1,0,0,0,.11-.46.57.57,0,0,0-.16-.44.65.65,0,0,0-.46-.15,1.37,1.37,0,0,0-.48.1,2.09,2.09,0,0,0-.46.25l-.12.07-.12,0a.21.21,0,0,1-.18-.1.35.35,0,0,1-.07-.23.33.33,0,0,1,0-.15.41.41,0,0,1,.1-.13,2.16,2.16,0,0,1,.62-.33,2.21,2.21,0,0,1,.71-.12,1.49,1.49,0,0,1,1,.31,1.07,1.07,0,0,1,.37.84,1.58,1.58,0,0,1-.16.68,2.73,2.73,0,0,1-.53.72l-1,1.11H126Q126.35,111.38,126.35,111.68Z" transform="translate(0 0)"/><path d="M131.06,107.86a.29.29,0,0,1,.09.22.57.57,0,0,1-.09.29l-1.91,3.47a.37.37,0,0,1-.33.21.42.42,0,0,1-.26-.1.34.34,0,0,1-.11-.24.42.42,0,0,1,.06-.21l1.73-3.11h-1.82q-.36,0-.36-.3c0-.21.12-.32.36-.32h2.4A.3.3,0,0,1,131.06,107.86Z" transform="translate(0 0)"/><path d="M139.91,107.84a.41.41,0,0,1,.11.28v3.56a.36.36,0,0,1-.1.26.36.36,0,0,1-.25.1.34.34,0,0,1-.25-.1.36.36,0,0,1-.09-.26V109.2l-1,1.94a.79.79,0,0,1-.15.19.36.36,0,0,1-.2.06.34.34,0,0,1-.2-.06.52.52,0,0,1-.16-.19l-1-1.91v2.45a.39.39,0,0,1-.09.26.37.37,0,0,1-.25.1.34.34,0,0,1-.25-.1.36.36,0,0,1-.09-.26v-3.56a.4.4,0,0,1,.1-.28.37.37,0,0,1,.27-.1.41.41,0,0,1,.36.26l1.33,2.54,1.33-2.54a.41.41,0,0,1,.35-.26A.37.37,0,0,1,139.91,107.84Z" transform="translate(0 0)"/><path d="M142.23,111.9a.37.37,0,0,1-.1-.27v-3.49a.35.35,0,0,1,.38-.37h2.16a.41.41,0,0,1,.27.08.25.25,0,0,1,.1.22.26.26,0,0,1-.1.23.36.36,0,0,1-.27.08h-1.78v1.17h1.66a.41.41,0,0,1,.27.07.28.28,0,0,1,.1.23.25.25,0,0,1-.1.22.36.36,0,0,1-.27.08h-1.66v1.24h1.78a.41.41,0,0,1,.27.08.26.26,0,0,1,.1.23.25.25,0,0,1-.1.22.41.41,0,0,1-.27.08h-2.16A.37.37,0,0,1,142.23,111.9Z" transform="translate(0 0)"/><path d="M147,111.93a.39.39,0,0,1-.1-.28v-3.53a.4.4,0,0,1,.1-.28.43.43,0,0,1,.28-.1.44.44,0,0,1,.29.1.4.4,0,0,1,.1.28v3.53a.39.39,0,0,1-.1.28.4.4,0,0,1-.29.11A.39.39,0,0,1,147,111.93Z" transform="translate(0 0)"/><path d="M155.47,111.68c0,.21-.12.32-.36.32h-2.28a.32.32,0,0,1-.24-.09.33.33,0,0,1-.09-.23.48.48,0,0,1,.13-.33l1.37-1.47a2.36,2.36,0,0,0,.37-.5,1,1,0,0,0,.12-.46.61.61,0,0,0-.16-.44.68.68,0,0,0-.47-.15,1.28,1.28,0,0,0-.47.1,2.15,2.15,0,0,0-.47.25l-.12.07-.12,0a.21.21,0,0,1-.18-.1.35.35,0,0,1-.07-.23.32.32,0,0,1,.14-.28,1.93,1.93,0,0,1,.62-.33,2.15,2.15,0,0,1,.7-.12,1.47,1.47,0,0,1,1,.31,1,1,0,0,1,.37.84,1.45,1.45,0,0,1-.16.68,2.91,2.91,0,0,1-.52.72l-1,1.11h1.58Q155.47,111.38,155.47,111.68Z" transform="translate(0 0)"/><path d="M157.58,111.5a3.54,3.54,0,0,1,0-3.23,1.48,1.48,0,0,1,2.3,0,2.79,2.79,0,0,1,.39,1.61,2.83,2.83,0,0,1-.39,1.62,1.48,1.48,0,0,1-2.3,0Zm1.74-.43a3.82,3.82,0,0,0,0-2.38.66.66,0,0,0-1.18,0,2.74,2.74,0,0,0-.19,1.19,2.71,2.71,0,0,0,.19,1.19.65.65,0,0,0,1.18,0Z" transform="translate(0 0)"/><path d="M165.08,111.68c0,.21-.12.32-.36.32h-2.28a.31.31,0,0,1-.34-.32.49.49,0,0,1,.14-.33l1.37-1.47a2.36,2.36,0,0,0,.37-.5,1.14,1.14,0,0,0,.11-.46.57.57,0,0,0-.16-.44.65.65,0,0,0-.46-.15,1.37,1.37,0,0,0-.48.1,2.09,2.09,0,0,0-.46.25l-.12.07a.27.27,0,0,1-.12,0,.21.21,0,0,1-.18-.1.35.35,0,0,1-.07-.23.33.33,0,0,1,0-.15.41.41,0,0,1,.1-.13,2.16,2.16,0,0,1,.62-.33,2.21,2.21,0,0,1,.71-.12,1.49,1.49,0,0,1,1,.31,1.07,1.07,0,0,1,.37.84,1.58,1.58,0,0,1-.16.68,2.73,2.73,0,0,1-.53.72l-1,1.11h1.59Q165.08,111.38,165.08,111.68Z" transform="translate(0 0)"/><path d="M167.19,111.5a3.46,3.46,0,0,1,0-3.23,1.32,1.32,0,0,1,1.15-.55,1.3,1.3,0,0,1,1.14.55,2.72,2.72,0,0,1,.4,1.61,2.75,2.75,0,0,1-.4,1.62,1.3,1.3,0,0,1-1.14.55A1.32,1.32,0,0,1,167.19,111.5Zm1.74-.43a3.82,3.82,0,0,0,0-2.38.62.62,0,0,0-.59-.37.64.64,0,0,0-.6.37,2.93,2.93,0,0,0-.18,1.19,2.9,2.9,0,0,0,.18,1.19.63.63,0,0,0,.6.38A.62.62,0,0,0,168.93,111.07Z" transform="translate(0 0)"/></g></g></svg>