<svg id="Layer_1" data-name="Layer 1" xmlns="http://www.w3.org/2000/svg" viewBox="0 0 376 329"><defs><style>.cls-1,.cls-2,.cls-9{fill:#fff;}.cls-11,.cls-2,.cls-6{isolation:isolate;}.cls-2{font-size:13px;}.cls-11,.cls-2{font-family:Nunito-Bold, Nunito;font-weight:700;}.cls-3{letter-spacing:0em;}.cls-4{letter-spacing:0em;}.cls-5{fill:#d5d5d5;}.cls-7,.cls-8{fill:none;}.cls-7{stroke:#d5d5d5;stroke-dasharray:10;}.cls-8,.cls-9{stroke:#707070;}.cls-9{stroke-miterlimit:10;}.cls-10{fill:#f7f7f7;}.cls-11{font-size:20px;}.cls-12{fill:#00f53f;}</style></defs><path id="Rectangle_7-2" data-name="Rectangle 7-2" class="cls-1" d="M15,0H361a15,15,0,0,1,15,15V314a15,15,0,0,1-15,15H15A15,15,0,0,1,0,314V15A15,15,0,0,1,15,0Z" transform="translate(0 0)"/><text class="cls-2" transform="translate(3.96 27)">Gemiddelde tempe<tspan class="cls-3" x="112.92" y="0">r</tspan><tspan class="cls-4" x="117.87" y="0">atuur</tspan></text><rect id="Rectangle_8" data-name="Rectangle 8" class="cls-5" y="46" width="376" height="1"/><g class="cls-6"><path d="M19,141.52q0,.48-.54.48H15a.49.49,0,0,1-.36-.14.48.48,0,0,1-.14-.35.66.66,0,0,1,.21-.48l2.05-2.21a3.25,3.25,0,0,0,.55-.76,1.48,1.48,0,0,0,.18-.69.83.83,0,0,0-.24-.64,1,1,0,0,0-.7-.23,2,2,0,0,0-.71.14,3.45,3.45,0,0,0-.7.38.87.87,0,0,1-.18.11.58.58,0,0,1-.18,0,.34.34,0,0,1-.27-.15.55.55,0,0,1-.11-.34.52.52,0,0,1,.05-.23.56.56,0,0,1,.16-.19,3,3,0,0,1,.93-.5,3.25,3.25,0,0,1,1.06-.19,2.23,2.23,0,0,1,1.48.47,1.55,1.55,0,0,1,.55,1.26,2.39,2.39,0,0,1-.23,1,4.85,4.85,0,0,1-.79,1.08l-1.56,1.65h2.37C18.8,141.06,19,141.22,19,141.52Z" transform="translate(0 0)"/><path d="M23.45,138.2a1.8,1.8,0,0,1,.71.71,2.16,2.16,0,0,1,.25,1.06,2.06,2.06,0,0,1-.28,1.09,2,2,0,0,1-.8.75,2.71,2.71,0,0,1-1.2.26,3.41,3.41,0,0,1-1.09-.18,2.94,2.94,0,0,1-.91-.5.54.54,0,0,1-.21-.43.52.52,0,0,1,.11-.33.33.33,0,0,1,.27-.14.47.47,0,0,1,.17,0l.19.1a3.3,3.3,0,0,0,.7.39,2,2,0,0,0,.73.13,1.26,1.26,0,0,0,.91-.29,1.29,1.29,0,0,0,0-1.69,1.17,1.17,0,0,0-.87-.31,1.74,1.74,0,0,0-.63.1,2,2,0,0,0-.56.33.62.62,0,0,1-.35.12.49.49,0,0,1-.31-.11.37.37,0,0,1-.12-.29v-2.8a.49.49,0,0,1,.54-.54h3c.36,0,.54.14.54.45s-.18.44-.54.44H21.28v1.71a1.94,1.94,0,0,1,1.12-.32A2.1,2.1,0,0,1,23.45,138.2Z" transform="translate(0 0)"/></g><g class="cls-6"><path d="M19,170.52q0,.48-.54.48H15a.49.49,0,0,1-.36-.14.48.48,0,0,1-.14-.35.66.66,0,0,1,.21-.48l2.05-2.21a3.25,3.25,0,0,0,.55-.76,1.48,1.48,0,0,0,.18-.69.83.83,0,0,0-.24-.64,1,1,0,0,0-.7-.23,2,2,0,0,0-.71.14,3.45,3.45,0,0,0-.7.38.87.87,0,0,1-.18.11.58.58,0,0,1-.18,0,.34.34,0,0,1-.27-.15.55.55,0,0,1-.11-.34.52.52,0,0,1,.05-.23.56.56,0,0,1,.16-.19,3,3,0,0,1,.93-.5,3.25,3.25,0,0,1,1.06-.19,2.23,2.23,0,0,1,1.48.47,1.55,1.55,0,0,1,.55,1.26,2.39,2.39,0,0,1-.23,1,4.85,4.85,0,0,1-.79,1.08l-1.56,1.65h2.37C18.8,170.06,19,170.22,19,170.52Z" transform="translate(0 0)"/><path d="M20.35,170.25a4.23,4.23,0,0,1-.59-2.43,4.16,4.16,0,0,1,.59-2.41,2.18,2.18,0,0,1,3.44,0,5.24,5.24,0,0,1,0,4.83,2.19,2.19,0,0,1-3.44,0Zm2.61-.64a4.21,4.21,0,0,0,.28-1.79A4.13,4.13,0,0,0,23,166a.93.93,0,0,0-.89-.56.94.94,0,0,0-.89.56,4.16,4.16,0,0,0-.28,1.78,4.21,4.21,0,0,0,.28,1.79.94.94,0,0,0,.89.56A.93.93,0,0,0,23,169.61Z" transform="translate(0 0)"/></g><g class="cls-6"><path d="M19,200.52q0,.48-.54.48h-3c-.37,0-.55-.16-.55-.48s.18-.46.55-.46h.94V196l-.87.53a.43.43,0,0,1-.22.07.38.38,0,0,1-.32-.16.55.55,0,0,1-.13-.36.43.43,0,0,1,.23-.4l1.4-.87a1,1,0,0,1,.51-.16.54.54,0,0,1,.4.15.57.57,0,0,1,.16.43v4.87h.94C18.83,200.06,19,200.22,19,200.52Z" transform="translate(0 0)"/><path d="M23.44,197.2a1.8,1.8,0,0,1,.71.71A2.16,2.16,0,0,1,24.4,199a2.06,2.06,0,0,1-.28,1.09,2,2,0,0,1-.8.75,2.67,2.67,0,0,1-1.19.26,3.43,3.43,0,0,1-1.1-.18,2.94,2.94,0,0,1-.91-.5.54.54,0,0,1-.21-.43.52.52,0,0,1,.11-.33.33.33,0,0,1,.27-.14.47.47,0,0,1,.17,0l.19.1a3.3,3.3,0,0,0,.7.39,2,2,0,0,0,.73.13,1.26,1.26,0,0,0,.91-.29,1.29,1.29,0,0,0,0-1.69,1.17,1.17,0,0,0-.87-.31,1.74,1.74,0,0,0-.63.1,2,2,0,0,0-.56.33.59.59,0,0,1-.35.12.49.49,0,0,1-.31-.11.37.37,0,0,1-.12-.29v-2.8a.53.53,0,0,1,.14-.4.54.54,0,0,1,.41-.14h3c.36,0,.54.14.54.45s-.18.44-.54.44H21.27v1.71a2,2,0,0,1,1.13-.32A2.08,2.08,0,0,1,23.44,197.2Z" transform="translate(0 0)"/></g><g class="cls-6"><path d="M19,229.52q0,.48-.54.48h-3c-.37,0-.55-.16-.55-.48s.18-.46.55-.46h.94V225l-.87.53a.43.43,0,0,1-.22.07.38.38,0,0,1-.32-.16.55.55,0,0,1-.13-.36.43.43,0,0,1,.23-.4l1.4-.87a1,1,0,0,1,.51-.16.54.54,0,0,1,.4.15.57.57,0,0,1,.16.43v4.87h.94C18.83,229.06,19,229.22,19,229.52Z" transform="translate(0 0)"/><path d="M20.34,229.25a4.23,4.23,0,0,1-.59-2.43,4.16,4.16,0,0,1,.59-2.41,2.18,2.18,0,0,1,3.44,0,5.16,5.16,0,0,1,0,4.83,2,2,0,0,1-1.72.84A2,2,0,0,1,20.34,229.25Zm2.61-.64a4.21,4.21,0,0,0,.28-1.79A4.13,4.13,0,0,0,23,225a.93.93,0,0,0-.89-.56.94.94,0,0,0-.89.56,4.32,4.32,0,0,0-.28,1.78,4.37,4.37,0,0,0,.28,1.79.94.94,0,0,0,.89.56A.93.93,0,0,0,23,228.61Z" transform="translate(0 0)"/></g><g class="cls-6"><path d="M24,254.2a1.8,1.8,0,0,1,.71.71A2.16,2.16,0,0,1,25,256a2.06,2.06,0,0,1-.28,1.09,2,2,0,0,1-.8.75,2.67,2.67,0,0,1-1.19.26,3.43,3.43,0,0,1-1.1-.18,2.94,2.94,0,0,1-.91-.5.54.54,0,0,1-.21-.43.52.52,0,0,1,.11-.33.33.33,0,0,1,.27-.14.47.47,0,0,1,.17,0l.19.1a3.3,3.3,0,0,0,.7.39,2,2,0,0,0,.73.13,1.26,1.26,0,0,0,.91-.29,1.29,1.29,0,0,0,0-1.69,1.17,1.17,0,0,0-.87-.31,1.74,1.74,0,0,0-.63.1,2,2,0,0,0-.56.33.59.59,0,0,1-.35.12.49.49,0,0,1-.31-.11.37.37,0,0,1-.12-.29v-2.8a.53.53,0,0,1,.14-.4.54.54,0,0,1,.41-.14h3c.36,0,.54.14.54.45s-.18.44-.54.44H21.87v1.71a2,2,0,0,1,1.13-.32A2.08,2.08,0,0,1,24,254.2Z" transform="translate(0 0)"/></g><g class="cls-6"><path d="M48.69,298.77a.57.57,0,0,1,.15.42v5.32a.54.54,0,0,1-.15.4.48.48,0,0,1-.37.14.46.46,0,0,1-.37-.14.57.57,0,0,1-.14-.4v-3.7l-1.53,2.89a.94.94,0,0,1-.23.3.51.51,0,0,1-.3.09.53.53,0,0,1-.3-.09.84.84,0,0,1-.23-.3l-1.54-2.85v3.66a.57.57,0,0,1-.14.4.51.51,0,0,1-.37.14.46.46,0,0,1-.37-.14.57.57,0,0,1-.14-.4v-5.32a.57.57,0,0,1,.15-.42.52.52,0,0,1,.4-.16.6.6,0,0,1,.55.39l2,3.8,2-3.8a.59.59,0,0,1,.53-.39A.54.54,0,0,1,48.69,298.77Z" transform="translate(0 0)"/><path d="M53.39,301a1.92,1.92,0,0,1,.44,1.38v2.19a.52.52,0,0,1-.14.39.57.57,0,0,1-.4.13.51.51,0,0,1-.38-.14.5.5,0,0,1-.15-.38v-.19a1.14,1.14,0,0,1-.48.54,1.37,1.37,0,0,1-.76.2,1.77,1.77,0,0,1-.8-.18,1.44,1.44,0,0,1-.57-.49,1.24,1.24,0,0,1-.2-.7,1.15,1.15,0,0,1,.24-.77,1.47,1.47,0,0,1,.81-.4,6.87,6.87,0,0,1,1.54-.13h.22v-.21a.89.89,0,0,0-.19-.64.77.77,0,0,0-.61-.2,2,2,0,0,0-.53.07c-.18.05-.39.13-.64.22a.86.86,0,0,1-.34.12.34.34,0,0,1-.27-.12.42.42,0,0,1-.1-.3.5.5,0,0,1,.08-.27.79.79,0,0,1,.25-.21,3.27,3.27,0,0,1,.75-.27,3.73,3.73,0,0,1,.86-.1A1.82,1.82,0,0,1,53.39,301Zm-.91,3a1.08,1.08,0,0,0,.28-.78V303H52.6a5.73,5.73,0,0,0-.94.06.82.82,0,0,0-.47.19.47.47,0,0,0-.15.37.59.59,0,0,0,.21.47.71.71,0,0,0,.5.18A1,1,0,0,0,52.48,304Z" transform="translate(0 0)"/></g><g class="cls-6"><path d="M92.79,304.86a.58.58,0,0,1-.14-.41V299.2a.57.57,0,0,1,.14-.4.55.55,0,0,1,.41-.14H95a3.3,3.3,0,0,1,2.41.83,3.06,3.06,0,0,1,.86,2.33,3.1,3.1,0,0,1-.86,2.35A3.34,3.34,0,0,1,95,305H93.2A.6.6,0,0,1,92.79,304.86Zm2.12-.81a2.23,2.23,0,0,0,0-4.45h-1.1v4.45Z" transform="translate(0 0)"/><path d="M99.41,299.54a.55.55,0,0,1-.18-.43.56.56,0,0,1,.18-.44.8.8,0,0,1,1,0,.53.53,0,0,1,.19.44.55.55,0,0,1-.18.43.69.69,0,0,1-.49.17A.69.69,0,0,1,99.41,299.54Zm.08,5.37a.51.51,0,0,1-.16-.4V301a.53.53,0,0,1,.16-.4.6.6,0,0,1,.4-.13.63.63,0,0,1,.41.13.53.53,0,0,1,.16.4v3.47a.51.51,0,0,1-.16.4.59.59,0,0,1-.41.14A.56.56,0,0,1,99.49,304.91Z" transform="translate(0 0)"/></g><g class="cls-6"><path d="M145.8,298.69a.59.59,0,0,1,.32-.09.57.57,0,0,1,.37.14.47.47,0,0,1,.16.36,1,1,0,0,1-.05.23l-1.93,5.35a.55.55,0,0,1-.24.28.66.66,0,0,1-.37.1.71.71,0,0,1-.37-.1.49.49,0,0,1-.23-.28L142,300.45l-1.52,4.23a.55.55,0,0,1-.24.28.69.69,0,0,1-.37.1.65.65,0,0,1-.36-.1.49.49,0,0,1-.23-.28l-1.94-5.35a.74.74,0,0,1,0-.23.42.42,0,0,1,.17-.36.6.6,0,0,1,.39-.14.59.59,0,0,1,.32.09.48.48,0,0,1,.21.27l1.53,4.4,1.57-4.37a.56.56,0,0,1,.21-.29.6.6,0,0,1,.31-.1.58.58,0,0,1,.32.1.62.62,0,0,1,.22.3l1.53,4.42L145.6,299A.51.51,0,0,1,145.8,298.69Z" transform="translate(0 0)"/><path d="M147.84,304.79a1.91,1.91,0,0,1-.79-.8,2.6,2.6,0,0,1-.28-1.21,2.57,2.57,0,0,1,.28-1.21,2,2,0,0,1,.79-.8,2.37,2.37,0,0,1,1.18-.28,2.41,2.41,0,0,1,1.19.28,1.94,1.94,0,0,1,.78.8,2.57,2.57,0,0,1,.27,1.21A2.6,2.6,0,0,1,151,304a1.88,1.88,0,0,1-.78.8,2.41,2.41,0,0,1-1.19.28A2.37,2.37,0,0,1,147.84,304.79Zm2-1a1.67,1.67,0,0,0,.29-1.06,1.69,1.69,0,0,0-.29-1.06,1.14,1.14,0,0,0-1.66,0,1.63,1.63,0,0,0-.29,1.06,1.62,1.62,0,0,0,.29,1.06,1,1,0,0,0,.82.36A1,1,0,0,0,149.85,303.84Z" transform="translate(0 0)"/></g><g class="cls-6"><path d="M191.79,304.86a.58.58,0,0,1-.14-.41V299.2a.57.57,0,0,1,.14-.4.56.56,0,0,1,.42-.14H194a3.3,3.3,0,0,1,2.41.83,3.06,3.06,0,0,1,.86,2.33,3.1,3.1,0,0,1-.86,2.35A3.34,3.34,0,0,1,194,305h-1.78A.61.61,0,0,1,191.79,304.86Zm2.13-.81a2.23,2.23,0,0,0,0-4.45h-1.11v4.45Z" transform="translate(0 0)"/><path d="M199.16,304.79a1.91,1.91,0,0,1-.79-.8,2.49,2.49,0,0,1-.28-1.21,2.46,2.46,0,0,1,.28-1.21,2,2,0,0,1,.79-.8,2.37,2.37,0,0,1,1.18-.28,2.34,2.34,0,0,1,1.18.28,2,2,0,0,1,.79.8,2.57,2.57,0,0,1,.27,1.21,2.6,2.6,0,0,1-.27,1.21,1.91,1.91,0,0,1-.79.8,2.34,2.34,0,0,1-1.18.28A2.37,2.37,0,0,1,199.16,304.79Zm2-1a1.67,1.67,0,0,0,.29-1.06,1.69,1.69,0,0,0-.29-1.06,1.14,1.14,0,0,0-1.66,0,1.63,1.63,0,0,0-.29,1.06,1.68,1.68,0,0,0,.28,1.06,1.15,1.15,0,0,0,1.67,0Z" transform="translate(0 0)"/></g><g class="cls-6"><path d="M245.74,298.6a.63.63,0,0,1,.41.15.43.43,0,0,1,.18.36.52.52,0,0,1-.06.22l-2.49,5.36a.6.6,0,0,1-.25.27.73.73,0,0,1-.35.09.74.74,0,0,1-.36-.09.6.6,0,0,1-.25-.27l-2.48-5.36a.52.52,0,0,1-.06-.22.44.44,0,0,1,.19-.36.64.64,0,0,1,.42-.15.57.57,0,0,1,.28.08.42.42,0,0,1,.2.23l2.07,4.6,2.07-4.6A.5.5,0,0,1,245.74,298.6Z" transform="translate(0 0)"/><path d="M249.28,300.61a.43.43,0,0,1,.13.35.53.53,0,0,1-.11.36.69.69,0,0,1-.43.15l-.27,0a1.15,1.15,0,0,0-.78.36,1.19,1.19,0,0,0-.24.76v1.89a.49.49,0,0,1-.17.4.64.64,0,0,1-.8,0,.48.48,0,0,1-.16-.4V301a.47.47,0,0,1,.16-.39.56.56,0,0,1,.39-.13.53.53,0,0,1,.38.13.5.5,0,0,1,.14.37v.36a1.46,1.46,0,0,1,.51-.61,1.66,1.66,0,0,1,.75-.24h.13A.49.49,0,0,1,249.28,300.61Z" transform="translate(0 0)"/></g><g class="cls-6"><path d="M291.17,304.53c0,.31-.18.47-.54.47H286.8a.5.5,0,0,1-.37-.14.45.45,0,0,1-.14-.36.66.66,0,0,1,.14-.41l3.22-4.51h-2.81c-.36,0-.54-.15-.54-.46s.18-.46.54-.46h3.71a.53.53,0,0,1,.38.13.5.5,0,0,1,.14.35.68.68,0,0,1-.16.41l-3.22,4.52h2.94C291,304.07,291.17,304.23,291.17,304.53Z" transform="translate(0 0)"/><path d="M295.15,301a1.92,1.92,0,0,1,.44,1.38v2.19a.47.47,0,0,1-.54.52.51.51,0,0,1-.38-.14.5.5,0,0,1-.15-.38v-.19a1.14,1.14,0,0,1-.48.54,1.37,1.37,0,0,1-.76.2,1.77,1.77,0,0,1-.8-.18,1.44,1.44,0,0,1-.57-.49,1.24,1.24,0,0,1-.2-.7,1.15,1.15,0,0,1,.24-.77,1.47,1.47,0,0,1,.81-.4,6.87,6.87,0,0,1,1.54-.13h.22v-.21a.89.89,0,0,0-.19-.64.77.77,0,0,0-.61-.2,2,2,0,0,0-.53.07c-.18.05-.39.13-.64.22a.91.91,0,0,1-.34.12.34.34,0,0,1-.27-.12.42.42,0,0,1-.1-.3.5.5,0,0,1,.08-.27.79.79,0,0,1,.25-.21,3.27,3.27,0,0,1,.75-.27,3.67,3.67,0,0,1,.86-.1A1.82,1.82,0,0,1,295.15,301Zm-.91,3a1.08,1.08,0,0,0,.28-.78V303h-.16a5.73,5.73,0,0,0-.94.06.82.82,0,0,0-.47.19.47.47,0,0,0-.15.37.62.62,0,0,0,.2.47.75.75,0,0,0,.5.18A1,1,0,0,0,294.24,304Z" transform="translate(0 0)"/></g><g class="cls-6"><path d="M337.17,304.53c0,.31-.18.47-.54.47H332.8a.5.5,0,0,1-.37-.14.45.45,0,0,1-.14-.36.66.66,0,0,1,.14-.41l3.22-4.51h-2.81c-.36,0-.54-.15-.54-.46s.18-.46.54-.46h3.71a.53.53,0,0,1,.38.13.5.5,0,0,1,.14.35.68.68,0,0,1-.16.41l-3.22,4.52h2.94C337,304.07,337.17,304.23,337.17,304.53Z" transform="translate(0 0)"/><path d="M338.72,304.79a1.91,1.91,0,0,1-.79-.8,2.49,2.49,0,0,1-.28-1.21,2.46,2.46,0,0,1,.28-1.21,2,2,0,0,1,.79-.8,2.37,2.37,0,0,1,1.18-.28,2.34,2.34,0,0,1,1.18.28,2,2,0,0,1,.79.8,2.57,2.57,0,0,1,.27,1.21,2.6,2.6,0,0,1-.27,1.21,1.91,1.91,0,0,1-.79.8,2.34,2.34,0,0,1-1.18.28A2.37,2.37,0,0,1,338.72,304.79Zm2-1a1.67,1.67,0,0,0,.29-1.06,1.69,1.69,0,0,0-.29-1.06,1.14,1.14,0,0,0-1.66,0,1.63,1.63,0,0,0-.29,1.06,1.68,1.68,0,0,0,.28,1.06,1.15,1.15,0,0,0,1.67,0Z" transform="translate(0 0)"/></g><g class="cls-6"><path d="M20.83,285.33a4.7,4.7,0,0,1,0-4.3,1.79,1.79,0,0,1,1.53-.74,1.77,1.77,0,0,1,1.53.74,4.63,4.63,0,0,1,0,4.3,2,2,0,0,1-3.06,0Zm2.32-.57a5.15,5.15,0,0,0,0-3.17.81.81,0,0,0-.79-.49.83.83,0,0,0-.79.49,5.15,5.15,0,0,0,0,3.17.82.82,0,0,0,.79.5A.8.8,0,0,0,23.15,284.76Z" transform="translate(0 0)"/></g><line id="Line_1" data-name="Line 1" class="cls-7" x1="42.1" y1="140.6" x2="342.5" y2="140.6"/><line id="Line_2" data-name="Line 2" class="cls-7" x1="42.1" y1="169.5" x2="342.5" y2="169.5"/><line id="Line_3" data-name="Line 3" class="cls-7" x1="42.1" y1="198.5" x2="342.5" y2="198.5"/><line id="Line_4" data-name="Line 4" class="cls-7" x1="42.1" y1="227.4" x2="342.5" y2="227.4"/><line id="Line_5" data-name="Line 5" class="cls-7" x1="42.1" y1="256.3" x2="342.5" y2="256.3"/><line id="Line_6" data-name="Line 6" class="cls-7" x1="41.3" y1="285.2" x2="341.7" y2="285.2"/><line id="Line_9" data-name="Line 9" class="cls-8" x1="98.5" y1="152.5" x2="98.5" y2="115.5"/><path id="Rectangle_35-2" data-name="Rectangle 35-2" class="cls-9" d="M70,61h55a9,9,0,0,1,9,9v38a9,9,0,0,1-9,9H70a9,9,0,0,1-9-9V70A9,9,0,0,1,70,61Z" transform="translate(0 0)"/><g class="cls-6"><path d="M71.52,69.92a.35.35,0,0,1-.11-.27V66.41H70.32c-.24,0-.36-.11-.36-.32s.12-.32.36-.32h3c.24,0,.36.11.36.32s-.12.32-.36.32H72.19v3.24a.35.35,0,0,1-.11.27.41.41,0,0,1-.56,0Z" transform="translate(0 0)"/><path d="M75.19,69.9a.37.37,0,0,1-.1-.27V66.14a.37.37,0,0,1,.1-.27.36.36,0,0,1,.27-.1h2.17a.41.41,0,0,1,.27.08.27.27,0,0,1,.1.22.29.29,0,0,1-.1.23.36.36,0,0,1-.27.08H75.85v1.17h1.66a.41.41,0,0,1,.27.07.31.31,0,0,1,.1.23.27.27,0,0,1-.1.22.36.36,0,0,1-.27.08H75.85v1.24h1.78a.41.41,0,0,1,.27.08.29.29,0,0,1,.1.23.27.27,0,0,1-.1.22.41.41,0,0,1-.27.08H75.46A.36.36,0,0,1,75.19,69.9Z" transform="translate(0 0)"/><path d="M83.65,65.84a.4.4,0,0,1,.1.28v3.56a.33.33,0,0,1-.1.26.34.34,0,0,1-.25.1.33.33,0,0,1-.24-.1.36.36,0,0,1-.09-.26V67.2l-1,1.94a.62.62,0,0,1-.16.19.34.34,0,0,1-.2.06.36.36,0,0,1-.2-.06.63.63,0,0,1-.15-.19l-1-1.91v2.45a.39.39,0,0,1-.09.26.34.34,0,0,1-.59-.26V66.12a.45.45,0,0,1,.1-.28.41.41,0,0,1,.27-.1.41.41,0,0,1,.37.26l1.33,2.54L83,66a.39.39,0,0,1,.63-.16Z" transform="translate(0 0)"/><path d="M85.77,69.93a.38.38,0,0,1-.11-.28V66.14a.35.35,0,0,1,.38-.37h1.47a1.52,1.52,0,0,1,1.06.34,1.38,1.38,0,0,1,0,1.9,1.52,1.52,0,0,1-1.06.35H86.44v1.29a.4.4,0,0,1-.67.28Zm1.65-2.17c.53,0,.79-.23.79-.69s-.26-.7-.79-.7h-1v1.39Z" transform="translate(0 0)"/><path d="M90.72,69.9a.33.33,0,0,1-.1-.27V66.14a.33.33,0,0,1,.1-.27.36.36,0,0,1,.27-.1h2.17a.46.46,0,0,1,.27.08.27.27,0,0,1,.09.22.29.29,0,0,1-.09.23.4.4,0,0,1-.27.08H91.38v1.17H93a.45.45,0,0,1,.27.07.3.3,0,0,1,.09.23.27.27,0,0,1-.09.22.4.4,0,0,1-.27.08H91.38v1.24h1.78a.46.46,0,0,1,.27.08.29.29,0,0,1,.09.23.27.27,0,0,1-.09.22.46.46,0,0,1-.27.08H91A.36.36,0,0,1,90.72,69.9Z" transform="translate(0 0)"/><path d="M98.61,69.72a.27.27,0,0,1-.12.23.42.42,0,0,1-.44,0,.4.4,0,0,1-.15-.14l-.79-1.21a.75.75,0,0,0-.26-.27.72.72,0,0,0-.35-.08h-.59v1.35a.37.37,0,0,1-.1.28.38.38,0,0,1-.28.11.39.39,0,0,1-.28-.11.41.41,0,0,1-.1-.28V66.14a.33.33,0,0,1,.1-.27.35.35,0,0,1,.27-.1H97a1.68,1.68,0,0,1,1.1.32,1.14,1.14,0,0,1,.37.93,1.16,1.16,0,0,1-.28.81,1.3,1.3,0,0,1-.79.4.81.81,0,0,1,.31.15,1.33,1.33,0,0,1,.26.3l.54.83A.43.43,0,0,1,98.61,69.72Zm-1-2.18a.63.63,0,0,0,.2-.5.61.61,0,0,0-.2-.51,1,1,0,0,0-.65-.16h-1v1.34h1A1,1,0,0,0,97.56,67.54Z" transform="translate(0 0)"/><path d="M104.14,69.69a.32.32,0,0,1-.11.24.41.41,0,0,1-.26.09.32.32,0,0,1-.31-.21l-.36-.8H101l-.36.8a.31.31,0,0,1-.13.16.32.32,0,0,1-.19,0,.38.38,0,0,1-.25-.09.3.3,0,0,1-.12-.24.42.42,0,0,1,0-.15L101.64,66a.35.35,0,0,1,.16-.18.42.42,0,0,1,.24-.07.39.39,0,0,1,.23.07.37.37,0,0,1,.17.18l1.66,3.56A.28.28,0,0,1,104.14,69.69Zm-1.3-1.28-.8-1.78-.79,1.78Z" transform="translate(0 0)"/><path d="M106.3,69.92a.35.35,0,0,1-.11-.27V66.41H105.1c-.24,0-.36-.11-.36-.32s.12-.32.36-.32h3c.24,0,.36.11.36.32s-.12.32-.36.32H107v3.24a.35.35,0,0,1-.1.27.41.41,0,0,1-.56,0Z" transform="translate(0 0)"/><path d="M110.29,69.6a1.76,1.76,0,0,1-.45-1.31V66.12a.41.41,0,0,1,.11-.28.39.39,0,0,1,.27-.1.41.41,0,0,1,.28.1.4.4,0,0,1,.1.28v2.21a1.2,1.2,0,0,0,.26.83,1,1,0,0,0,.75.28,1,1,0,0,0,.75-.29,1.12,1.12,0,0,0,.26-.82V66.12a.45.45,0,0,1,.1-.28.44.44,0,0,1,.56,0,.45.45,0,0,1,.1.28v2.17a1.87,1.87,0,0,1-3.09,1.31Z" transform="translate(0 0)"/><path d="M115.69,69.6a1.76,1.76,0,0,1-.45-1.31V66.12a.4.4,0,0,1,.1-.28.41.41,0,0,1,.28-.1.41.41,0,0,1,.27.1.4.4,0,0,1,.1.28v2.21a1.2,1.2,0,0,0,.26.83,1,1,0,0,0,.76.28,1,1,0,0,0,.75-.29,1.17,1.17,0,0,0,.26-.82V66.12a.4.4,0,0,1,.1-.28.41.41,0,0,1,.27-.1.41.41,0,0,1,.28.1.4.4,0,0,1,.1.28v2.17a1.86,1.86,0,0,1-3.08,1.31Z" transform="translate(0 0)"/><path d="M124.11,69.72A.28.28,0,0,1,124,70a.39.39,0,0,1-.26.09.37.37,0,0,1-.18,0,.4.4,0,0,1-.15-.14l-.8-1.21a.74.74,0,0,0-.25-.27.72.72,0,0,0-.35-.08h-.59v1.35a.41.41,0,0,1-.1.28.41.41,0,0,1-.56,0,.37.37,0,0,1-.1-.28V66.14a.37.37,0,0,1,.09-.27.37.37,0,0,1,.28-.1h1.5a1.65,1.65,0,0,1,1.09.32A1.15,1.15,0,0,1,124,67a1.21,1.21,0,0,1-.28.81,1.33,1.33,0,0,1-.79.4.81.81,0,0,1,.31.15,1.32,1.32,0,0,1,.25.3l.55.83A.4.4,0,0,1,124.11,69.72Zm-1-2.18a.6.6,0,0,0,.21-.5.58.58,0,0,0-.21-.51,1,1,0,0,0-.64-.16h-1v1.34h1A1,1,0,0,0,123.06,67.54Z" transform="translate(0 0)"/></g><g id="Group_166" data-name="Group 166"><g class="cls-6"><path d="M93.89,93.15c0,.57-.32.85-1,.85H86.85a.86.86,0,0,1-.66-.25.84.84,0,0,1-.24-.61,1.26,1.26,0,0,1,.37-.87L90,88.35A6,6,0,0,0,91,87a2.68,2.68,0,0,0,.32-1.22,1.5,1.5,0,0,0-.44-1.16,1.75,1.75,0,0,0-1.23-.4,3.5,3.5,0,0,0-1.27.25,6.65,6.65,0,0,0-1.24.68,1.79,1.79,0,0,1-.32.19.92.92,0,0,1-.32.07.59.59,0,0,1-.47-.26.92.92,0,0,1-.2-.61.88.88,0,0,1,.09-.41,1,1,0,0,1,.28-.34,5.74,5.74,0,0,1,1.64-.89,6,6,0,0,1,1.89-.32,3.89,3.89,0,0,1,2.63.83,2.77,2.77,0,0,1,1,2.24,4.1,4.1,0,0,1-.42,1.83,7.9,7.9,0,0,1-1.41,1.91l-2.76,3h4.22Q93.89,92.34,93.89,93.15Z" transform="translate(0 0)"/><path d="M102.65,89.18a3.07,3.07,0,0,1-.54,4.08,4.45,4.45,0,0,1-2.89.87,6.35,6.35,0,0,1-2-.32,4.75,4.75,0,0,1-1.63-.9,1,1,0,0,1-.37-.75,1,1,0,0,1,.2-.6.58.58,0,0,1,.47-.25.68.68,0,0,1,.29.06l.35.18a7.08,7.08,0,0,0,1.28.69,3.61,3.61,0,0,0,1.33.24,2.45,2.45,0,0,0,1.57-.42,1.6,1.6,0,0,0,.51-1.29,1.47,1.47,0,0,0-.54-1.26A2.72,2.72,0,0,0,99,89.1h-.92a.68.68,0,0,1-.56-.24.86.86,0,0,1-.2-.57.84.84,0,0,1,.2-.58.68.68,0,0,1,.56-.24h.64c1.47,0,2.2-.55,2.2-1.65a1.51,1.51,0,0,0-.47-1.18,1.83,1.83,0,0,0-1.28-.42,4.39,4.39,0,0,0-2.49.93,3.34,3.34,0,0,1-.36.19.82.82,0,0,1-.28,0,.61.61,0,0,1-.48-.25.92.92,0,0,1-.2-.6.82.82,0,0,1,.09-.4,1.23,1.23,0,0,1,.28-.35,5.32,5.32,0,0,1,1.61-.89,5.93,5.93,0,0,1,1.91-.32,4.05,4.05,0,0,1,2.65.81,2.68,2.68,0,0,1,1,2.18,2.92,2.92,0,0,1-.48,1.62,2.7,2.7,0,0,1-1.32,1A2.66,2.66,0,0,1,102.65,89.18Z" transform="translate(0 0)"/></g><g class="cls-6"><path d="M104.82,85.54a1.16,1.16,0,0,1-.43-.42,1.13,1.13,0,0,1-.16-.61,1.16,1.16,0,0,1,.16-.61,1.09,1.09,0,0,1,.43-.42,1.13,1.13,0,0,1,.61-.16,1.18,1.18,0,0,1,.61.16,1.09,1.09,0,0,1,.43.42,1.16,1.16,0,0,1,.16.61,1.13,1.13,0,0,1-.16.61,1.16,1.16,0,0,1-.43.42,1.29,1.29,0,0,1-.61.16A1.23,1.23,0,0,1,104.82,85.54Zm1.05-.57a.62.62,0,0,0,.18-.46.64.64,0,0,0-.18-.47.63.63,0,0,0-.88,0,.64.64,0,0,0-.18.47A.62.62,0,0,0,105,85a.63.63,0,0,0,.88,0Z" transform="translate(0 0)"/><path d="M108.6,88.72a2.3,2.3,0,0,1-.94-1,3.74,3.74,0,0,1,0-3.07,2.39,2.39,0,0,1,.94-1,2.86,2.86,0,0,1,1.43-.35,3.21,3.21,0,0,1,1,.15,2.63,2.63,0,0,1,.82.46.55.55,0,0,1,.15.16.67.67,0,0,1,0,.22.49.49,0,0,1-.1.3.28.28,0,0,1-.23.12.56.56,0,0,1-.33-.12,2.16,2.16,0,0,0-.64-.35,2,2,0,0,0-.66-.1,1.54,1.54,0,0,0-1.26.52,3,3,0,0,0,0,3.06,1.54,1.54,0,0,0,1.26.52,1.87,1.87,0,0,0,.64-.1,3.05,3.05,0,0,0,.66-.35.6.6,0,0,1,.16-.08.33.33,0,0,1,.17,0,.28.28,0,0,1,.23.12.49.49,0,0,1,.1.3.65.65,0,0,1,0,.21.47.47,0,0,1-.15.17,2.63,2.63,0,0,1-.82.46,3.21,3.21,0,0,1-1,.15A2.76,2.76,0,0,1,108.6,88.72Z" transform="translate(0 0)"/></g></g><g class="cls-6"><path d="M78.31,111.68c0,.21-.12.32-.36.32H75.67a.35.35,0,0,1-.25-.09.33.33,0,0,1-.09-.23.49.49,0,0,1,.14-.33l1.37-1.47a2.36,2.36,0,0,0,.37-.5,1,1,0,0,0,.12-.46.57.57,0,0,0-.17-.44.64.64,0,0,0-.46-.15,1.28,1.28,0,0,0-.47.1,2.15,2.15,0,0,0-.47.25l-.12.07a.27.27,0,0,1-.12,0,.21.21,0,0,1-.18-.1.35.35,0,0,1-.07-.23.32.32,0,0,1,.14-.28,2,2,0,0,1,.61-.33,2.25,2.25,0,0,1,.71-.12,1.49,1.49,0,0,1,1,.31,1,1,0,0,1,.37.84,1.45,1.45,0,0,1-.16.68,2.73,2.73,0,0,1-.53.72l-1,1.11H78Q78.31,111.38,78.31,111.68Z" transform="translate(0 0)"/><path d="M82.29,109.46a1.12,1.12,0,0,1,.46.48,1.48,1.48,0,0,1,.17.7,1.44,1.44,0,0,1-.18.73,1.29,1.29,0,0,1-.51.5,1.46,1.46,0,0,1-.73.18,1.51,1.51,0,0,1-1.24-.54,2.42,2.42,0,0,1-.43-1.55,3.35,3.35,0,0,1,.2-1.2,1.66,1.66,0,0,1,.59-.77,1.49,1.49,0,0,1,.89-.27,2.09,2.09,0,0,1,.69.12,1.77,1.77,0,0,1,.59.33.58.58,0,0,1,.11.13.33.33,0,0,1,0,.15.35.35,0,0,1-.07.23.23.23,0,0,1-.18.09l-.12,0-.13-.07a1.63,1.63,0,0,0-.89-.35.79.79,0,0,0-.69.41,2.34,2.34,0,0,0-.26,1.14,1,1,0,0,1,.41-.43,1.19,1.19,0,0,1,.62-.16A1.24,1.24,0,0,1,82.29,109.46Zm-.3,1.77a.88.88,0,0,0,0-1.12.69.69,0,0,0-.53-.21.73.73,0,0,0-.54.21.85.85,0,0,0,0,1.12.73.73,0,0,0,.54.21A.69.69,0,0,0,82,111.23Z" transform="translate(0 0)"/><path d="M91.26,107.84a.41.41,0,0,1,.11.28v3.56a.36.36,0,0,1-.1.26.36.36,0,0,1-.25.1.34.34,0,0,1-.25-.1.36.36,0,0,1-.09-.26V109.2l-1,1.94a.79.79,0,0,1-.15.19.36.36,0,0,1-.2.06.34.34,0,0,1-.2-.06.52.52,0,0,1-.16-.19l-1-1.91v2.45a.39.39,0,0,1-.09.26.37.37,0,0,1-.25.1.34.34,0,0,1-.25-.1.36.36,0,0,1-.09-.26v-3.56a.4.4,0,0,1,.1-.28.39.39,0,0,1,.27-.1A.41.41,0,0,1,88,108l1.33,2.54L90.64,108a.41.41,0,0,1,.35-.26A.37.37,0,0,1,91.26,107.84Z" transform="translate(0 0)"/><path d="M93.38,111.9a.33.33,0,0,1-.1-.27v-3.49a.33.33,0,0,1,.1-.27.36.36,0,0,1,.27-.1h2.17a.46.46,0,0,1,.27.08.27.27,0,0,1,.09.22.29.29,0,0,1-.09.23.4.4,0,0,1-.27.08H94v1.17H95.7a.45.45,0,0,1,.27.07.3.3,0,0,1,.09.23.27.27,0,0,1-.09.22.4.4,0,0,1-.27.08H94v1.24h1.78a.46.46,0,0,1,.27.08.29.29,0,0,1,.09.23.27.27,0,0,1-.09.22.46.46,0,0,1-.27.08H93.65A.36.36,0,0,1,93.38,111.9Z" transform="translate(0 0)"/><path d="M97.92,111.93a.39.39,0,0,1-.11-.28v-3.53a.41.41,0,0,1,.11-.28.39.39,0,0,1,.27-.1.44.44,0,0,1,.29.1.4.4,0,0,1,.1.28v3.53a.39.39,0,0,1-.1.28.4.4,0,0,1-.29.11A.35.35,0,0,1,97.92,111.93Z" transform="translate(0 0)"/><path d="M106,111.68c0,.21-.12.32-.36.32h-2.28a.31.31,0,0,1-.34-.32.49.49,0,0,1,.14-.33l1.37-1.47a2.76,2.76,0,0,0,.37-.5,1.14,1.14,0,0,0,.11-.46.57.57,0,0,0-.16-.44.65.65,0,0,0-.46-.15,1.33,1.33,0,0,0-.48.1,2.09,2.09,0,0,0-.46.25l-.12.07a.27.27,0,0,1-.12,0,.21.21,0,0,1-.18-.1.36.36,0,0,1-.08-.23.33.33,0,0,1,0-.15.31.31,0,0,1,.1-.13,2,2,0,0,1,.62-.33,2.21,2.21,0,0,1,.71-.12,1.49,1.49,0,0,1,1,.31,1.06,1.06,0,0,1,.36.84,1.57,1.57,0,0,1-.15.68,3,3,0,0,1-.53.72l-1,1.11h1.59Q106,111.38,106,111.68Z" transform="translate(0 0)"/><path d="M107.91,111.5a3.54,3.54,0,0,1,0-3.23,1.48,1.48,0,0,1,2.3,0,2.79,2.79,0,0,1,.39,1.61,2.83,2.83,0,0,1-.39,1.62,1.48,1.48,0,0,1-2.3,0Zm1.74-.43a3.82,3.82,0,0,0,0-2.38.66.66,0,0,0-1.18,0,2.74,2.74,0,0,0-.19,1.19,2.71,2.71,0,0,0,.19,1.19.65.65,0,0,0,1.18,0Z" transform="translate(0 0)"/><path d="M115.2,111.68c0,.21-.12.32-.36.32h-2.28a.32.32,0,0,1-.24-.09.33.33,0,0,1-.09-.23.45.45,0,0,1,.14-.33l1.36-1.47a2.36,2.36,0,0,0,.37-.5,1,1,0,0,0,.12-.46.57.57,0,0,0-.16-.44.65.65,0,0,0-.46-.15,1.29,1.29,0,0,0-.48.1,2.15,2.15,0,0,0-.47.25l-.12.07a.27.27,0,0,1-.12,0,.21.21,0,0,1-.17-.1.36.36,0,0,1-.08-.23.33.33,0,0,1,0-.15.45.45,0,0,1,.11-.13,2,2,0,0,1,.62-.33,2.16,2.16,0,0,1,.71-.12,1.44,1.44,0,0,1,1,.31,1,1,0,0,1,.37.84,1.57,1.57,0,0,1-.15.68,3,3,0,0,1-.53.72l-1,1.11h1.58Q115.2,111.38,115.2,111.68Z" transform="translate(0 0)"/><path d="M117.11,111.5a3.54,3.54,0,0,1,0-3.23,1.33,1.33,0,0,1,1.15-.55,1.3,1.3,0,0,1,1.14.55,2.72,2.72,0,0,1,.4,1.61,2.75,2.75,0,0,1-.4,1.62,1.3,1.3,0,0,1-1.14.55A1.33,1.33,0,0,1,117.11,111.5Zm1.74-.43a3.82,3.82,0,0,0,0-2.38.62.62,0,0,0-.59-.37.65.65,0,0,0-.6.37,2.93,2.93,0,0,0-.18,1.19,2.9,2.9,0,0,0,.18,1.19.64.64,0,0,0,.6.38A.62.62,0,0,0,118.85,111.07Z" transform="translate(0 0)"/></g><path id="Path_198-2" data-name="Path 198-2" class="cls-10" d="M16,0H173a15,15,0,0,1,15,15V31a15,15,0,0,1-15,15H16A15,15,0,0,1,1,31V15A15,15,0,0,1,16,0Z" transform="translate(0 0)"/><text class="cls-11" transform="translate(86.96 30)">D</text><path id="Rectangle_63" data-name="Rectangle 63" class="cls-1" d="M207,0H361a15,15,0,0,1,15,15V31a15,15,0,0,1-15,15H207a15,15,0,0,1-15-15V15A15,15,0,0,1,207,0Z" transform="translate(0 0)"/><text class="cls-11" transform="translate(274.96 30)">M</text><rect id="Rectangle_53" data-name="Rectangle 53" class="cls-12" x="39" y="158" width="20" height="128"/><rect class="cls-12" x="88" y="152" width="20" height="134"/><rect class="cls-8" x="88.5" y="152.5" width="19" height="133"/><rect id="Rectangle_55" data-name="Rectangle 55" class="cls-12" x="136" y="147" width="20" height="139"/><rect id="Rectangle_56" data-name="Rectangle 56" class="cls-12" x="188" y="162" width="20" height="124"/><rect id="Rectangle_57" data-name="Rectangle 57" class="cls-12" x="236" y="168" width="20" height="118"/><rect id="Rectangle_58" data-name="Rectangle 58" class="cls-12" x="282" y="172" width="20" height="114"/><rect id="Rectangle_59" data-name="Rectangle 59" class="cls-12" x="327" y="179" width="20" height="107"/></svg>