<svg id="Layer_1" data-name="Layer 1" xmlns="http://www.w3.org/2000/svg" viewBox="0 0 376 329"><defs><style>.cls-1,.cls-10,.cls-2{fill:#fff;}.cls-12,.cls-2,.cls-6{isolation:isolate;}.cls-2{font-size:13px;}.cls-12,.cls-2{font-family:Nunito-Bold, Nunito;font-weight:700;}.cls-3{letter-spacing:0em;}.cls-4{letter-spacing:0em;}.cls-5{fill:#d5d5d5;}.cls-7,.cls-9{fill:none;}.cls-7{stroke:#d5d5d5;stroke-dasharray:10;}.cls-8{fill:#00f53f;}.cls-10,.cls-9{stroke:#707070;}.cls-10{stroke-miterlimit:10;}.cls-11{fill:#f7f7f7;}.cls-12{font-size:20px;}</style></defs><rect id="Rectangle_7-2" data-name="Rectangle 7-2" class="cls-1" width="376" height="329" rx="15"/><text class="cls-2" transform="translate(4 27)">Gemiddelde tempe<tspan class="cls-3" x="112.92" y="0">r</tspan><tspan class="cls-4" x="117.87" y="0">atuur</tspan></text><rect id="Rectangle_8" data-name="Rectangle 8" class="cls-5" y="46" width="376" height="1"/><g class="cls-6"><path d="M19,141.51q0,.48-.54.48H15.06a.51.51,0,0,1-.37-.14.48.48,0,0,1-.13-.35.66.66,0,0,1,.21-.48l2.05-2.21a3.84,3.84,0,0,0,.55-.76,1.48,1.48,0,0,0,.18-.69.86.86,0,0,0-.25-.65,1,1,0,0,0-.69-.22,2,2,0,0,0-.72.14,3.38,3.38,0,0,0-.69.38.81.81,0,0,1-.18.1.39.39,0,0,1-.18,0,.32.32,0,0,1-.27-.14.58.58,0,0,1-.11-.34.52.52,0,0,1,0-.23.47.47,0,0,1,.16-.19,3,3,0,0,1,.92-.5,3.09,3.09,0,0,1,1.06-.19,2.25,2.25,0,0,1,1.49.47,1.58,1.58,0,0,1,.55,1.26,2.39,2.39,0,0,1-.23,1,4.63,4.63,0,0,1-.8,1.08l-1.55,1.65h2.37C18.84,141.05,19,141.2,19,141.51Z" transform="translate(0 0.01)"/><path d="M23.49,138.19a1.86,1.86,0,0,1,.71.71,2.14,2.14,0,0,1,.25,1,2.19,2.19,0,0,1-.28,1.1,1.88,1.88,0,0,1-.81.74,2.52,2.52,0,0,1-1.19.27,3.41,3.41,0,0,1-1.09-.18,3.11,3.11,0,0,1-.92-.5A.58.58,0,0,1,20,141a.52.52,0,0,1,.11-.33.32.32,0,0,1,.27-.14.51.51,0,0,1,.17,0l.19.1a3.3,3.3,0,0,0,.7.39,2,2,0,0,0,.73.13,1.32,1.32,0,0,0,.91-.29,1.11,1.11,0,0,0,.31-.85,1.14,1.14,0,0,0-.32-.84,1.18,1.18,0,0,0-.88-.31,1.72,1.72,0,0,0-.62.1,1.74,1.74,0,0,0-.56.33.62.62,0,0,1-.35.12.47.47,0,0,1-.31-.11.38.38,0,0,1-.13-.29v-2.81a.51.51,0,0,1,.15-.39.52.52,0,0,1,.4-.15h3q.54,0,.54.45t-.54.45H21.32v1.71a1.92,1.92,0,0,1,1.12-.32A2,2,0,0,1,23.49,138.19Z" transform="translate(0 0.01)"/></g><g class="cls-6"><path d="M19,170.51q0,.48-.54.48H15.06a.51.51,0,0,1-.37-.14.48.48,0,0,1-.13-.35.66.66,0,0,1,.21-.48l2.05-2.21a3.57,3.57,0,0,0,.55-.76,1.48,1.48,0,0,0,.18-.69.86.86,0,0,0-.25-.65,1,1,0,0,0-.69-.22,2,2,0,0,0-.72.14,3.38,3.38,0,0,0-.69.38l-.18.11a.58.58,0,0,1-.18,0,.33.33,0,0,1-.27-.15.55.55,0,0,1-.11-.34.52.52,0,0,1,0-.23.47.47,0,0,1,.16-.19,3,3,0,0,1,.92-.5,3.09,3.09,0,0,1,1.06-.19,2.25,2.25,0,0,1,1.49.47,1.58,1.58,0,0,1,.55,1.26,2.39,2.39,0,0,1-.23,1,4.63,4.63,0,0,1-.8,1.08l-1.55,1.65h2.37C18.84,170.05,19,170.21,19,170.51Z" transform="translate(0 0.01)"/><path d="M20.39,170.24a5.28,5.28,0,0,1,0-4.85,2.2,2.2,0,0,1,3.44,0,5.26,5.26,0,0,1,0,4.84,2.19,2.19,0,0,1-3.44,0ZM23,169.6A5.86,5.86,0,0,0,23,166a.94.94,0,0,0-.89-.55.93.93,0,0,0-.89.56,4.16,4.16,0,0,0-.28,1.78,4.21,4.21,0,0,0,.28,1.79.93.93,0,0,0,.89.56A.94.94,0,0,0,23,169.6Z" transform="translate(0 0.01)"/></g><g class="cls-6"><path d="M19.05,200.51q0,.48-.54.48h-3c-.37,0-.55-.16-.55-.48s.18-.46.55-.46h.93V196l-.86.53a.43.43,0,0,1-.23.07.4.4,0,0,1-.32-.16.61.61,0,0,1-.13-.36.47.47,0,0,1,.24-.41l1.39-.86a1,1,0,0,1,.52-.16.55.55,0,0,1,.4.15.57.57,0,0,1,.15.42v4.88h1C18.87,200.05,19.05,200.21,19.05,200.51Z" transform="translate(0 0.01)"/><path d="M23.48,197.19a1.86,1.86,0,0,1,.71.71,2.14,2.14,0,0,1,.25,1,2.09,2.09,0,0,1-.28,1.1,2,2,0,0,1-.8.75,2.71,2.71,0,0,1-1.2.26,3.41,3.41,0,0,1-1.09-.18,2.94,2.94,0,0,1-.91-.5A.54.54,0,0,1,20,200a.52.52,0,0,1,.11-.33.32.32,0,0,1,.27-.14.51.51,0,0,1,.17,0l.19.1a3.3,3.3,0,0,0,.7.39,2,2,0,0,0,.73.13,1.32,1.32,0,0,0,.91-.29,1.29,1.29,0,0,0,0-1.69,1.18,1.18,0,0,0-.88-.31,1.72,1.72,0,0,0-.62.1,1.74,1.74,0,0,0-.56.33.62.62,0,0,1-.35.12.47.47,0,0,1-.31-.11.38.38,0,0,1-.13-.29v-2.81a.51.51,0,0,1,.15-.39.52.52,0,0,1,.4-.15h3q.54,0,.54.45t-.54.45H21.31v1.71a1.92,1.92,0,0,1,1.12-.32A2,2,0,0,1,23.48,197.19Z" transform="translate(0 0.01)"/></g><g class="cls-6"><path d="M19.05,229.51q0,.48-.54.48h-3c-.37,0-.55-.16-.55-.48s.18-.46.55-.46h.93V225l-.86.53a.43.43,0,0,1-.23.07.4.4,0,0,1-.32-.16.61.61,0,0,1-.13-.36.47.47,0,0,1,.24-.41l1.39-.86a1,1,0,0,1,.52-.16.55.55,0,0,1,.4.15.57.57,0,0,1,.15.42v4.88h1C18.87,229.05,19.05,229.21,19.05,229.51Z" transform="translate(0 0.01)"/><path d="M20.38,229.24a5.28,5.28,0,0,1,0-4.85,2.2,2.2,0,0,1,3.44,0,5.26,5.26,0,0,1,0,4.84,2.19,2.19,0,0,1-3.44,0ZM23,228.6A5.86,5.86,0,0,0,23,225a.94.94,0,0,0-.89-.55.93.93,0,0,0-.89.56,4.16,4.16,0,0,0-.28,1.78,4.21,4.21,0,0,0,.28,1.79.93.93,0,0,0,.89.56A.94.94,0,0,0,23,228.6Z" transform="translate(0 0.01)"/></g><g class="cls-6"><path d="M24.08,254.19a1.86,1.86,0,0,1,.71.71,2.14,2.14,0,0,1,.25,1,2.09,2.09,0,0,1-.28,1.1,2,2,0,0,1-.8.75,2.71,2.71,0,0,1-1.2.26,3.41,3.41,0,0,1-1.09-.18,2.94,2.94,0,0,1-.91-.5.54.54,0,0,1-.21-.43.52.52,0,0,1,.11-.33.32.32,0,0,1,.27-.14.51.51,0,0,1,.17,0l.19.1a3.3,3.3,0,0,0,.7.39,2,2,0,0,0,.73.13,1.32,1.32,0,0,0,.91-.29,1.29,1.29,0,0,0,0-1.69,1.17,1.17,0,0,0-.87-.31,1.73,1.73,0,0,0-1.19.43.62.62,0,0,1-.35.12.47.47,0,0,1-.31-.11.38.38,0,0,1-.13-.29v-2.81a.51.51,0,0,1,.15-.39.52.52,0,0,1,.4-.15h3q.54,0,.54.45t-.54.45H21.91v1.71a1.92,1.92,0,0,1,1.12-.32A2,2,0,0,1,24.08,254.19Z" transform="translate(0 0.01)"/></g><g class="cls-6"><path d="M48.72,298.76a.53.53,0,0,1,.16.41v5.33a.54.54,0,0,1-.15.4.52.52,0,0,1-.38.14.53.53,0,0,1-.37-.14.57.57,0,0,1-.13-.4v-3.71l-1.53,2.9a.89.89,0,0,1-.23.29.47.47,0,0,1-.3.1.51.51,0,0,1-.3-.09.84.84,0,0,1-.23-.3l-1.54-2.85v3.66a.55.55,0,0,1-.14.39.48.48,0,0,1-.37.15.5.5,0,0,1-.37-.14.57.57,0,0,1-.14-.4v-5.33a.56.56,0,0,1,.15-.41.51.51,0,0,1,.4-.16.61.61,0,0,1,.55.39l2,3.8,2-3.8a.59.59,0,0,1,.53-.39A.51.51,0,0,1,48.72,298.76Z" transform="translate(0 0.01)"/><path d="M53.43,300.93a2,2,0,0,1,.44,1.39v2.19a.52.52,0,0,1-.14.38.53.53,0,0,1-.4.14.5.5,0,0,1-.38-.14.5.5,0,0,1-.15-.38v-.2a1.12,1.12,0,0,1-.48.55,1.46,1.46,0,0,1-.76.2,1.74,1.74,0,0,1-.8-.18,1.44,1.44,0,0,1-.57-.49,1.26,1.26,0,0,1-.21-.71,1.12,1.12,0,0,1,.25-.76,1.51,1.51,0,0,1,.81-.41,7.61,7.61,0,0,1,1.53-.12h.23v-.21a.89.89,0,0,0-.19-.64.79.79,0,0,0-.61-.21,2,2,0,0,0-.53.08c-.18,0-.4.13-.64.22a.91.91,0,0,1-.34.12.34.34,0,0,1-.27-.12.44.44,0,0,1-.1-.3.45.45,0,0,1,.07-.27.71.71,0,0,1,.26-.21,2.54,2.54,0,0,1,.75-.27,3.67,3.67,0,0,1,.86-.1A1.87,1.87,0,0,1,53.43,300.93Zm-.91,3a1.08,1.08,0,0,0,.28-.78V303h-.16a5.65,5.65,0,0,0-.94.06.89.89,0,0,0-.48.18.51.51,0,0,0-.14.37.64.64,0,0,0,.2.48.73.73,0,0,0,.5.18A1,1,0,0,0,52.52,304Z" transform="translate(0 0.01)"/></g><g class="cls-6"><path d="M92.83,304.84a.52.52,0,0,1-.15-.4v-5.25a.52.52,0,0,1,.15-.4.56.56,0,0,1,.41-.15H95a3.31,3.31,0,0,1,2.42.84,3.09,3.09,0,0,1,.86,2.33,3.14,3.14,0,0,1-.86,2.35A3.35,3.35,0,0,1,95,305H93.24A.56.56,0,0,1,92.83,304.84ZM95,304a2.23,2.23,0,0,0,0-4.45h-1.1V304Z" transform="translate(0 0.01)"/><path d="M99.44,299.53a.57.57,0,0,1-.18-.44.55.55,0,0,1,.18-.43.71.71,0,0,1,.49-.16.68.68,0,0,1,.48.16.56.56,0,0,1,.19.43.55.55,0,0,1-.19.44.69.69,0,0,1-.48.17A.71.71,0,0,1,99.44,299.53Zm.09,5.37a.48.48,0,0,1-.16-.4V301a.48.48,0,0,1,.16-.4.68.68,0,0,1,.8,0,.49.49,0,0,1,.17.4v3.47a.49.49,0,0,1-.17.4.64.64,0,0,1-.8,0Z" transform="translate(0 0.01)"/></g><g class="cls-6"><path d="M145.84,298.68a.59.59,0,0,1,.31-.09.57.57,0,0,1,.38.13.46.46,0,0,1,.15.36.85.85,0,0,1,0,.24l-1.94,5.35a.49.49,0,0,1-.23.28.73.73,0,0,1-.74,0,.49.49,0,0,1-.23-.28l-1.5-4.24-1.52,4.24a.47.47,0,0,1-.24.28.7.7,0,0,1-.72,0,.46.46,0,0,1-.23-.28l-1.94-5.35a.75.75,0,0,1,0-.24.44.44,0,0,1,.16-.36.59.59,0,0,1,.39-.13.63.63,0,0,1,.33.09.51.51,0,0,1,.2.27l1.53,4.4L141.5,299a.56.56,0,0,1,.21-.29.5.5,0,0,1,.31-.1.53.53,0,0,1,.32.1.55.55,0,0,1,.21.3l1.53,4.41,1.56-4.45A.51.51,0,0,1,145.84,298.68Z" transform="translate(0 0.01)"/><path d="M147.88,304.78a1.85,1.85,0,0,1-.79-.8,2.78,2.78,0,0,1,0-2.43,1.88,1.88,0,0,1,.79-.79,2.63,2.63,0,0,1,2.36,0,1.94,1.94,0,0,1,.79.79,2.87,2.87,0,0,1,0,2.43,1.91,1.91,0,0,1-.79.8,2.63,2.63,0,0,1-2.36,0Zm2-.95a1.69,1.69,0,0,0,.29-1.06,1.67,1.67,0,0,0-.29-1.06,1.12,1.12,0,0,0-1.66,0,1.61,1.61,0,0,0-.3,1.06,1.69,1.69,0,0,0,.29,1.06,1.15,1.15,0,0,0,1.67,0Z" transform="translate(0 0.01)"/></g><g class="cls-6"><path d="M191.83,304.84a.52.52,0,0,1-.15-.4v-5.25a.52.52,0,0,1,.15-.4.56.56,0,0,1,.41-.15H194a3.31,3.31,0,0,1,2.42.84,3.09,3.09,0,0,1,.86,2.33,3.14,3.14,0,0,1-.86,2.35A3.35,3.35,0,0,1,194,305h-1.78A.56.56,0,0,1,191.83,304.84ZM194,304a2.23,2.23,0,0,0,0-4.45h-1.1V304Z" transform="translate(0 0.01)"/><path d="M199.2,304.78a1.85,1.85,0,0,1-.79-.8,2.78,2.78,0,0,1,0-2.43,1.88,1.88,0,0,1,.79-.79,2.34,2.34,0,0,1,1.18-.28,2.37,2.37,0,0,1,1.18.28,1.86,1.86,0,0,1,.78.79,2.78,2.78,0,0,1,0,2.43,1.83,1.83,0,0,1-.78.8,2.37,2.37,0,0,1-1.18.28A2.34,2.34,0,0,1,199.2,304.78Zm2-.95a1.7,1.7,0,0,0,.28-1.06,1.68,1.68,0,0,0-.28-1.06,1,1,0,0,0-.83-.37,1,1,0,0,0-.83.37,1.61,1.61,0,0,0-.3,1.06,1.69,1.69,0,0,0,.29,1.06,1,1,0,0,0,.83.36A1,1,0,0,0,201.21,303.83Z" transform="translate(0 0.01)"/></g><g class="cls-6"><path d="M245.78,298.59a.65.65,0,0,1,.4.14.45.45,0,0,1,.18.36.53.53,0,0,1-.05.23l-2.49,5.36a.65.65,0,0,1-.25.27.74.74,0,0,1-.36.09.73.73,0,0,1-.35-.09.59.59,0,0,1-.25-.27l-2.48-5.36a.56.56,0,0,1-.06-.22.44.44,0,0,1,.19-.37.68.68,0,0,1,.41-.14.57.57,0,0,1,.29.08.46.46,0,0,1,.2.23l2.07,4.59,2.07-4.59A.5.5,0,0,1,245.78,298.59Z" transform="translate(0 0.01)"/><path d="M249.32,300.6a.42.42,0,0,1,.13.35.49.49,0,0,1-.12.36.69.69,0,0,1-.42.15l-.27,0a1.07,1.07,0,0,0-.78.36,1.2,1.2,0,0,0-.25.76v1.89a.48.48,0,0,1-.16.4.56.56,0,0,1-.4.14.53.53,0,0,1-.4-.14.48.48,0,0,1-.16-.4V301a.47.47,0,0,1,.16-.39.56.56,0,0,1,.39-.13.55.55,0,0,1,.38.13.48.48,0,0,1,.14.37v.36a1.28,1.28,0,0,1,.51-.61,1.48,1.48,0,0,1,.75-.24H249A.51.51,0,0,1,249.32,300.6Z" transform="translate(0 0.01)"/></g><g class="cls-6"><path d="M291.21,304.52c0,.31-.18.47-.54.47h-3.83a.54.54,0,0,1-.38-.14.49.49,0,0,1-.14-.36.67.67,0,0,1,.15-.41l3.22-4.51h-2.82c-.36,0-.54-.15-.54-.46s.18-.47.54-.47h3.72a.5.5,0,0,1,.37.14.46.46,0,0,1,.14.35.67.67,0,0,1-.15.41l-3.22,4.52h2.94C291,304.06,291.21,304.21,291.21,304.52Z" transform="translate(0 0.01)"/><path d="M295.18,300.93a1.92,1.92,0,0,1,.45,1.39v2.19a.52.52,0,0,1-.14.38.53.53,0,0,1-.4.14.5.5,0,0,1-.38-.14.5.5,0,0,1-.15-.38v-.2a1.12,1.12,0,0,1-.48.55,1.46,1.46,0,0,1-.76.2,1.74,1.74,0,0,1-.8-.18,1.44,1.44,0,0,1-.57-.49,1.26,1.26,0,0,1-.21-.71,1.12,1.12,0,0,1,.25-.76,1.51,1.51,0,0,1,.8-.41,7.79,7.79,0,0,1,1.54-.12h.23v-.21a.89.89,0,0,0-.19-.64.79.79,0,0,0-.61-.21,2,2,0,0,0-.53.08c-.18,0-.4.13-.64.22a.91.91,0,0,1-.34.12.34.34,0,0,1-.27-.12.44.44,0,0,1-.1-.3.45.45,0,0,1,.07-.27.63.63,0,0,1,.26-.21,2.54,2.54,0,0,1,.75-.27,3.67,3.67,0,0,1,.86-.1A1.83,1.83,0,0,1,295.18,300.93Zm-.9,3a1.13,1.13,0,0,0,.28-.78V303h-.16a5.65,5.65,0,0,0-.94.06.89.89,0,0,0-.48.18.51.51,0,0,0-.14.37.64.64,0,0,0,.2.48.73.73,0,0,0,.5.18A1,1,0,0,0,294.28,304Z" transform="translate(0 0.01)"/></g><g class="cls-6"><path d="M337.21,304.52c0,.31-.18.47-.54.47h-3.83a.54.54,0,0,1-.38-.14.49.49,0,0,1-.14-.36.67.67,0,0,1,.15-.41l3.22-4.51h-2.82c-.36,0-.54-.15-.54-.46s.18-.47.54-.47h3.72a.5.5,0,0,1,.37.14.46.46,0,0,1,.14.35.67.67,0,0,1-.15.41l-3.22,4.52h2.94C337,304.06,337.21,304.21,337.21,304.52Z" transform="translate(0 0.01)"/><path d="M338.75,304.78a1.83,1.83,0,0,1-.78-.8,2.78,2.78,0,0,1,0-2.43,1.86,1.86,0,0,1,.78-.79,2.41,2.41,0,0,1,1.19-.28,2.37,2.37,0,0,1,1.18.28,1.86,1.86,0,0,1,.78.79,2.78,2.78,0,0,1,0,2.43,1.83,1.83,0,0,1-.78.8,2.37,2.37,0,0,1-1.18.28A2.41,2.41,0,0,1,338.75,304.78Zm2-.95a1.7,1.7,0,0,0,.28-1.06,1.68,1.68,0,0,0-.28-1.06,1,1,0,0,0-.83-.37,1,1,0,0,0-.83.37,1.61,1.61,0,0,0-.3,1.06,1.69,1.69,0,0,0,.29,1.06,1,1,0,0,0,.83.36A1,1,0,0,0,340.77,303.83Z" transform="translate(0 0.01)"/></g><g class="cls-6"><path d="M20.87,285.32a4.63,4.63,0,0,1,0-4.3,2,2,0,0,1,3.06,0,3.67,3.67,0,0,1,.53,2.14,3.74,3.74,0,0,1-.53,2.16,2,2,0,0,1-3.06,0Zm2.32-.57a3.69,3.69,0,0,0,.25-1.59,3.61,3.61,0,0,0-.25-1.58.87.87,0,0,0-1.58,0,5.15,5.15,0,0,0,0,3.17.87.87,0,0,0,1.58,0Z" transform="translate(0 0.01)"/></g><line id="Line_1" data-name="Line 1" class="cls-7" x1="42.17" y1="140.63" x2="342.56" y2="140.63"/><line id="Line_2" data-name="Line 2" class="cls-7" x1="42.17" y1="169.55" x2="342.56" y2="169.55"/><line id="Line_3" data-name="Line 3" class="cls-7" x1="42.17" y1="198.46" x2="342.56" y2="198.46"/><line id="Line_4" data-name="Line 4" class="cls-7" x1="42.17" y1="227.38" x2="342.56" y2="227.38"/><line id="Line_5" data-name="Line 5" class="cls-7" x1="42.17" y1="256.29" x2="342.56" y2="256.29"/><line id="Line_6" data-name="Line 6" class="cls-7" x1="41.37" y1="285.21" x2="341.76" y2="285.21"/><rect id="Rectangle_53" data-name="Rectangle 53" class="cls-8" x="39" y="158" width="20" height="128"/><rect id="Rectangle_54" data-name="Rectangle 54" class="cls-8" x="88" y="152" width="20" height="134"/><rect id="Rectangle_55" data-name="Rectangle 55" class="cls-8" x="136" y="147" width="20" height="139"/><rect id="Rectangle_56" data-name="Rectangle 56" class="cls-8" x="188" y="162" width="20" height="124"/><rect id="Rectangle_57" data-name="Rectangle 57" class="cls-8" x="236" y="168" width="20" height="118"/><rect id="Rectangle_58" data-name="Rectangle 58" class="cls-8" x="282" y="172" width="20" height="114"/><rect class="cls-8" x="327" y="179" width="20" height="107"/><rect class="cls-9" x="327.5" y="179.5" width="19" height="106"/><line id="Line_9" data-name="Line 9" class="cls-9" x1="336.5" y1="179.5" x2="336.5" y2="116.5"/><rect id="Rectangle_35-2" data-name="Rectangle 35-2" class="cls-10" x="300" y="61" width="73" height="56" rx="9"/><g id="TEMPERATUUR" class="cls-6"><g class="cls-6"><path d="M310.56,69.91a.38.38,0,0,1-.11-.28V66.39h-1.09c-.24,0-.36-.1-.36-.31s.12-.32.36-.32h3c.24,0,.36.1.36.32s-.12.31-.36.31h-1.09v3.24a.4.4,0,0,1-.67.28Z" transform="translate(0 0.01)"/><path d="M314.43,69.89a.37.37,0,0,1-.1-.27v-3.5a.33.33,0,0,1,.38-.36h2.16a.36.36,0,0,1,.27.08.25.25,0,0,1,.1.22.26.26,0,0,1-.1.23.41.41,0,0,1-.27.08h-1.78v1.16h1.66a.41.41,0,0,1,.27.08.26.26,0,0,1,.1.23.25.25,0,0,1-.1.22.41.41,0,0,1-.27.08h-1.66v1.24h1.78a.36.36,0,0,1,.27.08.26.26,0,0,1,.1.23.26.26,0,0,1-.1.22.41.41,0,0,1-.27.08h-2.16A.37.37,0,0,1,314.43,69.89Z" transform="translate(0 0.01)"/><path d="M323.09,65.83a.39.39,0,0,1,.11.28v3.55a.39.39,0,0,1-.1.27.35.35,0,0,1-.25.09.33.33,0,0,1-.25-.09.38.38,0,0,1-.09-.27V67.19l-1,1.93a.69.69,0,0,1-.15.2.36.36,0,0,1-.2.06.34.34,0,0,1-.2-.06.48.48,0,0,1-.16-.2l-1-1.9v2.44a.33.33,0,0,1-.1.26.3.3,0,0,1-.24.1.33.33,0,0,1-.25-.09.38.38,0,0,1-.09-.27V66.11a.39.39,0,0,1,.1-.28.35.35,0,0,1,.27-.1.39.39,0,0,1,.36.26l1.33,2.53L322.47,66a.39.39,0,0,1,.35-.26A.33.33,0,0,1,323.09,65.83Z" transform="translate(0 0.01)"/><path d="M325.42,69.92a.4.4,0,0,1-.11-.29V66.12a.33.33,0,0,1,.38-.36h1.47a1.52,1.52,0,0,1,1.06.34,1.21,1.21,0,0,1,.38,1,1.22,1.22,0,0,1-.38,1,1.52,1.52,0,0,1-1.06.34h-1.07v1.29a.4.4,0,0,1-.11.29.44.44,0,0,1-.56,0Zm1.65-2.17c.53,0,.79-.23.79-.7s-.26-.69-.79-.69h-1v1.39Z" transform="translate(0 0.01)"/><path d="M330.57,69.89a.37.37,0,0,1-.1-.27v-3.5a.33.33,0,0,1,.38-.36H333a.36.36,0,0,1,.27.08.25.25,0,0,1,.1.22.26.26,0,0,1-.1.23.41.41,0,0,1-.27.08h-1.78v1.16h1.66a.41.41,0,0,1,.27.08.26.26,0,0,1,.1.23.25.25,0,0,1-.1.22.41.41,0,0,1-.27.08h-1.66v1.24H333a.36.36,0,0,1,.27.08.26.26,0,0,1,.1.23.26.26,0,0,1-.1.22A.41.41,0,0,1,333,70h-2.16A.37.37,0,0,1,330.57,69.89Z" transform="translate(0 0.01)"/><path d="M338.66,69.71a.27.27,0,0,1-.11.23.42.42,0,0,1-.44,0,.5.5,0,0,1-.15-.14l-.8-1.21a.74.74,0,0,0-.25-.27.72.72,0,0,0-.35-.08H336v1.34a.39.39,0,0,1-.1.29.37.37,0,0,1-.28.1.39.39,0,0,1-.28-.1.39.39,0,0,1-.1-.29V66.12a.36.36,0,0,1,.1-.27.37.37,0,0,1,.27-.09h1.5a1.59,1.59,0,0,1,1.09.32,1.31,1.31,0,0,1,.1,1.73,1.34,1.34,0,0,1-.79.41.81.81,0,0,1,.31.15,1.33,1.33,0,0,1,.26.3l.54.83A.35.35,0,0,1,338.66,69.71Zm-1.05-2.18a.61.61,0,0,0,.21-.51.58.58,0,0,0-.21-.5,1,1,0,0,0-.64-.16h-1V67.7h1A1,1,0,0,0,337.61,67.53Z" transform="translate(0 0.01)"/><path d="M344.4,69.68a.34.34,0,0,1-.11.24.39.39,0,0,1-.44,0,.35.35,0,0,1-.13-.16l-.36-.8h-2.11l-.36.8a.35.35,0,0,1-.13.16.41.41,0,0,1-.19.05.4.4,0,0,1-.25-.09.3.3,0,0,1-.11-.24.4.4,0,0,1,0-.15L341.9,66a.42.42,0,0,1,.16-.19.51.51,0,0,1,.48,0,.42.42,0,0,1,.16.19l1.66,3.56A.28.28,0,0,1,344.4,69.68Zm-1.3-1.28-.79-1.78-.8,1.78Z" transform="translate(0 0.01)"/><path d="M346.76,69.91a.37.37,0,0,1-.1-.28V66.39h-1.1c-.24,0-.36-.1-.36-.31s.12-.32.36-.32h3c.24,0,.36.1.36.32s-.12.31-.36.31h-1.09v3.24a.36.36,0,0,1-.38.39A.4.4,0,0,1,346.76,69.91Z" transform="translate(0 0.01)"/><path d="M351,69.59a1.78,1.78,0,0,1-.45-1.31V66.11a.39.39,0,0,1,.11-.28.35.35,0,0,1,.27-.1.37.37,0,0,1,.28.1.39.39,0,0,1,.1.28v2.21a1.21,1.21,0,0,0,.26.83,1,1,0,0,0,.75.27,1,1,0,0,0,.75-.28,1.14,1.14,0,0,0,.26-.82V66.11a.43.43,0,0,1,.1-.28.44.44,0,0,1,.56,0,.43.43,0,0,1,.1.28v2.17A1.87,1.87,0,0,1,351,69.59Z" transform="translate(0 0.01)"/><path d="M356.56,69.59a1.78,1.78,0,0,1-.45-1.31V66.11a.43.43,0,0,1,.1-.28.44.44,0,0,1,.56,0,.43.43,0,0,1,.1.28v2.21a1.17,1.17,0,0,0,.26.83,1,1,0,0,0,.75.27,1,1,0,0,0,.75-.28,1.19,1.19,0,0,0,.26-.82V66.11a.39.39,0,0,1,.1-.28.37.37,0,0,1,.28-.1.35.35,0,0,1,.27.1.39.39,0,0,1,.11.28v2.17a1.87,1.87,0,0,1-3.09,1.31Z" transform="translate(0 0.01)"/><path d="M365.19,69.71a.3.3,0,0,1-.11.23.41.41,0,0,1-.26.09.41.41,0,0,1-.19,0,.62.62,0,0,1-.14-.14l-.8-1.21a.75.75,0,0,0-.26-.27.7.7,0,0,0-.35-.08h-.58v1.34a.4.4,0,0,1-.11.29.35.35,0,0,1-.27.1.37.37,0,0,1-.28-.1.4.4,0,0,1-.11-.29V66.12a.33.33,0,0,1,.38-.36h1.5a1.59,1.59,0,0,1,1.09.32,1.15,1.15,0,0,1,.38.93,1.2,1.2,0,0,1-.28.8,1.34,1.34,0,0,1-.79.41.77.77,0,0,1,.3.15,1.12,1.12,0,0,1,.26.3l.55.83A.35.35,0,0,1,365.19,69.71Zm-1.05-2.18a.6.6,0,0,0,.2-.51.57.57,0,0,0-.2-.5,1,1,0,0,0-.64-.16h-1V67.7h1A1,1,0,0,0,364.14,67.53Z" transform="translate(0 0.01)"/></g></g><g id="Group_166" data-name="Group 166"><g id="_18" data-name=" 18" class="cls-6"><g class="cls-6"><path d="M333,93.14c0,.57-.32.85-1,.85h-5.41c-.65,0-1-.28-1-.85s.33-.82,1-.82h1.66V85l-1.53.94a.81.81,0,0,1-.4.13.7.7,0,0,1-.57-.29,1,1,0,0,1-.23-.64.79.79,0,0,1,.41-.72l2.48-1.53a1.73,1.73,0,0,1,.91-.29.95.95,0,0,1,1,1v8.67H332C332.66,92.32,333,92.6,333,93.14Z" transform="translate(0 0.01)"/><path d="M342.09,89.19a2.83,2.83,0,0,1,.53,1.76,2.74,2.74,0,0,1-1.12,2.33,6.14,6.14,0,0,1-6.2,0A2.74,2.74,0,0,1,334.18,91a2.89,2.89,0,0,1,.54-1.77,2.62,2.62,0,0,1,1.54-1,2.82,2.82,0,0,1-1.33-1,2.72,2.72,0,0,1-.48-1.6,2.66,2.66,0,0,1,1.05-2.22,5.54,5.54,0,0,1,5.8,0,2.66,2.66,0,0,1,1.05,2.22,2.77,2.77,0,0,1-.48,1.62,2.64,2.64,0,0,1-1.31,1A2.74,2.74,0,0,1,342.09,89.19Zm-1.4,1.6c0-1.14-.77-1.71-2.29-1.71s-2.29.57-2.29,1.71.76,1.71,2.29,1.71S340.69,91.93,340.69,90.79Zm-4.29-5a1.53,1.53,0,0,0,.5,1.24,2.83,2.83,0,0,0,3,0,1.53,1.53,0,0,0,.5-1.24c0-1.09-.67-1.63-2-1.63S336.4,84.72,336.4,85.81Z" transform="translate(0 0.01)"/></g></g><g id="_C" data-name=" C" class="cls-6"><g class="cls-6"><path d="M343.86,85.53a1.21,1.21,0,0,1-.44-.43,1.19,1.19,0,0,1-.16-.6,1.26,1.26,0,0,1,.16-.61,1.18,1.18,0,0,1,1-.58,1.29,1.29,0,0,1,.62.15,1.18,1.18,0,0,1,.43.43,1.16,1.16,0,0,1,.16.61,1.1,1.1,0,0,1-.16.6,1.18,1.18,0,0,1-.43.43,1.29,1.29,0,0,1-.62.15A1.21,1.21,0,0,1,343.86,85.53Zm1.05-.57a.62.62,0,0,0,.18-.46.64.64,0,0,0-.18-.47.6.6,0,0,0-.45-.18A.6.6,0,0,0,344,84a.68.68,0,0,0-.17.47A.65.65,0,0,0,344,85a.6.6,0,0,0,.44.18A.6.6,0,0,0,344.91,85Z" transform="translate(0 0.01)"/><path d="M347.64,88.71a2.3,2.3,0,0,1-.94-1,3.74,3.74,0,0,1,0-3.07,2.27,2.27,0,0,1,.94-1,2.72,2.72,0,0,1,1.42-.35,3.22,3.22,0,0,1,1,.15,2.83,2.83,0,0,1,.82.45.42.42,0,0,1,.14.17.48.48,0,0,1,0,.22.46.46,0,0,1-.09.29.29.29,0,0,1-.23.12.54.54,0,0,1-.33-.11,2.16,2.16,0,0,0-.64-.35,2,2,0,0,0-.66-.1,1.54,1.54,0,0,0-1.26.52,2.35,2.35,0,0,0-.43,1.52,2.42,2.42,0,0,0,.43,1.54,1.54,1.54,0,0,0,1.26.52,1.91,1.91,0,0,0,.64-.1,3.17,3.17,0,0,0,.66-.36l.16-.08a.47.47,0,0,1,.17,0,.29.29,0,0,1,.23.12.49.49,0,0,1,.09.3.46.46,0,0,1,0,.21.37.37,0,0,1-.14.17,2.43,2.43,0,0,1-.82.45,3,3,0,0,1-1,.16A2.82,2.82,0,0,1,347.64,88.71Z" transform="translate(0 0.01)"/></g></g></g><g id="_31_MEI_2020" data-name=" 31 MEI 2020" class="cls-6"><g class="cls-6"><path d="M317,110.18a1.1,1.1,0,0,1,.2.66,1.06,1.06,0,0,1-.4.87,1.67,1.67,0,0,1-1.09.33,2.36,2.36,0,0,1-.75-.12,1.89,1.89,0,0,1-.61-.34.37.37,0,0,1-.14-.28.38.38,0,0,1,.08-.23.21.21,0,0,1,.17-.09l.11,0,.13.07a2.88,2.88,0,0,0,.48.26,1.35,1.35,0,0,0,.5.09,1,1,0,0,0,.59-.16.59.59,0,0,0,.19-.48.55.55,0,0,0-.2-.47,1,1,0,0,0-.62-.16h-.34a.27.27,0,0,1-.22-.09.31.31,0,0,1-.07-.21.32.32,0,0,1,.07-.22.27.27,0,0,1,.22-.09h.24c.54,0,.82-.21.82-.62a.54.54,0,0,0-.18-.44.65.65,0,0,0-.48-.16,1.66,1.66,0,0,0-.93.35l-.13.07-.11,0a.23.23,0,0,1-.18-.09.35.35,0,0,1-.07-.23.33.33,0,0,1,0-.15.57.57,0,0,1,.1-.13,1.88,1.88,0,0,1,.61-.33,1.94,1.94,0,0,1,.71-.13,1.55,1.55,0,0,1,1,.31,1,1,0,0,1,.37.82,1.16,1.16,0,0,1-.19.61,1,1,0,0,1-.49.38A1,1,0,0,1,317,110.18Z" transform="translate(0 0.01)"/><path d="M322.17,111.67c0,.21-.12.32-.36.32h-2c-.25,0-.37-.11-.37-.32s.12-.31.37-.31h.62v-2.73l-.57.35a.37.37,0,0,1-.15,0,.28.28,0,0,1-.22-.11.41.41,0,0,1-.08-.24.32.32,0,0,1,.15-.27l.93-.57a.62.62,0,0,1,.34-.11.33.33,0,0,1,.27.1.38.38,0,0,1,.11.28v3.25h.63C322.05,111.36,322.17,111.47,322.17,111.67Z" transform="translate(0 0.01)"/><path d="M330.91,107.83a.39.39,0,0,1,.1.28v3.55a.35.35,0,0,1-.1.27.33.33,0,0,1-.25.09.32.32,0,0,1-.24-.09.38.38,0,0,1-.09-.27v-2.47l-1,1.93a.56.56,0,0,1-.16.2.34.34,0,0,1-.2.06.36.36,0,0,1-.2-.06.57.57,0,0,1-.15-.2l-1-1.9v2.44a.36.36,0,0,1-.09.26.32.32,0,0,1-.25.1.35.35,0,0,1-.25-.09.38.38,0,0,1-.09-.27v-3.55a.43.43,0,0,1,.1-.28.36.36,0,0,1,.27-.1.4.4,0,0,1,.37.26l1.33,2.53,1.32-2.53a.39.39,0,0,1,.36-.26A.36.36,0,0,1,330.91,107.83Z" transform="translate(0 0.01)"/><path d="M333.23,111.89a.33.33,0,0,1-.1-.27v-3.5a.36.36,0,0,1,.1-.27.37.37,0,0,1,.27-.09h2.17a.4.4,0,0,1,.27.08.27.27,0,0,1,.09.22.29.29,0,0,1-.09.23.46.46,0,0,1-.27.08h-1.79v1.16h1.67a.46.46,0,0,1,.27.08.29.29,0,0,1,.09.23.27.27,0,0,1-.09.22.46.46,0,0,1-.27.08h-1.67v1.24h1.79a.4.4,0,0,1,.27.08.29.29,0,0,1,.09.23.28.28,0,0,1-.09.22.46.46,0,0,1-.27.08H333.5A.33.33,0,0,1,333.23,111.89Z" transform="translate(0 0.01)"/><path d="M338,111.92a.42.42,0,0,1-.11-.29v-3.52a.39.39,0,0,1,.11-.28.44.44,0,0,1,.56,0,.39.39,0,0,1,.11.28v3.52a.42.42,0,0,1-.11.29.44.44,0,0,1-.56,0Z" transform="translate(0 0.01)"/><path d="M346.47,111.67c0,.21-.12.32-.36.32h-2.28a.33.33,0,0,1-.25-.09.34.34,0,0,1-.09-.24.47.47,0,0,1,.14-.32l1.37-1.47a2.49,2.49,0,0,0,.37-.51,1.07,1.07,0,0,0,.11-.46.56.56,0,0,0-.16-.43.65.65,0,0,0-.46-.15,1.32,1.32,0,0,0-.48.09,2.68,2.68,0,0,0-.46.26l-.12.07a.27.27,0,0,1-.12,0,.24.24,0,0,1-.18-.1.36.36,0,0,1-.08-.23.24.24,0,0,1,0-.15.31.31,0,0,1,.1-.13,2,2,0,0,1,.62-.33,2,2,0,0,1,.71-.13,1.44,1.44,0,0,1,1,.32,1,1,0,0,1,.37.84,1.57,1.57,0,0,1-.15.68,3,3,0,0,1-.53.72l-1,1.1h1.59C346.35,111.36,346.47,111.47,346.47,111.67Z" transform="translate(0 0.01)"/><path d="M348.58,111.49a3.46,3.46,0,0,1,0-3.23,1.31,1.31,0,0,1,1.14-.56,1.33,1.33,0,0,1,1.15.56,3.44,3.44,0,0,1,0,3.22,1.46,1.46,0,0,1-2.29,0Zm1.74-.43a2.93,2.93,0,0,0,.18-1.19,2.86,2.86,0,0,0-.18-1.19.62.62,0,0,0-.6-.37.61.61,0,0,0-.59.37,3.82,3.82,0,0,0,0,2.38.62.62,0,0,0,.59.38A.63.63,0,0,0,350.32,111.06Z" transform="translate(0 0.01)"/><path d="M356.07,111.67c0,.21-.12.32-.36.32h-2.28a.32.32,0,0,1-.24-.09.34.34,0,0,1-.09-.24.45.45,0,0,1,.13-.32l1.37-1.47a2.16,2.16,0,0,0,.37-.51,1,1,0,0,0,.12-.46.6.6,0,0,0-.16-.43.68.68,0,0,0-.47-.15,1.27,1.27,0,0,0-.47.09,2.75,2.75,0,0,0-.47.26l-.12.07a.27.27,0,0,1-.12,0,.26.26,0,0,1-.18-.1.35.35,0,0,1-.07-.23.32.32,0,0,1,.14-.28,2.32,2.32,0,0,1,1.32-.46,1.45,1.45,0,0,1,1,.32,1,1,0,0,1,.37.84,1.45,1.45,0,0,1-.16.68,2.91,2.91,0,0,1-.52.72l-1,1.1h1.58C356,111.36,356.07,111.47,356.07,111.67Z" transform="translate(0 0.01)"/><path d="M358.18,111.49a3.54,3.54,0,0,1,0-3.23,1.46,1.46,0,0,1,2.3,0,3.52,3.52,0,0,1,0,3.22,1.32,1.32,0,0,1-1.15.56A1.33,1.33,0,0,1,358.18,111.49Zm1.74-.43a2.74,2.74,0,0,0,.19-1.19,2.68,2.68,0,0,0-.19-1.19.66.66,0,0,0-1.18,0,3.82,3.82,0,0,0,0,2.38.65.65,0,0,0,1.18,0Z" transform="translate(0 0.01)"/></g></g><path id="Path_198-2" data-name="Path 198-2" class="cls-11" d="M16,0H173a15,15,0,0,1,15,15V31a15,15,0,0,1-15,15H16A15,15,0,0,1,1,31V15A15,15,0,0,1,16,0Z" transform="translate(0 0.01)"/><g id="D" class="cls-6"><text class="cls-12" transform="translate(87 30)">D</text></g><rect id="Rectangle_63" data-name="Rectangle 63" class="cls-1" x="192" width="184" height="46" rx="15"/><g id="M" class="cls-6"><text class="cls-12" transform="translate(275 30)">M</text></g></svg>