<?xml version="1.0" encoding="utf-8"?>
<!-- Generator: Adobe Illustrator 24.1.2, SVG Export Plug-In . SVG Version: 6.00 Build 0)  -->
<svg version="1.1" id="Layer_1" xmlns="http://www.w3.org/2000/svg" xmlns:xlink="http://www.w3.org/1999/xlink" x="0px" y="0px"
	 viewBox="0 0 376 329" style="enable-background:new 0 0 376 329;" xml:space="preserve">
<style type="text/css">
	.st0{fill:#FFFFFF;}
	.st1{font-family:'Nunito-Bold';}
	.st2{font-size:13px;}
	.st3{fill:#D5D5D5;}
	.st4{enable-background:new    ;}
	.st5{fill:none;stroke:#D5D5D5;stroke-dasharray:10;}
	.st6{fill:#00F53F;}
	.st7{fill:none;stroke:#707070;}
	.st8{fill:#FFFFFF;stroke:#707070;stroke-miterlimit:10;}
	.st9{fill:#F7F7F7;}
	.st10{font-size:20px;}
</style>
<path id="Rectangle_7-2" class="st0" d="M15,0h346c8.3,0,15,6.7,15,15v299c0,8.3-6.7,15-15,15H15c-8.3,0-15-6.7-15-15V15
	C0,6.7,6.7,0,15,0z"/>
<g id="Gemiddelde_temperatuur">
	<text transform="matrix(1 0 0 1 4 27)" class="st0 st1 st2">Gemiddelde tempe</text>
	<text transform="matrix(1 0 0 1 116.92 27)" class="st0 st1 st2">r</text>
	<text transform="matrix(1 0 0 1 121.87 27)" class="st0 st1 st2">atuur</text>
</g>
<rect id="Rectangle_8" y="46" class="st3" width="376" height="1"/>
<g id="_25">
	<g class="st4">
		<path d="M19,141.5c0,0.3-0.2,0.5-0.5,0.5h-3.4c-0.2,0-0.3,0-0.4-0.1c-0.1-0.1-0.1-0.2-0.1-0.3c0-0.2,0.1-0.3,0.2-0.5l2.1-2.2
			c0.3-0.3,0.4-0.5,0.6-0.8c0.1-0.2,0.2-0.5,0.2-0.7c0-0.3-0.1-0.5-0.2-0.6c-0.2-0.1-0.4-0.2-0.7-0.2c-0.2,0-0.5,0-0.7,0.1
			s-0.5,0.2-0.7,0.4c-0.1,0-0.1,0.1-0.2,0.1c-0.1,0-0.1,0-0.2,0c-0.1,0-0.2,0-0.3-0.1c-0.1-0.1-0.1-0.2-0.1-0.3c0-0.1,0-0.2,0-0.2
			c0-0.1,0.1-0.1,0.2-0.2c0.3-0.2,0.6-0.4,0.9-0.5s0.7-0.2,1.1-0.2c0.6,0,1.1,0.2,1.5,0.5c0.4,0.3,0.6,0.7,0.6,1.3
			c0,0.4-0.1,0.7-0.2,1c-0.2,0.3-0.4,0.7-0.8,1.1l-1.6,1.7h2.4C18.8,141.1,19,141.2,19,141.5z"/>
		<path d="M23.5,138.2c0.3,0.2,0.5,0.4,0.7,0.7s0.3,0.7,0.3,1.1c0,0.4-0.1,0.8-0.3,1.1c-0.2,0.3-0.5,0.6-0.8,0.7
			c-0.3,0.2-0.7,0.3-1.2,0.3c-0.4,0-0.7-0.1-1.1-0.2s-0.7-0.3-0.9-0.5c-0.1-0.1-0.2-0.3-0.2-0.4c0-0.1,0-0.2,0.1-0.3
			c0.1-0.1,0.2-0.1,0.3-0.1c0.1,0,0.1,0,0.2,0c0.1,0,0.1,0.1,0.2,0.1c0.2,0.2,0.5,0.3,0.7,0.4s0.5,0.1,0.7,0.1
			c0.4,0,0.7-0.1,0.9-0.3c0.2-0.2,0.3-0.5,0.3-0.8c0-0.4-0.1-0.6-0.3-0.8s-0.5-0.3-0.9-0.3c-0.2,0-0.4,0-0.6,0.1
			c-0.2,0.1-0.4,0.2-0.6,0.3c-0.1,0.1-0.2,0.1-0.4,0.1s-0.2,0-0.3-0.1s-0.1-0.2-0.1-0.3v-2.8c0-0.2,0-0.3,0.1-0.4
			c0.1-0.1,0.2-0.1,0.4-0.1h3c0.4,0,0.5,0.1,0.5,0.5c0,0.3-0.2,0.4-0.5,0.4h-2.4v1.7c0.3-0.2,0.7-0.3,1.1-0.3
			C22.8,137.9,23.2,138,23.5,138.2z"/>
	</g>
</g>
<g id="_20">
	<g class="st4">
		<path d="M19,170.5c0,0.3-0.2,0.5-0.5,0.5h-3.4c-0.2,0-0.3,0-0.4-0.1c-0.1-0.1-0.1-0.2-0.1-0.3c0-0.2,0.1-0.3,0.2-0.5l2.1-2.2
			c0.3-0.3,0.4-0.5,0.6-0.8c0.1-0.2,0.2-0.5,0.2-0.7c0-0.3-0.1-0.5-0.2-0.6c-0.2-0.1-0.4-0.2-0.7-0.2c-0.2,0-0.5,0-0.7,0.1
			s-0.5,0.2-0.7,0.4c-0.1,0-0.1,0.1-0.2,0.1c-0.1,0-0.1,0-0.2,0c-0.1,0-0.2,0-0.3-0.1c-0.1-0.1-0.1-0.2-0.1-0.3c0-0.1,0-0.2,0-0.2
			c0-0.1,0.1-0.1,0.2-0.2c0.3-0.2,0.6-0.4,0.9-0.5s0.7-0.2,1.1-0.2c0.6,0,1.1,0.2,1.5,0.5c0.4,0.3,0.6,0.7,0.6,1.3
			c0,0.4-0.1,0.7-0.2,1c-0.2,0.3-0.4,0.7-0.8,1.1l-1.6,1.7h2.4C18.8,170.1,19,170.2,19,170.5z"/>
		<path d="M20.4,170.2c-0.4-0.6-0.6-1.4-0.6-2.4c0-1.1,0.2-1.9,0.6-2.4c0.4-0.6,1-0.8,1.7-0.8c0.8,0,1.3,0.3,1.7,0.8
			c0.4,0.6,0.6,1.4,0.6,2.4c0,1.1-0.2,1.9-0.6,2.4c-0.4,0.6-1,0.8-1.7,0.8C21.4,171.1,20.8,170.8,20.4,170.2z M23,169.6
			c0.2-0.4,0.3-1,0.3-1.8c0-0.8-0.1-1.4-0.3-1.8c-0.2-0.4-0.5-0.6-0.9-0.6c-0.4,0-0.7,0.2-0.9,0.6s-0.3,1-0.3,1.8
			c0,0.8,0.1,1.4,0.3,1.8s0.5,0.6,0.9,0.6C22.5,170.2,22.8,170,23,169.6z"/>
	</g>
</g>
<g id="_15">
	<g class="st4">
		<path d="M19,200.5c0,0.3-0.2,0.5-0.5,0.5h-3c-0.4,0-0.5-0.2-0.5-0.5c0-0.3,0.2-0.5,0.5-0.5h0.9V196l-0.9,0.5
			c-0.1,0-0.2,0.1-0.2,0.1c-0.1,0-0.2-0.1-0.3-0.2c-0.1-0.1-0.1-0.2-0.1-0.4c0-0.2,0.1-0.3,0.2-0.4l1.4-0.9c0.2-0.1,0.4-0.2,0.5-0.2
			c0.2,0,0.3,0.1,0.4,0.2c0.1,0.1,0.2,0.2,0.2,0.4v4.9h0.9C18.9,200.1,19,200.2,19,200.5z"/>
		<path d="M23.5,197.2c0.3,0.2,0.5,0.4,0.7,0.7s0.3,0.7,0.3,1.1c0,0.4-0.1,0.8-0.3,1.1c-0.2,0.3-0.5,0.6-0.8,0.7
			c-0.3,0.2-0.7,0.3-1.2,0.3c-0.4,0-0.7-0.1-1.1-0.2s-0.7-0.3-0.9-0.5c-0.1-0.1-0.2-0.3-0.2-0.4c0-0.1,0-0.2,0.1-0.3
			c0.1-0.1,0.2-0.1,0.3-0.1c0.1,0,0.1,0,0.2,0c0.1,0,0.1,0.1,0.2,0.1c0.2,0.2,0.5,0.3,0.7,0.4s0.5,0.1,0.7,0.1
			c0.4,0,0.7-0.1,0.9-0.3c0.2-0.2,0.3-0.5,0.3-0.8c0-0.4-0.1-0.6-0.3-0.8s-0.5-0.3-0.9-0.3c-0.2,0-0.4,0-0.6,0.1
			c-0.2,0.1-0.4,0.2-0.6,0.3c-0.1,0.1-0.2,0.1-0.4,0.1s-0.2,0-0.3-0.1s-0.1-0.2-0.1-0.3v-2.8c0-0.2,0-0.3,0.1-0.4
			c0.1-0.1,0.2-0.1,0.4-0.1h3c0.4,0,0.5,0.1,0.5,0.5c0,0.3-0.2,0.4-0.5,0.4h-2.4v1.7c0.3-0.2,0.7-0.3,1.1-0.3
			C22.8,196.9,23.2,197,23.5,197.2z"/>
	</g>
</g>
<g id="_10">
	<g class="st4">
		<path d="M19,229.5c0,0.3-0.2,0.5-0.5,0.5h-3c-0.4,0-0.5-0.2-0.5-0.5c0-0.3,0.2-0.5,0.5-0.5h0.9V225l-0.9,0.5
			c-0.1,0-0.2,0.1-0.2,0.1c-0.1,0-0.2-0.1-0.3-0.2c-0.1-0.1-0.1-0.2-0.1-0.4c0-0.2,0.1-0.3,0.2-0.4l1.4-0.9c0.2-0.1,0.4-0.2,0.5-0.2
			c0.2,0,0.3,0.1,0.4,0.2c0.1,0.1,0.2,0.2,0.2,0.4v4.9h0.9C18.9,229.1,19,229.2,19,229.5z"/>
		<path d="M20.4,229.2c-0.4-0.6-0.6-1.4-0.6-2.4c0-1.1,0.2-1.9,0.6-2.4c0.4-0.6,1-0.8,1.7-0.8c0.8,0,1.3,0.3,1.7,0.8
			c0.4,0.6,0.6,1.4,0.6,2.4c0,1.1-0.2,1.9-0.6,2.4c-0.4,0.6-1,0.8-1.7,0.8C21.3,230.1,20.8,229.8,20.4,229.2z M23,228.6
			c0.2-0.4,0.3-1,0.3-1.8c0-0.8-0.1-1.4-0.3-1.8c-0.2-0.4-0.5-0.6-0.9-0.6c-0.4,0-0.7,0.2-0.9,0.6s-0.3,1-0.3,1.8
			c0,0.8,0.1,1.4,0.3,1.8s0.5,0.6,0.9,0.6C22.5,229.2,22.8,229,23,228.6z"/>
	</g>
</g>
<g id="_5">
	<g class="st4">
		<path d="M24.1,254.2c0.3,0.2,0.5,0.4,0.7,0.7s0.3,0.7,0.3,1.1c0,0.4-0.1,0.8-0.3,1.1c-0.2,0.3-0.5,0.6-0.8,0.7
			c-0.3,0.2-0.7,0.3-1.2,0.3c-0.4,0-0.7-0.1-1.1-0.2s-0.7-0.3-0.9-0.5c-0.1-0.1-0.2-0.3-0.2-0.4c0-0.1,0-0.2,0.1-0.3
			c0.1-0.1,0.2-0.1,0.3-0.1c0.1,0,0.1,0,0.2,0c0.1,0,0.1,0.1,0.2,0.1c0.2,0.2,0.5,0.3,0.7,0.4s0.5,0.1,0.7,0.1
			c0.4,0,0.7-0.1,0.9-0.3c0.2-0.2,0.3-0.5,0.3-0.8c0-0.4-0.1-0.6-0.3-0.8s-0.5-0.3-0.9-0.3c-0.2,0-0.4,0-0.6,0.1
			c-0.2,0.1-0.4,0.2-0.6,0.3c-0.1,0.1-0.2,0.1-0.4,0.1s-0.2,0-0.3-0.1s-0.1-0.2-0.1-0.3v-2.8c0-0.2,0-0.3,0.1-0.4
			c0.1-0.1,0.2-0.1,0.4-0.1h3c0.4,0,0.5,0.1,0.5,0.5c0,0.3-0.2,0.4-0.5,0.4h-2.4v1.7c0.3-0.2,0.7-0.3,1.1-0.3
			C23.4,253.9,23.8,254,24.1,254.2z"/>
	</g>
</g>
<g id="Ma">
	<g class="st4">
		<path d="M48.7,298.8c0.1,0.1,0.2,0.2,0.2,0.4v5.3c0,0.2,0,0.3-0.1,0.4s-0.2,0.1-0.4,0.1c-0.2,0-0.3,0-0.4-0.1
			c-0.1-0.1-0.1-0.2-0.1-0.4v-3.7l-1.5,2.9c-0.1,0.1-0.1,0.2-0.2,0.3c-0.1,0.1-0.2,0.1-0.3,0.1c-0.1,0-0.2,0-0.3-0.1
			c-0.1-0.1-0.2-0.2-0.2-0.3l-1.5-2.9v3.7c0,0.2,0,0.3-0.1,0.4c-0.1,0.1-0.2,0.1-0.4,0.1c-0.2,0-0.3,0-0.4-0.1s-0.1-0.2-0.1-0.4
			v-5.3c0-0.2,0-0.3,0.1-0.4c0.1-0.1,0.2-0.2,0.4-0.2c0.2,0,0.4,0.1,0.5,0.4l2,3.8l2-3.8c0.1-0.3,0.3-0.4,0.5-0.4
			C48.5,298.6,48.6,298.7,48.7,298.8z"/>
		<path d="M53.4,300.9c0.3,0.3,0.4,0.8,0.4,1.4v2.2c0,0.2,0,0.3-0.1,0.4c-0.1,0.1-0.2,0.1-0.4,0.1c-0.2,0-0.3,0-0.4-0.1
			c-0.1-0.1-0.1-0.2-0.1-0.4v-0.2c-0.1,0.2-0.3,0.4-0.5,0.5c-0.2,0.1-0.5,0.2-0.8,0.2c-0.3,0-0.6-0.1-0.8-0.2
			c-0.2-0.1-0.4-0.3-0.6-0.5c-0.1-0.2-0.2-0.4-0.2-0.7c0-0.3,0.1-0.6,0.2-0.8c0.2-0.2,0.4-0.3,0.8-0.4s0.9-0.1,1.5-0.1h0.2v-0.2
			c0-0.3-0.1-0.5-0.2-0.6c-0.1-0.1-0.3-0.2-0.6-0.2c-0.2,0-0.4,0-0.5,0.1c-0.2,0.1-0.4,0.1-0.6,0.2c-0.2,0.1-0.3,0.1-0.3,0.1
			c-0.1,0-0.2,0-0.3-0.1c-0.1-0.1-0.1-0.2-0.1-0.3c0-0.1,0-0.2,0.1-0.3c0.1-0.1,0.1-0.1,0.3-0.2c0.2-0.1,0.5-0.2,0.8-0.3
			c0.3-0.1,0.6-0.1,0.9-0.1C52.7,300.5,53.1,300.6,53.4,300.9z M52.5,304c0.2-0.2,0.3-0.5,0.3-0.8V303h-0.2c-0.4,0-0.7,0-0.9,0.1
			c-0.2,0-0.4,0.1-0.5,0.2c-0.1,0.1-0.1,0.2-0.1,0.4c0,0.2,0.1,0.3,0.2,0.5c0.1,0.1,0.3,0.2,0.5,0.2C52.1,304.3,52.3,304.2,52.5,304
			z"/>
	</g>
</g>
<g id="Di">
	<g class="st4">
		<path d="M92.8,304.9c-0.1-0.1-0.1-0.2-0.1-0.4v-5.2c0-0.2,0-0.3,0.1-0.4c0.1-0.1,0.2-0.1,0.4-0.1H95c1,0,1.8,0.3,2.4,0.8
			c0.6,0.6,0.9,1.3,0.9,2.3c0,1-0.3,1.8-0.9,2.3c-0.6,0.6-1.4,0.8-2.4,0.8h-1.8C93.1,305,92.9,305,92.8,304.9z M95,304.1
			c1.5,0,2.2-0.7,2.2-2.2c0-1.5-0.7-2.2-2.2-2.2h-1.1v4.5H95z"/>
		<path d="M99.4,299.5c-0.1-0.1-0.2-0.3-0.2-0.4c0-0.2,0.1-0.3,0.2-0.4c0.1-0.1,0.3-0.2,0.5-0.2c0.2,0,0.4,0.1,0.5,0.2
			c0.1,0.1,0.2,0.3,0.2,0.4c0,0.2-0.1,0.3-0.2,0.4c-0.1,0.1-0.3,0.2-0.5,0.2C99.7,299.7,99.6,299.7,99.4,299.5z M99.5,304.9
			c-0.1-0.1-0.2-0.2-0.2-0.4V301c0-0.2,0.1-0.3,0.2-0.4c0.1-0.1,0.2-0.1,0.4-0.1s0.3,0,0.4,0.1c0.1,0.1,0.2,0.2,0.2,0.4v3.5
			c0,0.2-0.1,0.3-0.2,0.4c-0.1,0.1-0.2,0.1-0.4,0.1S99.6,305,99.5,304.9z"/>
	</g>
</g>
<g id="Wo">
	<g class="st4">
		<path d="M145.8,298.7c0.1-0.1,0.2-0.1,0.3-0.1c0.1,0,0.3,0,0.4,0.1s0.2,0.2,0.2,0.4c0,0.1,0,0.1,0,0.2l-1.9,5.4
			c0,0.1-0.1,0.2-0.2,0.3c-0.1,0.1-0.2,0.1-0.4,0.1c-0.1,0-0.3,0-0.4-0.1c-0.1-0.1-0.2-0.2-0.2-0.3l-1.5-4.2l-1.5,4.2
			c0,0.1-0.1,0.2-0.2,0.3c-0.1,0.1-0.2,0.1-0.4,0.1s-0.3,0-0.4-0.1c-0.1-0.1-0.2-0.2-0.2-0.3l-1.9-5.4c0-0.1,0-0.2,0-0.2
			c0-0.1,0.1-0.3,0.2-0.4c0.1-0.1,0.2-0.1,0.4-0.1c0.1,0,0.2,0,0.3,0.1c0.1,0.1,0.2,0.1,0.2,0.3l1.5,4.4l1.6-4.4
			c0-0.1,0.1-0.2,0.2-0.3c0.1-0.1,0.2-0.1,0.3-0.1c0.1,0,0.2,0,0.3,0.1c0.1,0.1,0.2,0.2,0.2,0.3l1.5,4.4l1.6-4.5
			C145.7,298.8,145.7,298.8,145.8,298.7z"/>
	</g>
	<g class="st4">
		<path d="M147.9,304.8c-0.3-0.2-0.6-0.5-0.8-0.8s-0.3-0.8-0.3-1.2s0.1-0.9,0.3-1.2s0.4-0.6,0.8-0.8c0.3-0.2,0.7-0.3,1.2-0.3
			c0.5,0,0.8,0.1,1.2,0.3c0.3,0.2,0.6,0.5,0.8,0.8c0.2,0.3,0.3,0.7,0.3,1.2s-0.1,0.9-0.3,1.2c-0.2,0.3-0.4,0.6-0.8,0.8
			c-0.3,0.2-0.7,0.3-1.2,0.3C148.6,305.1,148.2,305,147.9,304.8z M149.9,303.8c0.2-0.2,0.3-0.6,0.3-1.1c0-0.5-0.1-0.8-0.3-1.1
			s-0.5-0.4-0.8-0.4c-0.4,0-0.6,0.1-0.8,0.4c-0.2,0.2-0.3,0.6-0.3,1.1c0,0.5,0.1,0.8,0.3,1.1s0.5,0.4,0.8,0.4
			C149.4,304.2,149.7,304.1,149.9,303.8z"/>
	</g>
</g>
<g id="Do">
	<g class="st4">
		<path d="M191.8,304.9c-0.1-0.1-0.1-0.2-0.1-0.4v-5.2c0-0.2,0-0.3,0.1-0.4c0.1-0.1,0.2-0.1,0.4-0.1h1.8c1,0,1.8,0.3,2.4,0.8
			c0.6,0.6,0.9,1.3,0.9,2.3c0,1-0.3,1.8-0.9,2.3c-0.6,0.6-1.4,0.8-2.4,0.8h-1.8C192.1,305,191.9,305,191.8,304.9z M194,304.1
			c1.5,0,2.2-0.7,2.2-2.2c0-1.5-0.7-2.2-2.2-2.2h-1.1v4.5H194z"/>
		<path d="M199.2,304.8c-0.3-0.2-0.6-0.5-0.8-0.8s-0.3-0.8-0.3-1.2s0.1-0.9,0.3-1.2s0.4-0.6,0.8-0.8c0.3-0.2,0.7-0.3,1.2-0.3
			s0.8,0.1,1.2,0.3c0.3,0.2,0.6,0.5,0.8,0.8s0.3,0.7,0.3,1.2s-0.1,0.9-0.3,1.2s-0.4,0.6-0.8,0.8c-0.3,0.2-0.7,0.3-1.2,0.3
			S199.5,305,199.2,304.8z M201.2,303.8c0.2-0.2,0.3-0.6,0.3-1.1c0-0.5-0.1-0.8-0.3-1.1s-0.5-0.4-0.8-0.4s-0.6,0.1-0.8,0.4
			c-0.2,0.2-0.3,0.6-0.3,1.1c0,0.5,0.1,0.8,0.3,1.1s0.5,0.4,0.8,0.4C200.7,304.2,201,304.1,201.2,303.8z"/>
	</g>
</g>
<g id="Vr">
	<g class="st4">
		<path d="M245.8,298.6c0.2,0,0.3,0,0.4,0.1c0.1,0.1,0.2,0.2,0.2,0.4c0,0.1,0,0.1-0.1,0.2l-2.5,5.4c-0.1,0.1-0.1,0.2-0.2,0.3
			c-0.1,0.1-0.2,0.1-0.4,0.1s-0.2,0-0.4-0.1c-0.1-0.1-0.2-0.2-0.2-0.3l-2.5-5.4c0-0.1-0.1-0.2-0.1-0.2c0-0.2,0.1-0.3,0.2-0.4
			s0.3-0.1,0.4-0.1c0.1,0,0.2,0,0.3,0.1c0.1,0.1,0.2,0.1,0.2,0.2l2.1,4.6l2.1-4.6C245.4,298.7,245.6,298.6,245.8,298.6z"/>
	</g>
	<g class="st4">
		<path d="M249.3,300.6c0.1,0.1,0.1,0.2,0.1,0.4c0,0.2,0,0.3-0.1,0.4s-0.2,0.1-0.4,0.2l-0.3,0c-0.4,0-0.6,0.2-0.8,0.4
			s-0.2,0.5-0.2,0.8v1.9c0,0.2-0.1,0.3-0.2,0.4c-0.1,0.1-0.2,0.1-0.4,0.1s-0.3,0-0.4-0.1c-0.1-0.1-0.2-0.2-0.2-0.4V301
			c0-0.2,0.1-0.3,0.2-0.4c0.1-0.1,0.2-0.1,0.4-0.1s0.3,0,0.4,0.1s0.1,0.2,0.1,0.4v0.4c0.1-0.3,0.3-0.5,0.5-0.6
			c0.2-0.1,0.5-0.2,0.8-0.2l0.1,0C249.1,300.5,249.2,300.5,249.3,300.6z"/>
	</g>
</g>
<g id="Za">
	<g class="st4">
		<path d="M291.2,304.5c0,0.3-0.2,0.5-0.5,0.5h-3.8c-0.2,0-0.3,0-0.4-0.1c-0.1-0.1-0.1-0.2-0.1-0.4c0-0.1,0-0.3,0.1-0.4l3.2-4.5
			h-2.8c-0.4,0-0.5-0.2-0.5-0.5c0-0.3,0.2-0.5,0.5-0.5h3.7c0.2,0,0.3,0,0.4,0.1c0.1,0.1,0.1,0.2,0.1,0.3c0,0.1-0.1,0.3-0.2,0.4
			l-3.2,4.5h2.9C291,304.1,291.2,304.2,291.2,304.5z"/>
	</g>
	<g class="st4">
		<path d="M295.2,300.9c0.3,0.3,0.4,0.8,0.4,1.4v2.2c0,0.2,0,0.3-0.1,0.4c-0.1,0.1-0.2,0.1-0.4,0.1c-0.2,0-0.3,0-0.4-0.1
			c-0.1-0.1-0.1-0.2-0.1-0.4v-0.2c-0.1,0.2-0.3,0.4-0.5,0.5s-0.5,0.2-0.8,0.2c-0.3,0-0.6-0.1-0.8-0.2c-0.2-0.1-0.4-0.3-0.6-0.5
			c-0.1-0.2-0.2-0.4-0.2-0.7c0-0.3,0.1-0.6,0.2-0.8c0.2-0.2,0.4-0.3,0.8-0.4s0.9-0.1,1.5-0.1h0.2v-0.2c0-0.3-0.1-0.5-0.2-0.6
			c-0.1-0.1-0.3-0.2-0.6-0.2c-0.2,0-0.4,0-0.5,0.1c-0.2,0.1-0.4,0.1-0.6,0.2c-0.2,0.1-0.3,0.1-0.3,0.1c-0.1,0-0.2,0-0.3-0.1
			c-0.1-0.1-0.1-0.2-0.1-0.3c0-0.1,0-0.2,0.1-0.3s0.1-0.1,0.3-0.2c0.2-0.1,0.5-0.2,0.8-0.3c0.3-0.1,0.6-0.1,0.9-0.1
			C294.4,300.5,294.9,300.6,295.2,300.9z M294.3,304c0.2-0.2,0.3-0.5,0.3-0.8V303h-0.2c-0.4,0-0.7,0-0.9,0.1s-0.4,0.1-0.5,0.2
			c-0.1,0.1-0.1,0.2-0.1,0.4c0,0.2,0.1,0.3,0.2,0.5c0.1,0.1,0.3,0.2,0.5,0.2C293.8,304.3,294.1,304.2,294.3,304z"/>
	</g>
</g>
<g id="Zo">
	<g class="st4">
		<path d="M337.2,304.5c0,0.3-0.2,0.5-0.5,0.5h-3.8c-0.2,0-0.3,0-0.4-0.1c-0.1-0.1-0.1-0.2-0.1-0.4c0-0.1,0-0.3,0.1-0.4l3.2-4.5
			h-2.8c-0.4,0-0.5-0.2-0.5-0.5c0-0.3,0.2-0.5,0.5-0.5h3.7c0.2,0,0.3,0,0.4,0.1c0.1,0.1,0.1,0.2,0.1,0.3c0,0.1-0.1,0.3-0.2,0.4
			l-3.2,4.5h2.9C337,304.1,337.2,304.2,337.2,304.5z"/>
	</g>
	<g class="st4">
		<path d="M338.8,304.8c-0.3-0.2-0.6-0.5-0.8-0.8c-0.2-0.3-0.3-0.8-0.3-1.2s0.1-0.9,0.3-1.2c0.2-0.3,0.4-0.6,0.8-0.8
			c0.3-0.2,0.7-0.3,1.2-0.3c0.5,0,0.8,0.1,1.2,0.3c0.3,0.2,0.6,0.5,0.8,0.8s0.3,0.7,0.3,1.2s-0.1,0.9-0.3,1.2s-0.4,0.6-0.8,0.8
			c-0.3,0.2-0.7,0.3-1.2,0.3C339.5,305.1,339.1,305,338.8,304.8z M340.8,303.8c0.2-0.2,0.3-0.6,0.3-1.1c0-0.5-0.1-0.8-0.3-1.1
			c-0.2-0.2-0.5-0.4-0.8-0.4c-0.4,0-0.6,0.1-0.8,0.4s-0.3,0.6-0.3,1.1c0,0.5,0.1,0.8,0.3,1.1c0.2,0.2,0.5,0.4,0.8,0.4
			C340.3,304.2,340.6,304.1,340.8,303.8z"/>
	</g>
</g>
<g id="_0">
	<g class="st4">
		<path d="M20.9,285.3c-0.4-0.5-0.5-1.2-0.5-2.2c0-0.9,0.2-1.7,0.5-2.1s0.9-0.7,1.5-0.7s1.2,0.2,1.5,0.7c0.4,0.5,0.5,1.2,0.5,2.1
			c0,0.9-0.2,1.7-0.5,2.2c-0.4,0.5-0.9,0.7-1.5,0.7S21.2,285.8,20.9,285.3z M23.2,284.8c0.2-0.3,0.2-0.9,0.2-1.6
			c0-0.7-0.1-1.3-0.2-1.6c-0.2-0.3-0.4-0.5-0.8-0.5s-0.6,0.2-0.8,0.5c-0.2,0.3-0.2,0.9-0.2,1.6c0,0.7,0.1,1.3,0.2,1.6
			c0.2,0.3,0.4,0.5,0.8,0.5S23,285.1,23.2,284.8z"/>
	</g>
</g>
<line id="Line_1" class="st5" x1="42.2" y1="140.6" x2="342.6" y2="140.6"/>
<line id="Line_2" class="st5" x1="42.2" y1="169.6" x2="342.6" y2="169.6"/>
<line id="Line_3" class="st5" x1="42.2" y1="198.5" x2="342.6" y2="198.5"/>
<line id="Line_4" class="st5" x1="42.2" y1="227.4" x2="342.6" y2="227.4"/>
<line id="Line_5" class="st5" x1="42.2" y1="256.3" x2="342.6" y2="256.3"/>
<line id="Line_6" class="st5" x1="41.4" y1="285.2" x2="341.8" y2="285.2"/>
<rect id="Rectangle_53" x="39" y="158" class="st6" width="20" height="128"/>
<rect id="Rectangle_54" x="88" y="152" class="st6" width="20" height="134"/>
<rect id="Rectangle_55" x="136" y="147" class="st6" width="20" height="139"/>
<rect id="Rectangle_56" x="188" y="162" class="st6" width="20" height="124"/>
<g id="Rectangle_57">
	<rect x="236" y="168" class="st6" width="20" height="118"/>
	<rect x="236.5" y="168.5" class="st7" width="19" height="117"/>
</g>
<rect id="Rectangle_58" x="282" y="172" class="st6" width="20" height="114"/>
<rect id="Rectangle_59" x="327" y="179" class="st6" width="20" height="107"/>
<line id="Line_9" class="st7" x1="245.5" y1="168.5" x2="245.5" y2="116.5"/>
<path id="Rectangle_35-2" class="st8" d="M218,61h55c5,0,9,4,9,9v38c0,5-4,9-9,9h-55c-5,0-9-4-9-9V70C209,65,213,61,218,61z"/>
<g id="TEMPERATUUR">
	<g class="st4">
		<path d="M219.6,69.9c-0.1-0.1-0.1-0.2-0.1-0.3v-3.2h-1.1c-0.2,0-0.4-0.1-0.4-0.3s0.1-0.3,0.4-0.3h3c0.2,0,0.4,0.1,0.4,0.3
			s-0.1,0.3-0.4,0.3h-1.1v3.2c0,0.1,0,0.2-0.1,0.3c-0.1,0.1-0.2,0.1-0.3,0.1C219.7,70,219.6,70,219.6,69.9z"/>
		<path d="M223.4,69.9c-0.1-0.1-0.1-0.2-0.1-0.3v-3.5c0-0.1,0-0.2,0.1-0.3c0.1-0.1,0.2-0.1,0.3-0.1h2.2c0.1,0,0.2,0,0.3,0.1
			c0.1,0.1,0.1,0.1,0.1,0.2c0,0.1,0,0.2-0.1,0.2c-0.1,0.1-0.2,0.1-0.3,0.1h-1.8v1.2h1.7c0.1,0,0.2,0,0.3,0.1
			c0.1,0.1,0.1,0.1,0.1,0.2c0,0.1,0,0.2-0.1,0.2c-0.1,0.1-0.2,0.1-0.3,0.1h-1.7v1.2h1.8c0.1,0,0.2,0,0.3,0.1
			c0.1,0.1,0.1,0.1,0.1,0.2c0,0.1,0,0.2-0.1,0.2c-0.1,0.1-0.2,0.1-0.3,0.1h-2.2C223.6,70,223.5,70,223.4,69.9z"/>
		<path d="M232.1,65.8c0.1,0.1,0.1,0.2,0.1,0.3v3.6c0,0.1,0,0.2-0.1,0.3C232,70,232,70,231.8,70s-0.2,0-0.2-0.1
			c-0.1-0.1-0.1-0.2-0.1-0.3v-2.5l-1,1.9c0,0.1-0.1,0.2-0.2,0.2c-0.1,0-0.1,0.1-0.2,0.1c-0.1,0-0.1,0-0.2-0.1
			c-0.1,0-0.1-0.1-0.2-0.2l-1-1.9v2.4c0,0.1,0,0.2-0.1,0.3c-0.1,0.1-0.1,0.1-0.2,0.1c-0.1,0-0.2,0-0.2-0.1c-0.1-0.1-0.1-0.2-0.1-0.3
			v-3.6c0-0.1,0-0.2,0.1-0.3c0.1-0.1,0.2-0.1,0.3-0.1c0.2,0,0.3,0.1,0.4,0.3l1.3,2.5l1.3-2.5c0.1-0.2,0.2-0.3,0.4-0.3
			C231.9,65.7,232,65.8,232.1,65.8z"/>
		<path d="M234.4,69.9c-0.1-0.1-0.1-0.2-0.1-0.3v-3.5c0-0.1,0-0.2,0.1-0.3c0.1-0.1,0.2-0.1,0.3-0.1h1.5c0.5,0,0.8,0.1,1.1,0.3
			c0.3,0.2,0.4,0.5,0.4,1c0,0.4-0.1,0.7-0.4,1c-0.3,0.2-0.6,0.3-1.1,0.3h-1.1v1.3c0,0.1,0,0.2-0.1,0.3c-0.1,0.1-0.2,0.1-0.3,0.1
			C234.6,70,234.5,70,234.4,69.9z M236.1,67.8c0.5,0,0.8-0.2,0.8-0.7c0-0.5-0.3-0.7-0.8-0.7h-1v1.4H236.1z"/>
		<path d="M239.6,69.9c-0.1-0.1-0.1-0.2-0.1-0.3v-3.5c0-0.1,0-0.2,0.1-0.3c0.1-0.1,0.2-0.1,0.3-0.1h2.2c0.1,0,0.2,0,0.3,0.1
			c0.1,0.1,0.1,0.1,0.1,0.2c0,0.1,0,0.2-0.1,0.2c-0.1,0.1-0.2,0.1-0.3,0.1h-1.8v1.2h1.7c0.1,0,0.2,0,0.3,0.1
			c0.1,0.1,0.1,0.1,0.1,0.2c0,0.1,0,0.2-0.1,0.2c-0.1,0.1-0.2,0.1-0.3,0.1h-1.7v1.2h1.8c0.1,0,0.2,0,0.3,0.1
			c0.1,0.1,0.1,0.1,0.1,0.2c0,0.1,0,0.2-0.1,0.2c-0.1,0.1-0.2,0.1-0.3,0.1h-2.2C239.7,70,239.6,70,239.6,69.9z"/>
	</g>
	<g class="st4">
		<path d="M247.7,69.7c0,0.1,0,0.2-0.1,0.2c-0.1,0.1-0.2,0.1-0.3,0.1c-0.1,0-0.1,0-0.2,0c-0.1,0-0.1-0.1-0.1-0.1l-0.8-1.2
			c-0.1-0.1-0.2-0.2-0.3-0.3c-0.1-0.1-0.2-0.1-0.4-0.1H245v1.3c0,0.1,0,0.2-0.1,0.3c-0.1,0.1-0.2,0.1-0.3,0.1c-0.1,0-0.2,0-0.3-0.1
			c-0.1-0.1-0.1-0.2-0.1-0.3v-3.5c0-0.1,0-0.2,0.1-0.3c0.1-0.1,0.2-0.1,0.3-0.1h1.5c0.5,0,0.8,0.1,1.1,0.3s0.4,0.5,0.4,0.9
			c0,0.3-0.1,0.6-0.3,0.8c-0.2,0.2-0.4,0.3-0.8,0.4c0.1,0,0.2,0.1,0.3,0.1c0.1,0.1,0.2,0.2,0.3,0.3l0.5,0.8
			C247.6,69.6,247.7,69.7,247.7,69.7z M246.6,67.5c0.1-0.1,0.2-0.3,0.2-0.5c0-0.2-0.1-0.4-0.2-0.5c-0.1-0.1-0.3-0.2-0.6-0.2h-1v1.3
			h1C246.3,67.7,246.5,67.7,246.6,67.5z"/>
	</g>
	<g class="st4">
		<path d="M253.4,69.7c0,0.1,0,0.2-0.1,0.2c-0.1,0.1-0.2,0.1-0.3,0.1c-0.1,0-0.1,0-0.2-0.1c-0.1,0-0.1-0.1-0.1-0.2l-0.4-0.8h-2.1
			l-0.4,0.8c0,0.1-0.1,0.1-0.1,0.2c-0.1,0-0.1,0.1-0.2,0.1c-0.1,0-0.2,0-0.3-0.1c-0.1-0.1-0.1-0.1-0.1-0.2c0-0.1,0-0.1,0-0.2
			l1.7-3.6c0-0.1,0.1-0.1,0.2-0.2c0.1,0,0.2-0.1,0.2-0.1s0.2,0,0.2,0.1s0.1,0.1,0.2,0.2l1.7,3.6C253.4,69.6,253.4,69.6,253.4,69.7z
			 M252.1,68.4l-0.8-1.8l-0.8,1.8H252.1z"/>
	</g>
	<g class="st4">
		<path d="M255.8,69.9c-0.1-0.1-0.1-0.2-0.1-0.3v-3.2h-1.1c-0.2,0-0.4-0.1-0.4-0.3s0.1-0.3,0.4-0.3h3c0.2,0,0.4,0.1,0.4,0.3
			s-0.1,0.3-0.4,0.3h-1.1v3.2c0,0.1,0,0.2-0.1,0.3c-0.1,0.1-0.2,0.1-0.3,0.1C255.9,70,255.8,70,255.8,69.9z"/>
		<path d="M260,69.6c-0.3-0.3-0.5-0.7-0.5-1.3v-2.2c0-0.1,0-0.2,0.1-0.3c0.1-0.1,0.2-0.1,0.3-0.1s0.2,0,0.3,0.1
			c0.1,0.1,0.1,0.2,0.1,0.3v2.2c0,0.4,0.1,0.6,0.3,0.8c0.2,0.2,0.4,0.3,0.8,0.3c0.3,0,0.6-0.1,0.8-0.3c0.2-0.2,0.3-0.5,0.3-0.8v-2.2
			c0-0.1,0-0.2,0.1-0.3c0.1-0.1,0.2-0.1,0.3-0.1s0.2,0,0.3,0.1c0.1,0.1,0.1,0.2,0.1,0.3v2.2c0,0.6-0.2,1-0.5,1.3
			c-0.3,0.3-0.7,0.5-1.3,0.5C260.7,70.1,260.3,69.9,260,69.6z"/>
		<path d="M265.6,69.6c-0.3-0.3-0.4-0.7-0.4-1.3v-2.2c0-0.1,0-0.2,0.1-0.3c0.1-0.1,0.2-0.1,0.3-0.1c0.1,0,0.2,0,0.3,0.1
			c0.1,0.1,0.1,0.2,0.1,0.3v2.2c0,0.4,0.1,0.6,0.3,0.8c0.2,0.2,0.4,0.3,0.8,0.3c0.3,0,0.6-0.1,0.8-0.3c0.2-0.2,0.3-0.5,0.3-0.8v-2.2
			c0-0.1,0-0.2,0.1-0.3c0.1-0.1,0.2-0.1,0.3-0.1c0.1,0,0.2,0,0.3,0.1c0.1,0.1,0.1,0.2,0.1,0.3v2.2c0,0.6-0.1,1-0.4,1.3
			c-0.3,0.3-0.7,0.5-1.3,0.5C266.3,70.1,265.9,69.9,265.6,69.6z"/>
		<path d="M274.2,69.7c0,0.1,0,0.2-0.1,0.2c-0.1,0.1-0.2,0.1-0.3,0.1c-0.1,0-0.1,0-0.2,0c-0.1,0-0.1-0.1-0.1-0.1l-0.8-1.2
			c-0.1-0.1-0.2-0.2-0.3-0.3s-0.2-0.1-0.4-0.1h-0.6v1.3c0,0.1,0,0.2-0.1,0.3c-0.1,0.1-0.2,0.1-0.3,0.1c-0.1,0-0.2,0-0.3-0.1
			c-0.1-0.1-0.1-0.2-0.1-0.3v-3.5c0-0.1,0-0.2,0.1-0.3c0.1-0.1,0.2-0.1,0.3-0.1h1.5c0.5,0,0.8,0.1,1.1,0.3s0.4,0.5,0.4,0.9
			c0,0.3-0.1,0.6-0.3,0.8c-0.2,0.2-0.4,0.3-0.8,0.4c0.1,0,0.2,0.1,0.3,0.1s0.2,0.2,0.3,0.3l0.5,0.8
			C274.2,69.6,274.2,69.7,274.2,69.7z M273.1,67.5c0.1-0.1,0.2-0.3,0.2-0.5c0-0.2-0.1-0.4-0.2-0.5c-0.1-0.1-0.4-0.2-0.6-0.2h-1v1.3
			h1C272.8,67.7,273,67.7,273.1,67.5z"/>
	</g>
</g>
<g id="Group_166">
	<g id="_20-2">
		<g class="st4">
			<path d="M241.9,93.2c0,0.6-0.3,0.8-1,0.8h-6.1c-0.3,0-0.5-0.1-0.7-0.2c-0.2-0.2-0.2-0.4-0.2-0.6c0-0.3,0.1-0.6,0.4-0.9l3.6-3.9
				c0.4-0.5,0.8-0.9,1-1.4c0.2-0.4,0.3-0.8,0.3-1.2c0-0.5-0.1-0.9-0.4-1.2s-0.7-0.4-1.2-0.4c-0.4,0-0.9,0.1-1.3,0.2
				c-0.4,0.2-0.8,0.4-1.2,0.7c-0.1,0.1-0.2,0.1-0.3,0.2c-0.1,0-0.2,0.1-0.3,0.1c-0.2,0-0.3-0.1-0.5-0.3c-0.1-0.2-0.2-0.4-0.2-0.6
				c0-0.2,0-0.3,0.1-0.4s0.2-0.2,0.3-0.3c0.5-0.4,1-0.7,1.6-0.9s1.3-0.3,1.9-0.3c1.1,0,2,0.3,2.6,0.8s1,1.3,1,2.2
				c0,0.7-0.1,1.3-0.4,1.8c-0.3,0.6-0.7,1.2-1.4,1.9l-2.8,2.9h4.2C241.6,92.3,241.9,92.6,241.9,93.2z"/>
			<path d="M244.4,92.7c-0.7-1-1.1-2.4-1.1-4.3c0-1.9,0.4-3.3,1.1-4.3c0.7-1,1.7-1.5,3.1-1.5s2.4,0.5,3.1,1.5c0.7,1,1.1,2.4,1.1,4.3
				c0,1.9-0.4,3.3-1.1,4.3c-0.7,1-1.7,1.5-3.1,1.5S245.1,93.7,244.4,92.7z M249,91.5c0.3-0.7,0.5-1.7,0.5-3.2c0-1.5-0.2-2.5-0.5-3.2
				s-0.9-1-1.6-1c-0.7,0-1.3,0.3-1.6,1c-0.3,0.7-0.5,1.7-0.5,3.2c0,1.5,0.2,2.5,0.5,3.2c0.3,0.7,0.9,1,1.6,1
				C248.1,92.5,248.7,92.2,249,91.5z"/>
		</g>
	</g>
	<g id="_C">
		<g class="st4">
			<path d="M252.9,85.5c-0.2-0.1-0.3-0.2-0.4-0.4c-0.1-0.2-0.2-0.4-0.2-0.6c0-0.2,0.1-0.4,0.2-0.6c0.1-0.2,0.3-0.3,0.4-0.4
				c0.2-0.1,0.4-0.2,0.6-0.2s0.4,0.1,0.6,0.2c0.2,0.1,0.3,0.2,0.4,0.4c0.1,0.2,0.2,0.4,0.2,0.6c0,0.2-0.1,0.4-0.2,0.6
				c-0.1,0.2-0.3,0.3-0.4,0.4c-0.2,0.1-0.4,0.2-0.6,0.2S253,85.6,252.9,85.5z M253.9,85c0.1-0.1,0.2-0.3,0.2-0.5
				c0-0.2-0.1-0.3-0.2-0.5s-0.3-0.2-0.4-0.2c-0.2,0-0.3,0.1-0.4,0.2s-0.2,0.3-0.2,0.5c0,0.2,0.1,0.3,0.2,0.5s0.3,0.2,0.4,0.2
				C253.6,85.2,253.8,85.1,253.9,85z"/>
			<path d="M256.6,88.7c-0.4-0.2-0.7-0.6-0.9-1s-0.3-0.9-0.3-1.5c0-0.6,0.1-1.1,0.3-1.5c0.2-0.4,0.5-0.8,0.9-1
				c0.4-0.2,0.9-0.4,1.4-0.4c0.4,0,0.7,0.1,1,0.2c0.3,0.1,0.6,0.3,0.8,0.5c0.1,0.1,0.1,0.1,0.1,0.2c0,0.1,0,0.1,0,0.2
				c0,0.1,0,0.2-0.1,0.3c-0.1,0.1-0.1,0.1-0.2,0.1c-0.1,0-0.2,0-0.3-0.1c-0.2-0.2-0.4-0.3-0.6-0.4c-0.2-0.1-0.4-0.1-0.7-0.1
				c-0.6,0-1,0.2-1.3,0.5s-0.4,0.9-0.4,1.5c0,0.7,0.1,1.2,0.4,1.5s0.7,0.5,1.3,0.5c0.2,0,0.4,0,0.6-0.1s0.4-0.2,0.7-0.4
				c0.1,0,0.1-0.1,0.2-0.1c0.1,0,0.1,0,0.2,0c0.1,0,0.2,0,0.2,0.1c0.1,0.1,0.1,0.2,0.1,0.3c0,0.1,0,0.2,0,0.2c0,0.1-0.1,0.1-0.1,0.2
				c-0.2,0.2-0.5,0.3-0.8,0.5c-0.3,0.1-0.6,0.2-1,0.2C257.5,89.1,257,89,256.6,88.7z"/>
		</g>
	</g>
</g>
<g id="_29_MEI_2020">
	<g class="st4">
		<path d="M225.3,111.7c0,0.2-0.1,0.3-0.4,0.3h-2.3c-0.1,0-0.2,0-0.2-0.1c-0.1-0.1-0.1-0.1-0.1-0.2c0-0.1,0-0.2,0.1-0.3l1.4-1.5
			c0.2-0.2,0.3-0.4,0.4-0.5s0.1-0.3,0.1-0.5c0-0.2-0.1-0.3-0.2-0.4c-0.1-0.1-0.3-0.2-0.5-0.2c-0.2,0-0.3,0-0.5,0.1
			c-0.2,0.1-0.3,0.1-0.5,0.3c0,0-0.1,0.1-0.1,0.1c0,0-0.1,0-0.1,0c-0.1,0-0.1,0-0.2-0.1c0-0.1-0.1-0.1-0.1-0.2c0-0.1,0-0.1,0-0.2
			s0.1-0.1,0.1-0.1c0.2-0.1,0.4-0.3,0.6-0.3c0.2-0.1,0.5-0.1,0.7-0.1c0.4,0,0.7,0.1,1,0.3c0.2,0.2,0.4,0.5,0.4,0.8
			c0,0.2-0.1,0.5-0.2,0.7c-0.1,0.2-0.3,0.5-0.5,0.7l-1,1.1h1.6C225.2,111.4,225.3,111.5,225.3,111.7z"/>
		<path d="M229.7,108.3c0.3,0.4,0.4,0.9,0.4,1.6c0,0.5-0.1,0.9-0.2,1.2c-0.1,0.3-0.3,0.6-0.6,0.8c-0.3,0.2-0.6,0.3-0.9,0.3
			c-0.2,0-0.5,0-0.7-0.1c-0.2-0.1-0.4-0.2-0.6-0.3c-0.1,0-0.1-0.1-0.1-0.1s0-0.1,0-0.2c0-0.1,0-0.2,0.1-0.2c0-0.1,0.1-0.1,0.2-0.1
			c0,0,0.1,0,0.1,0c0,0,0.1,0,0.1,0.1c0.3,0.2,0.6,0.3,0.9,0.3c0.3,0,0.5-0.1,0.7-0.4c0.2-0.3,0.3-0.6,0.3-1.1
			c-0.1,0.2-0.2,0.3-0.4,0.4c-0.2,0.1-0.4,0.2-0.6,0.2c-0.3,0-0.5-0.1-0.7-0.2c-0.2-0.1-0.3-0.3-0.5-0.5c-0.1-0.2-0.2-0.4-0.2-0.7
			c0-0.3,0.1-0.5,0.2-0.7c0.1-0.2,0.3-0.4,0.5-0.5c0.2-0.1,0.5-0.2,0.7-0.2C229,107.7,229.4,107.9,229.7,108.3z M229.1,109.7
			c0.1-0.1,0.2-0.3,0.2-0.6c0-0.2-0.1-0.4-0.2-0.6c-0.1-0.1-0.3-0.2-0.5-0.2c-0.2,0-0.4,0.1-0.5,0.2c-0.1,0.1-0.2,0.3-0.2,0.6
			c0,0.2,0.1,0.4,0.2,0.6c0.1,0.1,0.3,0.2,0.5,0.2C228.7,109.9,228.9,109.8,229.1,109.7z"/>
		<path d="M238.9,107.8c0.1,0.1,0.1,0.2,0.1,0.3v3.6c0,0.1,0,0.2-0.1,0.3c-0.1,0.1-0.1,0.1-0.3,0.1s-0.2,0-0.2-0.1
			c-0.1-0.1-0.1-0.2-0.1-0.3v-2.5l-1,1.9c0,0.1-0.1,0.2-0.2,0.2c-0.1,0-0.1,0.1-0.2,0.1c-0.1,0-0.1,0-0.2-0.1
			c-0.1,0-0.1-0.1-0.2-0.2l-1-1.9v2.4c0,0.1,0,0.2-0.1,0.3c-0.1,0.1-0.1,0.1-0.2,0.1c-0.1,0-0.2,0-0.2-0.1c-0.1-0.1-0.1-0.2-0.1-0.3
			v-3.6c0-0.1,0-0.2,0.1-0.3c0.1-0.1,0.2-0.1,0.3-0.1c0.2,0,0.3,0.1,0.4,0.3l1.3,2.5l1.3-2.5c0.1-0.2,0.2-0.3,0.4-0.3
			C238.8,107.7,238.8,107.8,238.9,107.8z"/>
		<path d="M241.2,111.9c-0.1-0.1-0.1-0.2-0.1-0.3v-3.5c0-0.1,0-0.2,0.1-0.3c0.1-0.1,0.2-0.1,0.3-0.1h2.2c0.1,0,0.2,0,0.3,0.1
			c0.1,0.1,0.1,0.1,0.1,0.2c0,0.1,0,0.2-0.1,0.2c-0.1,0.1-0.2,0.1-0.3,0.1h-1.8v1.2h1.7c0.1,0,0.2,0,0.3,0.1
			c0.1,0.1,0.1,0.1,0.1,0.2c0,0.1,0,0.2-0.1,0.2c-0.1,0.1-0.2,0.1-0.3,0.1h-1.7v1.2h1.8c0.1,0,0.2,0,0.3,0.1
			c0.1,0.1,0.1,0.1,0.1,0.2c0,0.1,0,0.2-0.1,0.2c-0.1,0.1-0.2,0.1-0.3,0.1h-2.2C241.4,112,241.3,112,241.2,111.9z"/>
		<path d="M246,111.9c-0.1-0.1-0.1-0.2-0.1-0.3v-3.5c0-0.1,0-0.2,0.1-0.3c0.1-0.1,0.2-0.1,0.3-0.1c0.1,0,0.2,0,0.3,0.1
			c0.1,0.1,0.1,0.2,0.1,0.3v3.5c0,0.1,0,0.2-0.1,0.3c-0.1,0.1-0.2,0.1-0.3,0.1C246.1,112,246,112,246,111.9z"/>
		<path d="M254.5,111.7c0,0.2-0.1,0.3-0.4,0.3h-2.3c-0.1,0-0.2,0-0.2-0.1c-0.1-0.1-0.1-0.1-0.1-0.2c0-0.1,0-0.2,0.1-0.3l1.4-1.5
			c0.2-0.2,0.3-0.4,0.4-0.5s0.1-0.3,0.1-0.5c0-0.2-0.1-0.3-0.2-0.4c-0.1-0.1-0.3-0.2-0.5-0.2c-0.2,0-0.3,0-0.5,0.1
			c-0.2,0.1-0.3,0.1-0.5,0.3c0,0-0.1,0.1-0.1,0.1s-0.1,0-0.1,0c-0.1,0-0.1,0-0.2-0.1c0-0.1-0.1-0.1-0.1-0.2c0-0.1,0-0.1,0-0.2
			c0,0,0.1-0.1,0.1-0.1c0.2-0.1,0.4-0.3,0.6-0.3s0.5-0.1,0.7-0.1c0.4,0,0.7,0.1,1,0.3s0.4,0.5,0.4,0.8c0,0.2-0.1,0.5-0.2,0.7
			c-0.1,0.2-0.3,0.5-0.5,0.7l-1,1.1h1.6C254.4,111.4,254.5,111.5,254.5,111.7z"/>
		<path d="M256.6,111.5c-0.3-0.4-0.4-0.9-0.4-1.6c0-0.7,0.1-1.2,0.4-1.6c0.3-0.4,0.6-0.6,1.1-0.6s0.9,0.2,1.1,0.6
			c0.3,0.4,0.4,0.9,0.4,1.6s-0.1,1.2-0.4,1.6c-0.3,0.4-0.6,0.6-1.1,0.6S256.8,111.9,256.6,111.5z M258.3,111.1
			c0.1-0.3,0.2-0.6,0.2-1.2c0-0.5-0.1-0.9-0.2-1.2c-0.1-0.2-0.3-0.4-0.6-0.4s-0.5,0.1-0.6,0.4s-0.2,0.6-0.2,1.2s0.1,0.9,0.2,1.2
			s0.3,0.4,0.6,0.4S258.2,111.3,258.3,111.1z"/>
		<path d="M264.1,111.7c0,0.2-0.1,0.3-0.4,0.3h-2.3c-0.1,0-0.2,0-0.2-0.1c-0.1-0.1-0.1-0.1-0.1-0.2c0-0.1,0-0.2,0.1-0.3l1.4-1.5
			c0.2-0.2,0.3-0.4,0.4-0.5s0.1-0.3,0.1-0.5c0-0.2-0.1-0.3-0.2-0.4c-0.1-0.1-0.3-0.2-0.5-0.2c-0.2,0-0.3,0-0.5,0.1
			c-0.2,0.1-0.3,0.1-0.5,0.3c0,0-0.1,0.1-0.1,0.1c0,0-0.1,0-0.1,0c-0.1,0-0.1,0-0.2-0.1c0-0.1-0.1-0.1-0.1-0.2c0-0.1,0-0.1,0-0.2
			s0.1-0.1,0.1-0.1c0.2-0.1,0.4-0.3,0.6-0.3c0.2-0.1,0.5-0.1,0.7-0.1c0.4,0,0.7,0.1,1,0.3s0.4,0.5,0.4,0.8c0,0.2-0.1,0.5-0.2,0.7
			s-0.3,0.5-0.5,0.7l-1,1.1h1.6C264,111.4,264.1,111.5,264.1,111.7z"/>
		<path d="M266.2,111.5c-0.3-0.4-0.4-0.9-0.4-1.6c0-0.7,0.1-1.2,0.4-1.6c0.3-0.4,0.6-0.6,1.1-0.6s0.9,0.2,1.1,0.6
			c0.3,0.4,0.4,0.9,0.4,1.6s-0.1,1.2-0.4,1.6c-0.3,0.4-0.6,0.6-1.1,0.6S266.5,111.9,266.2,111.5z M267.9,111.1
			c0.1-0.3,0.2-0.6,0.2-1.2c0-0.5-0.1-0.9-0.2-1.2c-0.1-0.2-0.3-0.4-0.6-0.4c-0.3,0-0.5,0.1-0.6,0.4c-0.1,0.2-0.2,0.6-0.2,1.2
			s0.1,0.9,0.2,1.2c0.1,0.3,0.3,0.4,0.6,0.4C267.6,111.4,267.8,111.3,267.9,111.1z"/>
	</g>
</g>
<g id="Group_186">
	<path id="Path_198-2" class="st9" d="M16,0h157c8.3,0,15,6.7,15,15v16c0,8.3-6.7,15-15,15H16C7.7,46,1,39.3,1,31V15
		C1,6.7,7.7,0,16,0z"/>
	<g id="D">
		<text transform="matrix(1 0 0 1 87 30)" class="st1 st10">D</text>
	</g>
</g>
<g id="Group_187">
	<path id="Rectangle_63" class="st0" d="M207,0h154c8.3,0,15,6.7,15,15v16c0,8.3-6.7,15-15,15H207c-8.3,0-15-6.7-15-15V15
		C192,6.7,198.7,0,207,0z"/>
	<g id="M">
		<text transform="matrix(1 0 0 1 275 30)" class="st1 st10">M</text>
	</g>
</g>
</svg>
