<?xml version="1.0" encoding="utf-8"?>
<!-- Generator: Adobe Illustrator 24.1.2, SVG Export Plug-In . SVG Version: 6.00 Build 0)  -->
<svg version="1.1" id="Layer_1" xmlns="http://www.w3.org/2000/svg" xmlns:xlink="http://www.w3.org/1999/xlink" x="0px" y="0px"
	 viewBox="0 0 376 241" style="enable-background:new 0 0 376 241;" xml:space="preserve">
<style type="text/css">
	.st0{fill:#FFFFFF;}
	.st1{fill:#D5D5D5;}
	.st2{enable-background:new    ;}
	.st3{fill:none;stroke:#D5D5D5;stroke-dasharray:10;}
	.st4{fill:none;stroke:#00F444;stroke-width:5;stroke-linecap:round;}
</style>
<path id="Rectangle_7-2" class="st0" d="M15,0h346c8.3,0,15,6.7,15,15v211c0,8.3-6.7,15-15,15H15c-8.3,0-15-6.7-15-15V15
	C0,6.7,6.7,0,15,0z"/>
<rect id="Rectangle_8" y="46" class="st1" width="376" height="1"/>
<g>
	<g class="st2">
		<path d="M24.4,65.8c0,0.3-0.2,0.5-0.5,0.5h-3.4c-0.2,0-0.3,0-0.4-0.1c-0.1-0.1-0.1-0.2-0.1-0.3c0-0.2,0.1-0.3,0.2-0.5l2.1-2.2
			c0.3-0.3,0.4-0.5,0.6-0.8c0.1-0.2,0.2-0.5,0.2-0.7c0-0.3-0.1-0.5-0.2-0.6c-0.2-0.1-0.4-0.2-0.7-0.2c-0.2,0-0.5,0-0.7,0.1
			s-0.5,0.2-0.7,0.4c-0.1,0-0.1,0.1-0.2,0.1c-0.1,0-0.1,0-0.2,0c-0.1,0-0.2,0-0.3-0.1c-0.1-0.1-0.1-0.2-0.1-0.3c0-0.1,0-0.2,0-0.2
			c0-0.1,0.1-0.1,0.2-0.2c0.3-0.2,0.6-0.4,0.9-0.5s0.7-0.2,1.1-0.2c0.6,0,1.1,0.2,1.5,0.5c0.4,0.3,0.6,0.7,0.6,1.3
			c0,0.4-0.1,0.7-0.2,1c-0.2,0.3-0.4,0.7-0.8,1.1l-1.6,1.7h2.4C24.2,65.4,24.4,65.5,24.4,65.8z"/>
		<path d="M29.8,65.8c0,0.3-0.2,0.5-0.5,0.5h-3.4c-0.2,0-0.3,0-0.4-0.1c-0.1-0.1-0.1-0.2-0.1-0.3c0-0.2,0.1-0.3,0.2-0.5l2.1-2.2
			c0.3-0.3,0.4-0.5,0.6-0.8c0.1-0.2,0.2-0.5,0.2-0.7c0-0.3-0.1-0.5-0.2-0.6c-0.2-0.1-0.4-0.2-0.7-0.2c-0.2,0-0.5,0-0.7,0.1
			s-0.5,0.2-0.7,0.4c-0.1,0-0.1,0.1-0.2,0.1c-0.1,0-0.1,0-0.2,0c-0.1,0-0.2,0-0.3-0.1c-0.1-0.1-0.1-0.2-0.1-0.3c0-0.1,0-0.2,0-0.2
			c0-0.1,0.1-0.1,0.2-0.2c0.3-0.2,0.6-0.4,0.9-0.5s0.7-0.2,1.1-0.2c0.6,0,1.1,0.2,1.5,0.5c0.4,0.3,0.6,0.7,0.6,1.3
			c0,0.4-0.1,0.7-0.2,1c-0.2,0.3-0.4,0.7-0.8,1.1l-1.6,1.7h2.4C29.6,65.4,29.8,65.5,29.8,65.8z"/>
		<path d="M31.2,65.6c-0.4-0.6-0.6-1.4-0.6-2.4c0-1.1,0.2-1.9,0.6-2.4c0.4-0.6,1-0.8,1.7-0.8c0.8,0,1.3,0.3,1.7,0.8
			c0.4,0.6,0.6,1.4,0.6,2.4c0,1.1-0.2,1.9-0.6,2.4c-0.4,0.6-1,0.8-1.7,0.8C32.1,66.4,31.6,66.1,31.2,65.6z M33.8,64.9
			c0.2-0.4,0.3-1,0.3-1.8c0-0.8-0.1-1.4-0.3-1.8c-0.2-0.4-0.5-0.6-0.9-0.6c-0.4,0-0.7,0.2-0.9,0.6s-0.3,1-0.3,1.8
			c0,0.8,0.1,1.4,0.3,1.8s0.5,0.6,0.9,0.6C33.3,65.5,33.6,65.3,33.8,64.9z"/>
		<path d="M36.6,65.6C36.2,65,36,64.2,36,63.1c0-1.1,0.2-1.9,0.6-2.4c0.4-0.6,1-0.8,1.7-0.8c0.8,0,1.3,0.3,1.7,0.8
			c0.4,0.6,0.6,1.4,0.6,2.4c0,1.1-0.2,1.9-0.6,2.4c-0.4,0.6-1,0.8-1.7,0.8C37.5,66.4,37,66.1,36.6,65.6z M39.2,64.9
			c0.2-0.4,0.3-1,0.3-1.8c0-0.8-0.1-1.4-0.3-1.8c-0.2-0.4-0.5-0.6-0.9-0.6c-0.4,0-0.7,0.2-0.9,0.6s-0.3,1-0.3,1.8
			c0,0.8,0.1,1.4,0.3,1.8s0.5,0.6,0.9,0.6C38.7,65.5,39,65.3,39.2,64.9z"/>
	</g>
	<g class="st2">
		<path d="M24.4,94.8c0,0.3-0.2,0.5-0.5,0.5h-3.4c-0.2,0-0.3,0-0.4-0.1c-0.1-0.1-0.1-0.2-0.1-0.3c0-0.2,0.1-0.3,0.2-0.5l2.1-2.2
			c0.3-0.3,0.4-0.5,0.6-0.8c0.1-0.2,0.2-0.5,0.2-0.7c0-0.3-0.1-0.5-0.2-0.6c-0.2-0.1-0.4-0.2-0.7-0.2c-0.2,0-0.5,0-0.7,0.1
			s-0.5,0.2-0.7,0.4c-0.1,0-0.1,0.1-0.2,0.1c-0.1,0-0.1,0-0.2,0c-0.1,0-0.2,0-0.3-0.1c-0.1-0.1-0.1-0.2-0.1-0.3c0-0.1,0-0.2,0-0.2
			c0-0.1,0.1-0.1,0.2-0.2c0.3-0.2,0.6-0.4,0.9-0.5s0.7-0.2,1.1-0.2c0.6,0,1.1,0.2,1.5,0.5c0.4,0.3,0.6,0.7,0.6,1.3
			c0,0.4-0.1,0.7-0.2,1c-0.2,0.3-0.4,0.7-0.8,1.1l-1.6,1.7h2.4C24.2,94.4,24.4,94.5,24.4,94.8z"/>
		<path d="M25.8,94.6c-0.4-0.6-0.6-1.4-0.6-2.4c0-1.1,0.2-1.9,0.6-2.4c0.4-0.6,1-0.8,1.7-0.8c0.8,0,1.3,0.3,1.7,0.8
			c0.4,0.6,0.6,1.4,0.6,2.4c0,1.1-0.2,1.9-0.6,2.4c-0.4,0.6-1,0.8-1.7,0.8C26.7,95.4,26.2,95.1,25.8,94.6z M28.4,93.9
			c0.2-0.4,0.3-1,0.3-1.8c0-0.8-0.1-1.4-0.3-1.8c-0.2-0.4-0.5-0.6-0.9-0.6c-0.4,0-0.7,0.2-0.9,0.6s-0.3,1-0.3,1.8
			c0,0.8,0.1,1.4,0.3,1.8s0.5,0.6,0.9,0.6C27.9,94.5,28.2,94.3,28.4,93.9z"/>
		<path d="M31.2,94.6c-0.4-0.6-0.6-1.4-0.6-2.4c0-1.1,0.2-1.9,0.6-2.4c0.4-0.6,1-0.8,1.7-0.8c0.8,0,1.3,0.3,1.7,0.8
			c0.4,0.6,0.6,1.4,0.6,2.4c0,1.1-0.2,1.9-0.6,2.4c-0.4,0.6-1,0.8-1.7,0.8C32.1,95.4,31.6,95.1,31.2,94.6z M33.8,93.9
			c0.2-0.4,0.3-1,0.3-1.8c0-0.8-0.1-1.4-0.3-1.8c-0.2-0.4-0.5-0.6-0.9-0.6c-0.4,0-0.7,0.2-0.9,0.6s-0.3,1-0.3,1.8
			c0,0.8,0.1,1.4,0.3,1.8s0.5,0.6,0.9,0.6C33.3,94.5,33.6,94.3,33.8,93.9z"/>
		<path d="M36.6,94.6C36.2,94,36,93.2,36,92.1c0-1.1,0.2-1.9,0.6-2.4c0.4-0.6,1-0.8,1.7-0.8c0.8,0,1.3,0.3,1.7,0.8
			c0.4,0.6,0.6,1.4,0.6,2.4c0,1.1-0.2,1.9-0.6,2.4c-0.4,0.6-1,0.8-1.7,0.8C37.5,95.4,37,95.1,36.6,94.6z M39.2,93.9
			c0.2-0.4,0.3-1,0.3-1.8c0-0.8-0.1-1.4-0.3-1.8c-0.2-0.4-0.5-0.6-0.9-0.6c-0.4,0-0.7,0.2-0.9,0.6s-0.3,1-0.3,1.8
			c0,0.8,0.1,1.4,0.3,1.8s0.5,0.6,0.9,0.6C38.7,94.5,39,94.3,39.2,93.9z"/>
	</g>
	<g class="st2">
		<path d="M24.4,125.8c0,0.3-0.2,0.5-0.5,0.5h-3c-0.4,0-0.5-0.2-0.5-0.5c0-0.3,0.2-0.5,0.5-0.5h0.9v-4.1l-0.9,0.5
			c-0.1,0-0.2,0.1-0.2,0.1c-0.1,0-0.2-0.1-0.3-0.2c-0.1-0.1-0.1-0.2-0.1-0.4c0-0.2,0.1-0.3,0.2-0.4l1.4-0.9c0.2-0.1,0.4-0.2,0.5-0.2
			c0.2,0,0.3,0.1,0.4,0.2c0.1,0.1,0.2,0.2,0.2,0.4v4.9h0.9C24.2,125.4,24.4,125.5,24.4,125.8z"/>
		<path d="M29.5,123.6c0.2,0.3,0.3,0.6,0.3,1c0,0.6-0.2,1-0.6,1.3c-0.4,0.3-1,0.5-1.7,0.5c-0.7,0-1.3-0.2-1.7-0.5
			c-0.4-0.3-0.6-0.8-0.6-1.3c0-0.4,0.1-0.7,0.3-1c0.2-0.3,0.5-0.5,0.9-0.6c-0.3-0.1-0.6-0.3-0.7-0.6c-0.2-0.3-0.3-0.6-0.3-0.9
			c0-0.5,0.2-0.9,0.6-1.3c0.4-0.3,0.9-0.5,1.6-0.5c0.7,0,1.2,0.2,1.6,0.5c0.4,0.3,0.6,0.7,0.6,1.3c0,0.3-0.1,0.7-0.3,0.9
			c-0.2,0.3-0.4,0.4-0.7,0.5C29.1,123.1,29.3,123.3,29.5,123.6z M28.8,124.5c0-0.6-0.4-1-1.3-1c-0.9,0-1.3,0.3-1.3,1
			c0,0.6,0.4,1,1.3,1C28.3,125.5,28.8,125.1,28.8,124.5z M26.3,121.7c0,0.3,0.1,0.5,0.3,0.7c0.2,0.2,0.5,0.2,0.8,0.2
			c0.4,0,0.7-0.1,0.8-0.2c0.2-0.2,0.3-0.4,0.3-0.7c0-0.6-0.4-0.9-1.1-0.9C26.7,120.8,26.3,121.1,26.3,121.7z"/>
		<path d="M31.2,125.6c-0.4-0.6-0.6-1.4-0.6-2.4c0-1.1,0.2-1.9,0.6-2.4c0.4-0.6,1-0.8,1.7-0.8c0.8,0,1.3,0.3,1.7,0.8
			c0.4,0.6,0.6,1.4,0.6,2.4c0,1.1-0.2,1.9-0.6,2.4c-0.4,0.6-1,0.8-1.7,0.8C32.1,126.4,31.6,126.1,31.2,125.6z M33.8,124.9
			c0.2-0.4,0.3-1,0.3-1.8c0-0.8-0.1-1.4-0.3-1.8c-0.2-0.4-0.5-0.6-0.9-0.6c-0.4,0-0.7,0.2-0.9,0.6s-0.3,1-0.3,1.8
			c0,0.8,0.1,1.4,0.3,1.8s0.5,0.6,0.9,0.6C33.3,125.5,33.6,125.3,33.8,124.9z"/>
		<path d="M36.6,125.6c-0.4-0.6-0.6-1.4-0.6-2.4c0-1.1,0.2-1.9,0.6-2.4c0.4-0.6,1-0.8,1.7-0.8c0.8,0,1.3,0.3,1.7,0.8
			c0.4,0.6,0.6,1.4,0.6,2.4c0,1.1-0.2,1.9-0.6,2.4c-0.4,0.6-1,0.8-1.7,0.8C37.5,126.4,36.9,126.1,36.6,125.6z M39.2,124.9
			c0.2-0.4,0.3-1,0.3-1.8c0-0.8-0.1-1.4-0.3-1.8c-0.2-0.4-0.5-0.6-0.9-0.6c-0.4,0-0.7,0.2-0.9,0.6s-0.3,1-0.3,1.8
			c0,0.8,0.1,1.4,0.3,1.8s0.5,0.6,0.9,0.6C38.7,125.5,39,125.3,39.2,124.9z"/>
	</g>
	<g class="st2">
		<path d="M24.4,154.8c0,0.3-0.2,0.5-0.5,0.5h-3c-0.4,0-0.5-0.2-0.5-0.5c0-0.3,0.2-0.5,0.5-0.5h0.9v-4.1l-0.9,0.5
			c-0.1,0-0.2,0.1-0.2,0.1c-0.1,0-0.2-0.1-0.3-0.2c-0.1-0.1-0.1-0.2-0.1-0.4c0-0.2,0.1-0.3,0.2-0.4l1.4-0.9c0.2-0.1,0.4-0.2,0.5-0.2
			c0.2,0,0.3,0.1,0.4,0.2c0.1,0.1,0.2,0.2,0.2,0.4v4.9h0.9C24.2,154.4,24.4,154.5,24.4,154.8z"/>
		<path d="M28.9,151.5c0.3,0.2,0.5,0.4,0.7,0.7c0.2,0.3,0.2,0.7,0.2,1.1c0,0.4-0.1,0.8-0.3,1.1s-0.4,0.6-0.8,0.8
			c-0.3,0.2-0.7,0.3-1.1,0.3c-0.8,0-1.4-0.3-1.9-0.8s-0.7-1.3-0.7-2.3c0-0.7,0.1-1.3,0.3-1.8c0.2-0.5,0.5-0.9,0.9-1.2
			c0.4-0.3,0.8-0.4,1.3-0.4c0.3,0,0.7,0.1,1,0.2c0.3,0.1,0.6,0.3,0.9,0.5c0.1,0.1,0.1,0.1,0.2,0.2c0,0.1,0,0.1,0,0.2
			c0,0.1,0,0.2-0.1,0.3c-0.1,0.1-0.2,0.1-0.3,0.1c-0.1,0-0.1,0-0.2,0c-0.1,0-0.1-0.1-0.2-0.1c-0.5-0.3-0.9-0.5-1.3-0.5
			c-0.4,0-0.8,0.2-1,0.6s-0.4,1-0.4,1.7c0.1-0.3,0.3-0.5,0.6-0.6c0.3-0.2,0.6-0.2,0.9-0.2C28.2,151.2,28.6,151.3,28.9,151.5z
			 M28.4,154.1c0.2-0.2,0.3-0.5,0.3-0.8s-0.1-0.6-0.3-0.8c-0.2-0.2-0.5-0.3-0.8-0.3c-0.3,0-0.6,0.1-0.8,0.3s-0.3,0.5-0.3,0.8
			c0,0.3,0.1,0.6,0.3,0.8s0.5,0.3,0.8,0.3C27.9,154.5,28.2,154.4,28.4,154.1z"/>
		<path d="M31.2,154.6c-0.4-0.6-0.6-1.4-0.6-2.4c0-1.1,0.2-1.9,0.6-2.4c0.4-0.6,1-0.8,1.7-0.8c0.8,0,1.3,0.3,1.7,0.8
			c0.4,0.6,0.6,1.4,0.6,2.4c0,1.1-0.2,1.9-0.6,2.4c-0.4,0.6-1,0.8-1.7,0.8C32.1,155.4,31.6,155.1,31.2,154.6z M33.8,153.9
			c0.2-0.4,0.3-1,0.3-1.8c0-0.8-0.1-1.4-0.3-1.8c-0.2-0.4-0.5-0.6-0.9-0.6c-0.4,0-0.7,0.2-0.9,0.6s-0.3,1-0.3,1.8
			c0,0.8,0.1,1.4,0.3,1.8s0.5,0.6,0.9,0.6C33.3,154.5,33.6,154.3,33.8,153.9z"/>
		<path d="M36.6,154.6c-0.4-0.6-0.6-1.4-0.6-2.4c0-1.1,0.2-1.9,0.6-2.4c0.4-0.6,1-0.8,1.7-0.8c0.8,0,1.3,0.3,1.7,0.8
			c0.4,0.6,0.6,1.4,0.6,2.4c0,1.1-0.2,1.9-0.6,2.4c-0.4,0.6-1,0.8-1.7,0.8C37.5,155.4,36.9,155.1,36.6,154.6z M39.2,153.9
			c0.2-0.4,0.3-1,0.3-1.8c0-0.8-0.1-1.4-0.3-1.8c-0.2-0.4-0.5-0.6-0.9-0.6c-0.4,0-0.7,0.2-0.9,0.6s-0.3,1-0.3,1.8
			c0,0.8,0.1,1.4,0.3,1.8s0.5,0.6,0.9,0.6C38.7,154.5,39,154.3,39.2,153.9z"/>
	</g>
	<g class="st2">
		<path d="M24.4,182.8c0,0.3-0.2,0.5-0.5,0.5h-3c-0.4,0-0.5-0.2-0.5-0.5c0-0.3,0.2-0.5,0.5-0.5h0.9v-4.1l-0.9,0.5
			c-0.1,0-0.2,0.1-0.2,0.1c-0.1,0-0.2-0.1-0.3-0.2c-0.1-0.1-0.1-0.2-0.1-0.4c0-0.2,0.1-0.3,0.2-0.4l1.4-0.9c0.2-0.1,0.4-0.2,0.5-0.2
			c0.2,0,0.3,0.1,0.4,0.2c0.1,0.1,0.2,0.2,0.2,0.4v4.9h0.9C24.2,182.4,24.4,182.5,24.4,182.8z"/>
		<path d="M29.9,181.3c0.1,0.1,0.1,0.2,0.1,0.3c0,0.3-0.2,0.5-0.5,0.5H29v0.7c0,0.2-0.1,0.3-0.2,0.4c-0.1,0.1-0.2,0.2-0.4,0.2
			c-0.2,0-0.3-0.1-0.4-0.2c-0.1-0.1-0.2-0.2-0.2-0.4v-0.7h-2.4c-0.2,0-0.3,0-0.4-0.1c-0.1-0.1-0.1-0.2-0.1-0.3c0-0.1,0-0.3,0.1-0.4
			l2.8-4c0.1-0.1,0.1-0.1,0.2-0.2c0.1,0,0.2-0.1,0.3-0.1c0.2,0,0.3,0.1,0.4,0.2c0.1,0.1,0.2,0.2,0.2,0.4v3.7h0.5
			C29.7,181.2,29.8,181.2,29.9,181.3z M27.9,181.2v-2.4l-1.7,2.4H27.9z"/>
		<path d="M31.2,182.6c-0.4-0.6-0.6-1.4-0.6-2.4c0-1.1,0.2-1.9,0.6-2.4c0.4-0.6,1-0.8,1.7-0.8c0.8,0,1.3,0.3,1.7,0.8
			c0.4,0.6,0.6,1.4,0.6,2.4c0,1.1-0.2,1.9-0.6,2.4c-0.4,0.6-1,0.8-1.7,0.8C32.1,183.4,31.6,183.1,31.2,182.6z M33.8,181.9
			c0.2-0.4,0.3-1,0.3-1.8c0-0.8-0.1-1.4-0.3-1.8c-0.2-0.4-0.5-0.6-0.9-0.6c-0.4,0-0.7,0.2-0.9,0.6s-0.3,1-0.3,1.8
			c0,0.8,0.1,1.4,0.3,1.8s0.5,0.6,0.9,0.6C33.3,182.5,33.6,182.3,33.8,181.9z"/>
		<path d="M36.6,182.6c-0.4-0.6-0.6-1.4-0.6-2.4c0-1.1,0.2-1.9,0.6-2.4c0.4-0.6,1-0.8,1.7-0.8c0.8,0,1.3,0.3,1.7,0.8
			c0.4,0.6,0.6,1.4,0.6,2.4c0,1.1-0.2,1.9-0.6,2.4c-0.4,0.6-1,0.8-1.7,0.8C37.5,183.4,36.9,183.1,36.6,182.6z M39.2,181.9
			c0.2-0.4,0.3-1,0.3-1.8c0-0.8-0.1-1.4-0.3-1.8c-0.2-0.4-0.5-0.6-0.9-0.6c-0.4,0-0.7,0.2-0.9,0.6s-0.3,1-0.3,1.8
			c0,0.8,0.1,1.4,0.3,1.8s0.5,0.6,0.9,0.6C38.7,182.5,39,182.3,39.2,181.9z"/>
	</g>
	<g class="st2">
		<path d="M24.4,212.8c0,0.3-0.2,0.5-0.5,0.5h-3c-0.4,0-0.5-0.2-0.5-0.5c0-0.3,0.2-0.5,0.5-0.5h0.9v-4.1l-0.9,0.5
			c-0.1,0-0.2,0.1-0.2,0.1c-0.1,0-0.2-0.1-0.3-0.2c-0.1-0.1-0.1-0.2-0.1-0.4c0-0.2,0.1-0.3,0.2-0.4l1.4-0.9c0.2-0.1,0.4-0.2,0.5-0.2
			c0.2,0,0.3,0.1,0.4,0.2c0.1,0.1,0.2,0.2,0.2,0.4v4.9h0.9C24.2,212.4,24.4,212.5,24.4,212.8z"/>
		<path d="M29.8,212.8c0,0.3-0.2,0.5-0.5,0.5h-3.4c-0.2,0-0.3,0-0.4-0.1c-0.1-0.1-0.1-0.2-0.1-0.3c0-0.2,0.1-0.3,0.2-0.5l2.1-2.2
			c0.3-0.3,0.4-0.5,0.6-0.8c0.1-0.2,0.2-0.5,0.2-0.7c0-0.3-0.1-0.5-0.2-0.6c-0.2-0.1-0.4-0.2-0.7-0.2c-0.2,0-0.5,0-0.7,0.1
			s-0.5,0.2-0.7,0.4c-0.1,0-0.1,0.1-0.2,0.1c-0.1,0-0.1,0-0.2,0c-0.1,0-0.2,0-0.3-0.1c-0.1-0.1-0.1-0.2-0.1-0.3c0-0.1,0-0.2,0-0.2
			c0-0.1,0.1-0.1,0.2-0.2c0.3-0.2,0.6-0.4,0.9-0.5s0.7-0.2,1.1-0.2c0.6,0,1.1,0.2,1.5,0.5c0.4,0.3,0.6,0.7,0.6,1.3
			c0,0.4-0.1,0.7-0.2,1c-0.2,0.3-0.4,0.7-0.8,1.1l-1.6,1.7h2.4C29.6,212.4,29.8,212.5,29.8,212.8z"/>
		<path d="M31.2,212.6c-0.4-0.6-0.6-1.4-0.6-2.4c0-1.1,0.2-1.9,0.6-2.4c0.4-0.6,1-0.8,1.7-0.8c0.8,0,1.3,0.3,1.7,0.8
			c0.4,0.6,0.6,1.4,0.6,2.4c0,1.1-0.2,1.9-0.6,2.4c-0.4,0.6-1,0.8-1.7,0.8C32.1,213.4,31.6,213.1,31.2,212.6z M33.8,211.9
			c0.2-0.4,0.3-1,0.3-1.8c0-0.8-0.1-1.4-0.3-1.8c-0.2-0.4-0.5-0.6-0.9-0.6c-0.4,0-0.7,0.2-0.9,0.6s-0.3,1-0.3,1.8
			c0,0.8,0.1,1.4,0.3,1.8s0.5,0.6,0.9,0.6C33.3,212.5,33.6,212.3,33.8,211.9z"/>
		<path d="M36.6,212.6c-0.4-0.6-0.6-1.4-0.6-2.4c0-1.1,0.2-1.9,0.6-2.4c0.4-0.6,1-0.8,1.7-0.8c0.8,0,1.3,0.3,1.7,0.8
			c0.4,0.6,0.6,1.4,0.6,2.4c0,1.1-0.2,1.9-0.6,2.4c-0.4,0.6-1,0.8-1.7,0.8C37.5,213.4,37,213.1,36.6,212.6z M39.2,211.9
			c0.2-0.4,0.3-1,0.3-1.8c0-0.8-0.1-1.4-0.3-1.8c-0.2-0.4-0.5-0.6-0.9-0.6c-0.4,0-0.7,0.2-0.9,0.6s-0.3,1-0.3,1.8
			c0,0.8,0.1,1.4,0.3,1.8s0.5,0.6,0.9,0.6C38.7,212.5,39,212.3,39.2,211.9z"/>
	</g>
	<line id="Line_1" class="st3" x1="52.1" y1="63.9" x2="356.1" y2="63.9"/>
	<line id="Line_2" class="st3" x1="52.1" y1="93.2" x2="356.1" y2="93.2"/>
	<line id="Line_3" class="st3" x1="52.1" y1="122.5" x2="356.1" y2="122.5"/>
	<line id="Line_4" class="st3" x1="52.1" y1="151.7" x2="356.1" y2="151.7"/>
	<line id="Line_5" class="st3" x1="52.1" y1="181" x2="356.1" y2="181"/>
	<line id="Line_8" class="st3" x1="52.1" y1="210.3" x2="356.1" y2="210.3"/>
	<g class="st2">
		<path d="M52.2,224.9c0-0.1,0-0.3,0.1-0.3c0.1-0.1,0.2-0.1,0.4-0.1l0.3,0c0.2,0,0.4-0.1,0.6-0.2c0.1-0.1,0.2-0.4,0.2-0.7v-4
			c0-0.2,0.1-0.3,0.2-0.4c0.1-0.1,0.2-0.2,0.4-0.2c0.2,0,0.3,0.1,0.4,0.2c0.1,0.1,0.2,0.2,0.2,0.4v4c0,1.1-0.6,1.7-1.7,1.8l-0.3,0
			C52.5,225.4,52.2,225.2,52.2,224.9z"/>
		<path d="M59.5,221.3c0.3,0.3,0.4,0.8,0.4,1.4v2.2c0,0.2,0,0.3-0.1,0.4c-0.1,0.1-0.2,0.1-0.4,0.1c-0.2,0-0.3,0-0.4-0.1
			c-0.1-0.1-0.1-0.2-0.1-0.4v-0.2c-0.1,0.2-0.3,0.4-0.5,0.5c-0.2,0.1-0.5,0.2-0.8,0.2c-0.3,0-0.6-0.1-0.8-0.2
			c-0.2-0.1-0.4-0.3-0.6-0.5c-0.1-0.2-0.2-0.4-0.2-0.7c0-0.3,0.1-0.6,0.2-0.8c0.2-0.2,0.4-0.3,0.8-0.4s0.9-0.1,1.5-0.1h0.2v-0.2
			c0-0.3-0.1-0.5-0.2-0.6c-0.1-0.1-0.3-0.2-0.6-0.2c-0.2,0-0.4,0-0.5,0.1c-0.2,0.1-0.4,0.1-0.6,0.2c-0.2,0.1-0.3,0.1-0.3,0.1
			c-0.1,0-0.2,0-0.3-0.1c-0.1-0.1-0.1-0.2-0.1-0.3c0-0.1,0-0.2,0.1-0.3c0.1-0.1,0.1-0.1,0.3-0.2c0.2-0.1,0.5-0.2,0.8-0.3
			c0.3-0.1,0.6-0.1,0.9-0.1C58.7,220.8,59.2,220.9,59.5,221.3z M58.5,224.3c0.2-0.2,0.3-0.5,0.3-0.8v-0.2h-0.2c-0.4,0-0.7,0-0.9,0.1
			c-0.2,0-0.4,0.1-0.5,0.2c-0.1,0.1-0.1,0.2-0.1,0.4c0,0.2,0.1,0.3,0.2,0.5c0.1,0.1,0.3,0.2,0.5,0.2
			C58.1,224.6,58.4,224.5,58.5,224.3z"/>
		<path d="M64.8,221.2c0.3,0.3,0.4,0.8,0.4,1.4v2.2c0,0.2,0,0.3-0.1,0.4s-0.2,0.1-0.4,0.1s-0.3,0-0.4-0.1S64,225,64,224.8v-2.2
			c0-0.3-0.1-0.6-0.2-0.7c-0.1-0.2-0.3-0.2-0.6-0.2c-0.3,0-0.6,0.1-0.8,0.3c-0.2,0.2-0.3,0.5-0.3,0.8v2c0,0.2-0.1,0.3-0.2,0.4
			s-0.2,0.1-0.4,0.1c-0.2,0-0.3,0-0.4-0.1S61,225,61,224.8v-3.5c0-0.2,0.1-0.3,0.2-0.4c0.1-0.1,0.2-0.1,0.4-0.1c0.2,0,0.3,0,0.4,0.1
			c0.1,0.1,0.1,0.2,0.1,0.4v0.2c0.1-0.2,0.4-0.4,0.6-0.6c0.3-0.1,0.5-0.2,0.9-0.2C64.1,220.8,64.5,220.9,64.8,221.2z"/>
	</g>
	<g class="st2">
		<path d="M79.2,225.2c-0.1-0.1-0.2-0.2-0.2-0.4v-5.3c0-0.2,0-0.3,0.1-0.4c0.1-0.1,0.2-0.1,0.4-0.1h3.2c0.4,0,0.5,0.2,0.5,0.5
			c0,0.3-0.2,0.5-0.5,0.5h-2.6v1.7h2.4c0.4,0,0.5,0.2,0.5,0.5c0,0.3-0.2,0.5-0.5,0.5h-2.4v2.2c0,0.2-0.1,0.3-0.2,0.4
			c-0.1,0.1-0.2,0.2-0.4,0.2C79.5,225.4,79.3,225.3,79.2,225.2z"/>
		<path d="M87.7,224.2c0.1,0.1,0.1,0.2,0.1,0.3c0,0.2-0.1,0.3-0.3,0.5c-0.2,0.1-0.4,0.2-0.7,0.3c-0.3,0.1-0.5,0.1-0.7,0.1
			c-0.7,0-1.3-0.2-1.7-0.6s-0.6-1-0.6-1.7c0-0.5,0.1-0.8,0.3-1.2c0.2-0.3,0.4-0.6,0.8-0.8c0.3-0.2,0.7-0.3,1.1-0.3
			c0.4,0,0.7,0.1,1,0.3s0.5,0.4,0.7,0.7c0.2,0.3,0.2,0.7,0.2,1.1c0,0.3-0.1,0.4-0.3,0.4h-2.7c0,0.4,0.2,0.7,0.4,0.9
			c0.2,0.2,0.5,0.3,0.9,0.3c0.2,0,0.4,0,0.5-0.1c0.1,0,0.3-0.1,0.5-0.2c0.2-0.1,0.3-0.1,0.4-0.1C87.5,224.1,87.6,224.1,87.7,224.2z
			 M85.2,221.9c-0.2,0.2-0.3,0.5-0.3,0.8h2c0-0.4-0.1-0.6-0.3-0.8c-0.2-0.2-0.4-0.3-0.7-0.3C85.6,221.6,85.3,221.7,85.2,221.9z"/>
		<path d="M92.3,221.1c0.3,0.2,0.5,0.5,0.7,0.8c0.2,0.3,0.2,0.7,0.2,1.2s-0.1,0.9-0.2,1.2c-0.2,0.4-0.4,0.6-0.7,0.8s-0.6,0.3-1,0.3
			c-0.3,0-0.6-0.1-0.9-0.2c-0.2-0.1-0.4-0.3-0.6-0.6v0.2c0,0.2-0.1,0.3-0.2,0.4c-0.1,0.1-0.2,0.1-0.4,0.1s-0.3,0-0.4-0.1
			c-0.1-0.1-0.1-0.2-0.1-0.4v-5.4c0-0.2,0.1-0.3,0.2-0.4c0.1-0.1,0.2-0.1,0.4-0.1s0.3,0,0.4,0.1s0.2,0.2,0.2,0.4v2.1
			c0.1-0.2,0.3-0.4,0.6-0.6s0.5-0.2,0.8-0.2C91.7,220.8,92,220.9,92.3,221.1z M91.8,224.1c0.2-0.3,0.3-0.6,0.3-1.1
			c0-0.5-0.1-0.8-0.3-1c-0.2-0.2-0.5-0.4-0.8-0.4s-0.6,0.1-0.8,0.4s-0.3,0.6-0.3,1s0.1,0.8,0.3,1.1s0.5,0.4,0.8,0.4
			C91.3,224.5,91.6,224.4,91.8,224.1z"/>
	</g>
	<g class="st2">
		<path d="M116.1,219.1c0.1,0.1,0.2,0.2,0.2,0.4v5.3c0,0.2,0,0.3-0.1,0.4s-0.2,0.1-0.4,0.1c-0.2,0-0.3,0-0.4-0.1
			c-0.1-0.1-0.1-0.2-0.1-0.4v-3.7l-1.5,2.9c-0.1,0.1-0.1,0.2-0.2,0.3c-0.1,0.1-0.2,0.1-0.3,0.1c-0.1,0-0.2,0-0.3-0.1
			c-0.1-0.1-0.2-0.2-0.2-0.3l-1.5-2.9v3.7c0,0.2,0,0.3-0.1,0.4c-0.1,0.1-0.2,0.1-0.4,0.1c-0.2,0-0.3,0-0.4-0.1s-0.1-0.2-0.1-0.4
			v-5.3c0-0.2,0-0.3,0.1-0.4c0.1-0.1,0.2-0.2,0.4-0.2c0.2,0,0.4,0.1,0.5,0.4l2,3.8l2-3.8c0.1-0.3,0.3-0.4,0.5-0.4
			C115.9,218.9,116,219,116.1,219.1z"/>
		<path d="M120.4,220.9c0.1,0.1,0.1,0.2,0.1,0.4c0,0.2,0,0.3-0.1,0.4c-0.1,0.1-0.2,0.1-0.4,0.2l-0.3,0c-0.4,0-0.6,0.2-0.8,0.4
			s-0.2,0.5-0.2,0.8v1.9c0,0.2-0.1,0.3-0.2,0.4c-0.1,0.1-0.2,0.1-0.4,0.1s-0.3,0-0.4-0.1c-0.1-0.1-0.2-0.2-0.2-0.4v-3.5
			c0-0.2,0.1-0.3,0.2-0.4c0.1-0.1,0.2-0.1,0.4-0.1c0.2,0,0.3,0,0.4,0.1c0.1,0.1,0.1,0.2,0.1,0.4v0.4c0.1-0.3,0.3-0.5,0.5-0.6
			c0.2-0.1,0.5-0.2,0.8-0.2l0.1,0C120.1,220.8,120.3,220.8,120.4,220.9z"/>
		<path d="M124.1,224.9c0,0.1-0.1,0.3-0.2,0.3c-0.1,0.1-0.3,0.1-0.5,0.1l-0.2,0c-1-0.1-1.5-0.6-1.5-1.6v-2h-0.5
			c-0.2,0-0.3,0-0.4-0.1s-0.1-0.2-0.1-0.3c0-0.1,0-0.2,0.1-0.3s0.2-0.1,0.4-0.1h0.5v-0.8c0-0.2,0.1-0.3,0.2-0.4
			c0.1-0.1,0.2-0.1,0.4-0.1c0.2,0,0.3,0,0.4,0.1c0.1,0.1,0.2,0.2,0.2,0.4v0.8h0.8c0.2,0,0.3,0,0.4,0.1s0.1,0.2,0.1,0.3
			c0,0.1,0,0.2-0.1,0.3s-0.2,0.1-0.4,0.1h-0.8v2c0,0.4,0.2,0.7,0.6,0.7l0.2,0C124,224.5,124.1,224.7,124.1,224.9z"/>
	</g>
	<g class="st2">
		<path d="M143.9,224.8c0,0.1-0.1,0.3-0.2,0.4c-0.1,0.1-0.2,0.1-0.4,0.1c-0.1,0-0.2,0-0.3-0.1c-0.1-0.1-0.1-0.1-0.2-0.2l-0.5-1.2
			h-3.2l-0.5,1.2c0,0.1-0.1,0.2-0.2,0.2c-0.1,0.1-0.2,0.1-0.3,0.1c-0.1,0-0.3,0-0.4-0.1c-0.1-0.1-0.2-0.2-0.2-0.4
			c0-0.1,0-0.2,0.1-0.2l2.5-5.3c0.1-0.1,0.1-0.2,0.2-0.3c0.1-0.1,0.2-0.1,0.4-0.1s0.2,0,0.4,0.1c0.1,0.1,0.2,0.2,0.2,0.3l2.5,5.3
			C143.8,224.7,143.9,224.8,143.9,224.8z M141.9,222.9l-1.2-2.7l-1.2,2.7H141.9z"/>
		<path d="M148.2,221.1c0.3,0.2,0.5,0.5,0.7,0.8c0.2,0.4,0.2,0.8,0.2,1.2s-0.1,0.9-0.2,1.2s-0.4,0.6-0.7,0.8c-0.3,0.2-0.6,0.3-1,0.3
			c-0.3,0-0.6-0.1-0.8-0.2s-0.4-0.3-0.6-0.5v1.8c0,0.2-0.1,0.3-0.2,0.4s-0.2,0.1-0.4,0.1s-0.3,0-0.4-0.1c-0.1-0.1-0.2-0.2-0.2-0.4
			v-5.1c0-0.2,0-0.3,0.1-0.4c0.1-0.1,0.2-0.1,0.4-0.1s0.3,0,0.4,0.1c0.1,0.1,0.2,0.2,0.2,0.4v0.2c0.1-0.2,0.3-0.4,0.6-0.6
			c0.2-0.1,0.5-0.2,0.9-0.2C147.5,220.8,147.9,220.9,148.2,221.1z M147.7,224.1c0.2-0.2,0.3-0.6,0.3-1c0-0.5-0.1-0.8-0.3-1.1
			c-0.2-0.3-0.5-0.4-0.8-0.4c-0.4,0-0.6,0.1-0.8,0.4s-0.3,0.6-0.3,1.1c0,0.5,0.1,0.8,0.3,1s0.5,0.4,0.8,0.4
			C147.2,224.5,147.5,224.4,147.7,224.1z"/>
		<path d="M152.9,220.9c0.1,0.1,0.1,0.2,0.1,0.4c0,0.2,0,0.3-0.1,0.4c-0.1,0.1-0.2,0.1-0.4,0.2l-0.3,0c-0.4,0-0.6,0.2-0.8,0.4
			s-0.2,0.5-0.2,0.8v1.9c0,0.2-0.1,0.3-0.2,0.4c-0.1,0.1-0.2,0.1-0.4,0.1s-0.3,0-0.4-0.1c-0.1-0.1-0.2-0.2-0.2-0.4v-3.5
			c0-0.2,0.1-0.3,0.2-0.4c0.1-0.1,0.2-0.1,0.4-0.1c0.2,0,0.3,0,0.4,0.1c0.1,0.1,0.1,0.2,0.1,0.4v0.4c0.1-0.3,0.3-0.5,0.5-0.6
			c0.2-0.1,0.5-0.2,0.8-0.2l0.1,0C152.7,220.8,152.8,220.8,152.9,220.9z"/>
	</g>
	<g class="st2">
		<path d="M166.2,224.9c0-0.1,0-0.3,0.1-0.3c0.1-0.1,0.2-0.1,0.4-0.1l0.3,0c0.2,0,0.4-0.1,0.6-0.2c0.1-0.1,0.2-0.4,0.2-0.7v-4
			c0-0.2,0.1-0.3,0.2-0.4c0.1-0.1,0.2-0.2,0.4-0.2c0.2,0,0.3,0.1,0.4,0.2c0.1,0.1,0.2,0.2,0.2,0.4v4c0,1.1-0.6,1.7-1.7,1.8l-0.3,0
			C166.5,225.4,166.2,225.2,166.2,224.9z"/>
		<path d="M174.1,221c0.1,0.1,0.2,0.2,0.2,0.4v3.5c0,0.2-0.1,0.3-0.2,0.4s-0.2,0.1-0.4,0.1c-0.2,0-0.3,0-0.4-0.1
			c-0.1-0.1-0.1-0.2-0.1-0.4v-0.2c-0.1,0.2-0.3,0.4-0.6,0.6c-0.2,0.1-0.5,0.2-0.8,0.2c-1.1,0-1.6-0.6-1.6-1.8v-2.2
			c0-0.2,0.1-0.3,0.2-0.4c0.1-0.1,0.2-0.1,0.4-0.1c0.2,0,0.3,0,0.4,0.1c0.1,0.1,0.2,0.2,0.2,0.4v2.2c0,0.3,0.1,0.5,0.2,0.7
			s0.3,0.2,0.6,0.2c0.3,0,0.6-0.1,0.8-0.3c0.2-0.2,0.3-0.5,0.3-0.8v-2c0-0.2,0.1-0.3,0.2-0.4c0.1-0.1,0.2-0.1,0.4-0.1
			C173.8,220.8,174,220.9,174.1,221z"/>
		<path d="M179.1,221.2c0.3,0.3,0.4,0.8,0.4,1.4v2.2c0,0.2,0,0.3-0.1,0.4s-0.2,0.1-0.4,0.1s-0.3,0-0.4-0.1s-0.2-0.2-0.2-0.4v-2.2
			c0-0.3-0.1-0.6-0.2-0.7c-0.1-0.2-0.3-0.2-0.6-0.2c-0.3,0-0.6,0.1-0.8,0.3c-0.2,0.2-0.3,0.5-0.3,0.8v2c0,0.2-0.1,0.3-0.2,0.4
			s-0.2,0.1-0.4,0.1c-0.2,0-0.3,0-0.4-0.1s-0.1-0.2-0.1-0.4v-3.5c0-0.2,0.1-0.3,0.2-0.4c0.1-0.1,0.2-0.1,0.4-0.1
			c0.2,0,0.3,0,0.4,0.1c0.1,0.1,0.1,0.2,0.1,0.4v0.2c0.1-0.2,0.4-0.4,0.6-0.6c0.3-0.1,0.5-0.2,0.9-0.2
			C178.5,220.8,178.9,220.9,179.1,221.2z"/>
	</g>
	<g class="st2">
		<path d="M193.2,224.9c0-0.1,0-0.3,0.1-0.3c0.1-0.1,0.2-0.1,0.4-0.1l0.3,0c0.2,0,0.4-0.1,0.6-0.2c0.1-0.1,0.2-0.4,0.2-0.7v-4
			c0-0.2,0.1-0.3,0.2-0.4c0.1-0.1,0.2-0.2,0.4-0.2c0.2,0,0.3,0.1,0.4,0.2c0.1,0.1,0.2,0.2,0.2,0.4v4c0,1.1-0.6,1.7-1.7,1.8l-0.3,0
			C193.5,225.4,193.2,225.2,193.2,224.9z"/>
		<path d="M201.1,221c0.1,0.1,0.2,0.2,0.2,0.4v3.5c0,0.2-0.1,0.3-0.2,0.4c-0.1,0.1-0.2,0.1-0.4,0.1c-0.2,0-0.3,0-0.4-0.1
			c-0.1-0.1-0.1-0.2-0.1-0.4v-0.2c-0.1,0.2-0.3,0.4-0.6,0.6c-0.2,0.1-0.5,0.2-0.8,0.2c-1.1,0-1.6-0.6-1.6-1.8v-2.2
			c0-0.2,0.1-0.3,0.2-0.4c0.1-0.1,0.2-0.1,0.4-0.1c0.2,0,0.3,0,0.4,0.1c0.1,0.1,0.2,0.2,0.2,0.4v2.2c0,0.3,0.1,0.5,0.2,0.7
			s0.3,0.2,0.6,0.2c0.3,0,0.6-0.1,0.8-0.3s0.3-0.5,0.3-0.8v-2c0-0.2,0.1-0.3,0.2-0.4c0.1-0.1,0.2-0.1,0.4-0.1
			C200.8,220.8,201,220.9,201.1,221z"/>
		<path d="M202.5,225.2c-0.1-0.1-0.2-0.2-0.2-0.4v-5.4c0-0.2,0.1-0.3,0.2-0.4c0.1-0.1,0.2-0.1,0.4-0.1s0.3,0,0.4,0.1
			c0.1,0.1,0.2,0.2,0.2,0.4v5.4c0,0.2-0.1,0.3-0.2,0.4c-0.1,0.1-0.2,0.1-0.4,0.1S202.7,225.3,202.5,225.2z"/>
	</g>
	<g class="st2">
		<path d="M222.9,224.8c0,0.1-0.1,0.3-0.2,0.4c-0.1,0.1-0.2,0.1-0.4,0.1c-0.1,0-0.2,0-0.3-0.1c-0.1-0.1-0.1-0.1-0.2-0.2l-0.5-1.2
			h-3.2l-0.5,1.2c0,0.1-0.1,0.2-0.2,0.2c-0.1,0.1-0.2,0.1-0.3,0.1c-0.1,0-0.3,0-0.4-0.1c-0.1-0.1-0.2-0.2-0.2-0.4
			c0-0.1,0-0.2,0.1-0.2l2.5-5.3c0.1-0.1,0.1-0.2,0.2-0.3c0.1-0.1,0.2-0.1,0.4-0.1s0.2,0,0.4,0.1c0.1,0.1,0.2,0.2,0.2,0.3l2.5,5.3
			C222.8,224.7,222.9,224.8,222.9,224.8z M220.9,222.9l-1.2-2.7l-1.2,2.7H220.9z"/>
		<path d="M227.5,221c0.1,0.1,0.2,0.2,0.2,0.4v3.5c0,0.2-0.1,0.3-0.2,0.4c-0.1,0.1-0.2,0.1-0.4,0.1c-0.2,0-0.3,0-0.4-0.1
			c-0.1-0.1-0.1-0.2-0.1-0.4v-0.2c-0.1,0.2-0.3,0.4-0.6,0.6c-0.2,0.1-0.5,0.2-0.8,0.2c-1.1,0-1.6-0.6-1.6-1.8v-2.2
			c0-0.2,0.1-0.3,0.2-0.4c0.1-0.1,0.2-0.1,0.4-0.1c0.2,0,0.3,0,0.4,0.1c0.1,0.1,0.2,0.2,0.2,0.4v2.2c0,0.3,0.1,0.5,0.2,0.7
			s0.3,0.2,0.6,0.2c0.3,0,0.6-0.1,0.8-0.3s0.3-0.5,0.3-0.8v-2c0-0.2,0.1-0.3,0.2-0.4c0.1-0.1,0.2-0.1,0.4-0.1
			C227.3,220.8,227.4,220.9,227.5,221z"/>
		<path d="M233,221c0.1,0.1,0.2,0.2,0.2,0.4v3.6c0,0.7-0.2,1.2-0.6,1.6c-0.4,0.4-1,0.5-1.7,0.5c-0.7,0-1.2-0.1-1.6-0.4
			c-0.2-0.1-0.3-0.3-0.3-0.5c0-0.1,0-0.2,0.1-0.3c0.1-0.1,0.1-0.1,0.2-0.1c0.1,0,0.1,0,0.2,0c0.1,0,0.2,0.1,0.2,0.1
			c0.2,0.1,0.4,0.2,0.6,0.2s0.4,0.1,0.6,0.1c0.8,0,1.2-0.4,1.2-1.2v-0.6c-0.1,0.2-0.3,0.4-0.6,0.6c-0.3,0.1-0.5,0.2-0.9,0.2
			c-0.4,0-0.7-0.1-1-0.3s-0.5-0.4-0.7-0.8c-0.2-0.3-0.3-0.7-0.3-1.1c0-0.4,0.1-0.8,0.2-1.1s0.4-0.6,0.7-0.8s0.6-0.3,1-0.3
			c0.3,0,0.6,0.1,0.9,0.2c0.3,0.1,0.4,0.3,0.6,0.6v-0.2c0-0.2,0.1-0.3,0.2-0.4c0.1-0.1,0.2-0.1,0.4-0.1S232.9,220.9,233,221z
			 M231.7,224c0.2-0.2,0.3-0.6,0.3-1c0-0.4-0.1-0.7-0.3-1c-0.2-0.2-0.5-0.4-0.8-0.4c-0.4,0-0.6,0.1-0.8,0.4c-0.2,0.2-0.3,0.6-0.3,1
			c0,0.4,0.1,0.7,0.3,1c0.2,0.2,0.5,0.4,0.8,0.4C231.2,224.3,231.5,224.2,231.7,224z"/>
	</g>
	<g class="st2">
		<path d="M248.9,225.2c-0.4-0.1-0.7-0.3-1-0.5c-0.1-0.1-0.2-0.2-0.2-0.4c0-0.1,0-0.2,0.1-0.3s0.2-0.1,0.3-0.1c0.1,0,0.2,0,0.4,0.1
			c0.3,0.2,0.5,0.3,0.8,0.4s0.6,0.1,0.9,0.1c0.4,0,0.8-0.1,1-0.2c0.2-0.2,0.4-0.4,0.4-0.7c0-0.2-0.1-0.4-0.3-0.5s-0.6-0.2-1.1-0.4
			c-0.5-0.1-1-0.2-1.3-0.4c-0.3-0.1-0.6-0.3-0.7-0.6c-0.2-0.2-0.3-0.5-0.3-0.9c0-0.4,0.1-0.7,0.3-1s0.5-0.5,0.9-0.7s0.8-0.2,1.3-0.2
			c0.9,0,1.6,0.2,2.1,0.7c0.1,0.1,0.1,0.1,0.2,0.2c0,0.1,0,0.1,0,0.2c0,0.1,0,0.2-0.1,0.3c-0.1,0.1-0.2,0.1-0.3,0.1
			c-0.1,0-0.1,0-0.2,0c-0.1,0-0.1-0.1-0.2-0.1c-0.2-0.2-0.5-0.3-0.7-0.4c-0.2-0.1-0.5-0.1-0.9-0.1c-0.4,0-0.7,0.1-1,0.2
			c-0.2,0.2-0.4,0.4-0.4,0.7c0,0.2,0.1,0.4,0.3,0.6s0.6,0.3,1.1,0.4c0.5,0.1,1,0.3,1.3,0.4c0.3,0.1,0.6,0.3,0.8,0.6
			c0.2,0.2,0.3,0.5,0.3,0.9c0,0.4-0.1,0.7-0.3,1s-0.5,0.5-0.9,0.7c-0.4,0.2-0.8,0.2-1.3,0.2C249.8,225.4,249.4,225.3,248.9,225.2z"
			/>
		<path d="M257.4,224.2c0.1,0.1,0.1,0.2,0.1,0.3c0,0.2-0.1,0.3-0.3,0.5c-0.2,0.1-0.4,0.2-0.7,0.3c-0.3,0.1-0.5,0.1-0.7,0.1
			c-0.7,0-1.3-0.2-1.7-0.6s-0.6-1-0.6-1.7c0-0.5,0.1-0.8,0.3-1.2c0.2-0.3,0.4-0.6,0.8-0.8c0.3-0.2,0.7-0.3,1.1-0.3
			c0.4,0,0.7,0.1,1,0.3s0.5,0.4,0.7,0.7c0.2,0.3,0.2,0.7,0.2,1.1c0,0.3-0.1,0.4-0.3,0.4h-2.7c0,0.4,0.2,0.7,0.4,0.9
			c0.2,0.2,0.5,0.3,0.9,0.3c0.2,0,0.4,0,0.5-0.1c0.1,0,0.3-0.1,0.5-0.2c0.2-0.1,0.3-0.1,0.4-0.1
			C257.3,224.1,257.4,224.1,257.4,224.2z M254.9,221.9c-0.2,0.2-0.3,0.5-0.3,0.8h2c0-0.4-0.1-0.6-0.3-0.8c-0.2-0.2-0.4-0.3-0.7-0.3
			C255.3,221.6,255.1,221.7,254.9,221.9z"/>
		<path d="M262,221.1c0.3,0.2,0.5,0.5,0.7,0.8c0.2,0.4,0.2,0.8,0.2,1.2s-0.1,0.9-0.2,1.2s-0.4,0.6-0.7,0.8c-0.3,0.2-0.6,0.3-1,0.3
			c-0.3,0-0.6-0.1-0.8-0.2s-0.4-0.3-0.6-0.5v1.8c0,0.2-0.1,0.3-0.2,0.4c-0.1,0.1-0.2,0.1-0.4,0.1s-0.3,0-0.4-0.1
			c-0.1-0.1-0.2-0.2-0.2-0.4v-5.1c0-0.2,0-0.3,0.1-0.4c0.1-0.1,0.2-0.1,0.4-0.1s0.3,0,0.4,0.1c0.1,0.1,0.2,0.2,0.2,0.4v0.2
			c0.1-0.2,0.3-0.4,0.6-0.6c0.2-0.1,0.5-0.2,0.8-0.2C261.4,220.8,261.7,220.9,262,221.1z M261.5,224.1c0.2-0.2,0.3-0.6,0.3-1
			c0-0.5-0.1-0.8-0.3-1.1s-0.5-0.4-0.8-0.4c-0.4,0-0.6,0.1-0.8,0.4c-0.2,0.2-0.3,0.6-0.3,1.1c0,0.5,0.1,0.8,0.3,1
			c0.2,0.2,0.5,0.4,0.8,0.4C261.1,224.5,261.3,224.4,261.5,224.1z"/>
		<path d="M266.6,224.9c0,0.1-0.1,0.3-0.2,0.3c-0.1,0.1-0.3,0.1-0.5,0.1l-0.2,0c-1-0.1-1.5-0.6-1.5-1.6v-2h-0.5
			c-0.2,0-0.3,0-0.4-0.1s-0.1-0.2-0.1-0.3c0-0.1,0-0.2,0.1-0.3s0.2-0.1,0.4-0.1h0.5v-0.8c0-0.2,0.1-0.3,0.2-0.4
			c0.1-0.1,0.2-0.1,0.4-0.1c0.2,0,0.3,0,0.4,0.1c0.1,0.1,0.2,0.2,0.2,0.4v0.8h0.8c0.2,0,0.3,0,0.4,0.1s0.1,0.2,0.1,0.3
			c0,0.1,0,0.2-0.1,0.3s-0.2,0.1-0.4,0.1h-0.8v2c0,0.4,0.2,0.7,0.6,0.7l0.2,0C266.4,224.5,266.6,224.7,266.6,224.9z"/>
	</g>
	<g class="st2">
		<path d="M283.3,225c-0.5-0.3-0.8-0.6-1-1.1c-0.2-0.5-0.4-1.1-0.4-1.7s0.1-1.2,0.4-1.7s0.6-0.9,1-1.1c0.5-0.3,1-0.4,1.6-0.4
			c0.6,0,1.2,0.1,1.6,0.4c0.5,0.3,0.8,0.6,1,1.1c0.2,0.5,0.4,1.1,0.4,1.7s-0.1,1.2-0.4,1.7c-0.2,0.5-0.6,0.9-1,1.1
			c-0.5,0.3-1,0.4-1.6,0.4C284.3,225.4,283.7,225.3,283.3,225z M286.2,223.9c0.3-0.4,0.5-1,0.5-1.7s-0.2-1.3-0.5-1.7
			s-0.8-0.6-1.4-0.6c-0.6,0-1,0.2-1.4,0.6s-0.5,1-0.5,1.7s0.2,1.3,0.5,1.7c0.3,0.4,0.8,0.6,1.4,0.6
			C285.5,224.5,285.9,224.3,286.2,223.9z"/>
		<path d="M293.1,224.8c0,0.1,0,0.3-0.1,0.4c-0.1,0.1-0.2,0.2-0.3,0.2c-0.1,0-0.3-0.1-0.4-0.2l-2.1-1.9v1.5c0,0.2-0.1,0.3-0.2,0.4
			c-0.1,0.1-0.2,0.1-0.4,0.1s-0.3,0-0.4-0.1c-0.1-0.1-0.2-0.2-0.2-0.4v-5.4c0-0.2,0.1-0.3,0.2-0.4c0.1-0.1,0.2-0.1,0.4-0.1
			s0.3,0,0.4,0.1c0.1,0.1,0.2,0.2,0.2,0.4v3.4l1.9-1.8c0.1-0.1,0.2-0.2,0.4-0.2c0.1,0,0.3,0.1,0.4,0.2c0.1,0.1,0.2,0.2,0.2,0.4
			c0,0.1-0.1,0.3-0.2,0.4l-1.4,1.3l1.6,1.4C293,224.5,293.1,224.7,293.1,224.8z"/>
		<path d="M296.5,224.9c0,0.1-0.1,0.3-0.2,0.3c-0.1,0.1-0.3,0.1-0.5,0.1l-0.2,0c-1-0.1-1.5-0.6-1.5-1.6v-2h-0.5
			c-0.2,0-0.3,0-0.4-0.1s-0.1-0.2-0.1-0.3c0-0.1,0-0.2,0.1-0.3s0.2-0.1,0.4-0.1h0.5v-0.8c0-0.2,0.1-0.3,0.2-0.4
			c0.1-0.1,0.2-0.1,0.4-0.1c0.2,0,0.3,0,0.4,0.1c0.1,0.1,0.2,0.2,0.2,0.4v0.8h0.8c0.2,0,0.3,0,0.4,0.1s0.1,0.2,0.1,0.3
			c0,0.1,0,0.2-0.1,0.3s-0.2,0.1-0.4,0.1h-0.8v2c0,0.4,0.2,0.7,0.6,0.7l0.2,0C296.4,224.5,296.5,224.7,296.5,224.9z"/>
	</g>
	<g class="st2">
		<path d="M317.3,219.1c0.1,0.1,0.1,0.2,0.1,0.4v5.3c0,0.2-0.1,0.3-0.2,0.4c-0.1,0.1-0.2,0.2-0.4,0.2c-0.2,0-0.3-0.1-0.4-0.2
			l-3.3-4.3v3.9c0,0.2,0,0.3-0.1,0.4c-0.1,0.1-0.2,0.2-0.4,0.2s-0.3-0.1-0.4-0.2c-0.1-0.1-0.1-0.2-0.1-0.4v-5.3
			c0-0.2,0.1-0.3,0.2-0.4c0.1-0.1,0.2-0.2,0.4-0.2c0.2,0,0.3,0.1,0.4,0.2l3.3,4.3v-3.9c0-0.2,0-0.3,0.1-0.4c0.1-0.1,0.2-0.2,0.4-0.2
			C317,218.9,317.2,219,317.3,219.1z"/>
		<path d="M319.5,225.1c-0.3-0.2-0.6-0.5-0.8-0.8c-0.2-0.3-0.3-0.8-0.3-1.2s0.1-0.9,0.3-1.2c0.2-0.3,0.4-0.6,0.8-0.8
			c0.3-0.2,0.7-0.3,1.2-0.3s0.8,0.1,1.2,0.3c0.3,0.2,0.6,0.5,0.8,0.8c0.2,0.3,0.3,0.7,0.3,1.2s-0.1,0.9-0.3,1.2
			c-0.2,0.3-0.4,0.6-0.8,0.8c-0.3,0.2-0.7,0.3-1.2,0.3S319.8,225.3,319.5,225.1z M321.5,224.1c0.2-0.2,0.3-0.6,0.3-1.1
			c0-0.5-0.1-0.8-0.3-1.1c-0.2-0.2-0.5-0.4-0.8-0.4s-0.6,0.1-0.8,0.4c-0.2,0.2-0.3,0.6-0.3,1.1c0,0.5,0.1,0.8,0.3,1.1
			c0.2,0.2,0.5,0.4,0.8,0.4C321,224.5,321.3,224.4,321.5,224.1z"/>
		<path d="M327,220.9c0.1-0.1,0.2-0.1,0.3-0.1c0.1,0,0.3,0,0.4,0.1c0.1,0.1,0.2,0.2,0.2,0.3c0,0.1,0,0.1-0.1,0.2l-1.7,3.5
			c-0.1,0.1-0.1,0.2-0.2,0.3c-0.1,0.1-0.2,0.1-0.3,0.1c-0.1,0-0.2,0-0.3-0.1c-0.1-0.1-0.2-0.1-0.2-0.3l-1.7-3.5c0-0.1,0-0.1,0-0.2
			c0-0.1,0.1-0.3,0.2-0.4c0.1-0.1,0.3-0.1,0.4-0.1c0.2,0,0.4,0.1,0.5,0.3l1.3,2.8l1.3-2.8C326.9,221,327,220.9,327,220.9z"/>
	</g>
	<g class="st2">
		<path d="M341.2,225.2c-0.1-0.1-0.1-0.2-0.1-0.4v-5.2c0-0.2,0-0.3,0.1-0.4c0.1-0.1,0.2-0.1,0.4-0.1h1.8c1,0,1.8,0.3,2.4,0.8
			c0.6,0.6,0.9,1.3,0.9,2.3c0,1-0.3,1.8-0.9,2.3c-0.6,0.6-1.4,0.8-2.4,0.8h-1.8C341.4,225.3,341.3,225.3,341.2,225.2z M343.3,224.4
			c1.5,0,2.2-0.7,2.2-2.2c0-1.5-0.7-2.2-2.2-2.2h-1.1v4.5H343.3z"/>
		<path d="M351.5,224.2c0.1,0.1,0.1,0.2,0.1,0.3c0,0.2-0.1,0.3-0.3,0.5c-0.2,0.1-0.4,0.2-0.7,0.3c-0.3,0.1-0.5,0.1-0.7,0.1
			c-0.7,0-1.3-0.2-1.7-0.6s-0.6-1-0.6-1.7c0-0.5,0.1-0.8,0.3-1.2c0.2-0.3,0.4-0.6,0.8-0.8c0.3-0.2,0.7-0.3,1.1-0.3
			c0.4,0,0.7,0.1,1,0.3s0.5,0.4,0.7,0.7c0.2,0.3,0.2,0.7,0.2,1.1c0,0.3-0.1,0.4-0.3,0.4h-2.7c0,0.4,0.2,0.7,0.4,0.9
			c0.2,0.2,0.5,0.3,0.9,0.3c0.2,0,0.4,0,0.5-0.1c0.1,0,0.3-0.1,0.5-0.2c0.2-0.1,0.3-0.1,0.4-0.1
			C351.3,224.1,351.4,224.1,351.5,224.2z M348.9,221.9c-0.2,0.2-0.3,0.5-0.3,0.8h2c0-0.4-0.1-0.6-0.3-0.8c-0.2-0.2-0.4-0.3-0.7-0.3
			C349.4,221.6,349.1,221.7,348.9,221.9z"/>
		<path d="M353.3,225.1c-0.3-0.2-0.6-0.5-0.8-0.8c-0.2-0.3-0.3-0.7-0.3-1.2s0.1-0.9,0.3-1.2c0.2-0.4,0.5-0.6,0.8-0.8
			c0.3-0.2,0.7-0.3,1.2-0.3c0.2,0,0.5,0,0.7,0.1c0.2,0.1,0.4,0.2,0.6,0.3c0.2,0.1,0.3,0.3,0.3,0.5c0,0.1,0,0.2-0.1,0.3
			c-0.1,0.1-0.1,0.1-0.2,0.1c-0.1,0-0.1,0-0.2,0c-0.1,0-0.1-0.1-0.2-0.1c-0.1-0.1-0.3-0.1-0.4-0.2c-0.1,0-0.3-0.1-0.4-0.1
			c-0.4,0-0.7,0.1-0.9,0.4c-0.2,0.2-0.3,0.6-0.3,1c0,0.5,0.1,0.8,0.3,1c0.2,0.2,0.5,0.4,0.9,0.4c0.1,0,0.3,0,0.4-0.1
			c0.1,0,0.2-0.1,0.4-0.2c0.1-0.1,0.2-0.1,0.2-0.1c0.1,0,0.1,0,0.2,0c0.1,0,0.2,0,0.2,0.1c0.1,0.1,0.1,0.2,0.1,0.3
			c0,0.1,0,0.2-0.1,0.3s-0.1,0.1-0.2,0.2c-0.2,0.1-0.4,0.2-0.6,0.3c-0.2,0.1-0.5,0.1-0.8,0.1C354,225.4,353.7,225.3,353.3,225.1z"/>
	</g>
	<path id="Path_82" class="st4" d="M55.4,78.6L88,80.8l24.3,6.7l25.9,15l32.9,32.2l30.3,18.3l25.1,3.8l31.3-17l31.4-13.8l29.3-27.3
		L352,80.8"/>
</g>
<g class="st2">
	<path d="M12.4,17.9c0.2,0,0.4,0.1,0.6,0.2c0.2,0.1,0.3,0.3,0.3,0.5c0,0.1,0,0.2-0.1,0.3l-3.6,7.7c-0.1,0.2-0.2,0.3-0.4,0.4
		c-0.2,0.1-0.3,0.1-0.5,0.1s-0.4,0-0.5-0.1C8,27,7.9,26.9,7.8,26.7L4.3,19c-0.1-0.1-0.1-0.2-0.1-0.3c0-0.2,0.1-0.4,0.3-0.5
		c0.2-0.1,0.4-0.2,0.6-0.2c0.1,0,0.3,0,0.4,0.1c0.1,0.1,0.2,0.2,0.3,0.3l3,6.6l3-6.6C11.9,18.1,12.1,17.9,12.4,17.9z"/>
	<path d="M18.8,25.6c0.1,0.1,0.1,0.3,0.1,0.5c0,0.3-0.2,0.5-0.5,0.7c-0.3,0.2-0.6,0.3-1,0.4c-0.4,0.1-0.7,0.1-1.1,0.1
		c-1,0-1.8-0.3-2.4-0.9c-0.6-0.6-0.9-1.4-0.9-2.4c0-0.6,0.1-1.2,0.4-1.7c0.3-0.5,0.6-0.9,1.1-1.2s1-0.4,1.6-0.4
		c0.6,0,1.1,0.1,1.5,0.4c0.4,0.3,0.8,0.6,1,1.1c0.2,0.5,0.4,1,0.4,1.6c0,0.4-0.2,0.6-0.5,0.6h-3.8c0.1,0.6,0.2,1,0.5,1.3
		s0.7,0.4,1.2,0.4c0.3,0,0.5,0,0.7-0.1s0.5-0.2,0.7-0.3c0.3-0.1,0.5-0.2,0.6-0.2C18.6,25.4,18.7,25.5,18.8,25.6z M15.2,22.2
		c-0.3,0.3-0.4,0.7-0.5,1.2h2.9c0-0.5-0.1-0.9-0.4-1.2c-0.2-0.3-0.6-0.4-1-0.4C15.8,21.8,15.4,21.9,15.2,22.2z"/>
	<path d="M24.4,20.8c0.1,0.1,0.2,0.3,0.2,0.5c0,0.2-0.1,0.4-0.2,0.5c-0.1,0.1-0.3,0.2-0.6,0.2l-0.4,0c-0.5,0.1-0.9,0.2-1.1,0.5
		c-0.2,0.3-0.4,0.7-0.4,1.1v2.7c0,0.3-0.1,0.4-0.2,0.6c-0.2,0.1-0.4,0.2-0.6,0.2s-0.4-0.1-0.6-0.2c-0.2-0.1-0.2-0.3-0.2-0.6v-5
		c0-0.2,0.1-0.4,0.2-0.6c0.2-0.1,0.3-0.2,0.6-0.2c0.2,0,0.4,0.1,0.5,0.2c0.1,0.1,0.2,0.3,0.2,0.5v0.5c0.2-0.4,0.4-0.7,0.7-0.9
		s0.7-0.3,1.1-0.4l0.2,0C24.1,20.7,24.3,20.7,24.4,20.8z"/>
	<path d="M30.5,21.1c0.4,0.3,0.8,0.7,1,1.1s0.4,1.1,0.4,1.7c0,0.7-0.1,1.2-0.4,1.7s-0.6,0.9-1,1.2c-0.4,0.3-0.9,0.4-1.5,0.4
		c-0.5,0-0.9-0.1-1.2-0.3c-0.4-0.2-0.6-0.5-0.8-0.8v0.3c0,0.2-0.1,0.4-0.2,0.6c-0.1,0.1-0.3,0.2-0.6,0.2c-0.2,0-0.4-0.1-0.6-0.2
		s-0.2-0.3-0.2-0.6v-7.8c0-0.2,0.1-0.4,0.2-0.5c0.2-0.1,0.3-0.2,0.6-0.2s0.4,0.1,0.6,0.2s0.2,0.3,0.2,0.5v3.1
		c0.2-0.3,0.5-0.6,0.8-0.8c0.4-0.2,0.8-0.3,1.2-0.3C29.5,20.7,30,20.8,30.5,21.1z M29.8,25.5c0.3-0.4,0.4-0.9,0.4-1.5
		c0-0.6-0.1-1.1-0.4-1.5c-0.3-0.3-0.7-0.5-1.2-0.5s-0.9,0.2-1.2,0.5c-0.3,0.4-0.4,0.9-0.4,1.5s0.1,1.2,0.4,1.5
		c0.3,0.4,0.7,0.5,1.2,0.5C29.1,26,29.5,25.8,29.8,25.5z"/>
	<path d="M37.2,20.8c0.1,0.1,0.2,0.3,0.2,0.5c0,0.2-0.1,0.4-0.2,0.5c-0.1,0.1-0.3,0.2-0.6,0.2l-0.4,0c-0.5,0.1-0.9,0.2-1.1,0.5
		c-0.2,0.3-0.4,0.7-0.4,1.1v2.7c0,0.3-0.1,0.4-0.2,0.6c-0.2,0.1-0.4,0.2-0.6,0.2s-0.4-0.1-0.6-0.2c-0.2-0.1-0.2-0.3-0.2-0.6v-5
		c0-0.2,0.1-0.4,0.2-0.6c0.2-0.1,0.3-0.2,0.6-0.2c0.2,0,0.4,0.1,0.5,0.2c0.1,0.1,0.2,0.3,0.2,0.5v0.5c0.2-0.4,0.4-0.7,0.7-0.9
		s0.7-0.3,1.1-0.4l0.2,0C36.9,20.7,37.1,20.7,37.2,20.8z"/>
	<path d="M43.7,20.9c0.1,0.1,0.2,0.3,0.2,0.6v5c0,0.2-0.1,0.4-0.2,0.5c-0.2,0.1-0.3,0.2-0.6,0.2c-0.2,0-0.4-0.1-0.6-0.2
		c-0.1-0.1-0.2-0.3-0.2-0.5v-0.3c-0.2,0.3-0.5,0.6-0.8,0.8c-0.3,0.2-0.7,0.3-1.1,0.3c-1.6,0-2.3-0.9-2.3-2.6v-3.2
		c0-0.2,0.1-0.4,0.2-0.6s0.3-0.2,0.6-0.2c0.3,0,0.5,0.1,0.6,0.2s0.2,0.3,0.2,0.6v3.2c0,0.5,0.1,0.8,0.3,1s0.5,0.3,0.9,0.3
		c0.5,0,0.8-0.1,1.1-0.4c0.3-0.3,0.4-0.7,0.4-1.2v-2.9c0-0.2,0.1-0.4,0.2-0.6s0.3-0.2,0.6-0.2C43.4,20.7,43.6,20.8,43.7,20.9z"/>
	<path d="M45.8,19.3c-0.2-0.2-0.3-0.4-0.3-0.6c0-0.3,0.1-0.5,0.3-0.6c0.2-0.2,0.4-0.2,0.7-0.2c0.3,0,0.5,0.1,0.7,0.2
		c0.2,0.2,0.3,0.4,0.3,0.6c0,0.3-0.1,0.5-0.3,0.6c-0.2,0.2-0.4,0.2-0.7,0.2S45.9,19.4,45.8,19.3z M45.9,27c-0.2-0.1-0.2-0.3-0.2-0.6
		v-5c0-0.3,0.1-0.4,0.2-0.6c0.2-0.1,0.3-0.2,0.6-0.2s0.4,0.1,0.6,0.2c0.2,0.1,0.2,0.3,0.2,0.6v5c0,0.3-0.1,0.4-0.2,0.6
		c-0.2,0.1-0.4,0.2-0.6,0.2S46,27.2,45.9,27z"/>
	<path d="M54.9,26.5c0,0.2-0.1,0.4-0.2,0.5s-0.3,0.2-0.5,0.2s-0.4-0.1-0.5-0.2l-3-2.8v2.2c0,0.3-0.1,0.4-0.2,0.6
		c-0.2,0.1-0.4,0.2-0.6,0.2s-0.4-0.1-0.6-0.2C49,26.9,49,26.7,49,26.5v-7.8c0-0.3,0.1-0.4,0.2-0.6c0.2-0.1,0.3-0.2,0.6-0.2
		s0.4,0.1,0.6,0.2c0.2,0.1,0.2,0.3,0.2,0.6v4.9l2.8-2.7c0.2-0.2,0.3-0.2,0.5-0.2c0.2,0,0.4,0.1,0.5,0.2c0.1,0.1,0.2,0.3,0.2,0.5
		c0,0.2-0.1,0.4-0.2,0.5l-2,1.9l2.3,2C54.8,26.1,54.9,26.3,54.9,26.5z"/>
	<path d="M64.6,21.1c0.4,0.3,0.8,0.7,1,1.2c0.2,0.5,0.4,1.1,0.4,1.7s-0.1,1.2-0.4,1.7c-0.2,0.5-0.6,0.9-1,1.1
		c-0.4,0.3-0.9,0.4-1.5,0.4c-0.5,0-0.9-0.1-1.2-0.3c-0.4-0.2-0.6-0.5-0.8-0.8v2.7c0,0.2-0.1,0.4-0.2,0.5s-0.3,0.2-0.6,0.2
		s-0.4-0.1-0.6-0.2c-0.2-0.1-0.2-0.3-0.2-0.5v-7.4c0-0.2,0.1-0.4,0.2-0.6s0.3-0.2,0.6-0.2c0.2,0,0.4,0.1,0.6,0.2
		C61,21,61,21.2,61,21.5v0.3c0.2-0.4,0.5-0.6,0.8-0.8c0.4-0.2,0.8-0.3,1.2-0.3C63.6,20.7,64.1,20.8,64.6,21.1z M63.9,25.5
		c0.3-0.4,0.4-0.8,0.4-1.5c0-0.7-0.1-1.2-0.4-1.5c-0.3-0.4-0.7-0.5-1.2-0.5c-0.5,0-0.9,0.2-1.2,0.5C61.2,22.8,61,23.3,61,24
		c0,0.7,0.1,1.2,0.4,1.5c0.3,0.4,0.7,0.5,1.2,0.5C63.2,26,63.6,25.8,63.9,25.5z"/>
	<path d="M72.6,25.6c0.1,0.1,0.1,0.3,0.1,0.5c0,0.3-0.2,0.5-0.5,0.7c-0.3,0.2-0.6,0.3-1,0.4c-0.4,0.1-0.7,0.1-1.1,0.1
		c-1,0-1.8-0.3-2.4-0.9c-0.6-0.6-0.9-1.4-0.9-2.4c0-0.6,0.1-1.2,0.4-1.7c0.3-0.5,0.6-0.9,1.1-1.2s1-0.4,1.6-0.4
		c0.6,0,1.1,0.1,1.5,0.4c0.4,0.3,0.8,0.6,1,1.1c0.2,0.5,0.4,1,0.4,1.6c0,0.4-0.2,0.6-0.5,0.6h-3.8c0.1,0.6,0.2,1,0.5,1.3
		s0.7,0.4,1.2,0.4c0.3,0,0.5,0,0.7-0.1s0.5-0.2,0.7-0.3c0.3-0.1,0.5-0.2,0.6-0.2C72.4,25.4,72.6,25.5,72.6,25.6z M69,22.2
		c-0.3,0.3-0.4,0.7-0.5,1.2h2.9c0-0.5-0.1-0.9-0.4-1.2c-0.2-0.3-0.6-0.4-1-0.4C69.6,21.8,69.2,21.9,69,22.2z"/>
	<path d="M78.2,20.8c0.1,0.1,0.2,0.3,0.2,0.5c0,0.2-0.1,0.4-0.2,0.5C78.2,22,78,22,77.7,22.1l-0.4,0c-0.5,0.1-0.9,0.2-1.1,0.5
		c-0.2,0.3-0.4,0.7-0.4,1.1v2.7c0,0.3-0.1,0.4-0.2,0.6c-0.2,0.1-0.4,0.2-0.6,0.2s-0.4-0.1-0.6-0.2c-0.2-0.1-0.2-0.3-0.2-0.6v-5
		c0-0.2,0.1-0.4,0.2-0.6c0.2-0.1,0.3-0.2,0.6-0.2c0.2,0,0.4,0.1,0.5,0.2c0.1,0.1,0.2,0.3,0.2,0.5v0.5c0.2-0.4,0.4-0.7,0.7-0.9
		s0.7-0.3,1.1-0.4l0.2,0C77.9,20.7,78.1,20.7,78.2,20.8z"/>
	<path d="M91.8,21.3c0.4,0.4,0.6,1.1,0.6,2v3.2c0,0.3-0.1,0.4-0.2,0.6c-0.2,0.1-0.3,0.2-0.6,0.2c-0.2,0-0.4-0.1-0.6-0.2
		c-0.2-0.1-0.2-0.3-0.2-0.6v-3.2c0-0.5-0.1-0.8-0.3-1c-0.2-0.2-0.4-0.3-0.8-0.3c-0.4,0-0.8,0.1-1,0.4c-0.3,0.3-0.4,0.7-0.4,1.2v2.9
		c0,0.3-0.1,0.4-0.2,0.6c-0.2,0.1-0.3,0.2-0.6,0.2c-0.2,0-0.4-0.1-0.6-0.2c-0.2-0.1-0.2-0.3-0.2-0.6v-3.2c0-0.5-0.1-0.8-0.3-1
		c-0.2-0.2-0.4-0.3-0.8-0.3c-0.4,0-0.8,0.1-1,0.4c-0.2,0.3-0.4,0.7-0.4,1.2v2.9c0,0.3-0.1,0.4-0.2,0.6c-0.2,0.1-0.4,0.2-0.6,0.2
		S83,27.2,82.9,27c-0.2-0.1-0.2-0.3-0.2-0.6v-5c0-0.2,0.1-0.4,0.2-0.6c0.2-0.1,0.4-0.2,0.6-0.2c0.2,0,0.4,0.1,0.6,0.2
		c0.1,0.1,0.2,0.3,0.2,0.5v0.3c0.2-0.3,0.5-0.6,0.8-0.8c0.3-0.2,0.7-0.3,1.2-0.3c1,0,1.6,0.4,1.9,1.2c0.2-0.4,0.5-0.7,0.8-0.9
		c0.4-0.2,0.8-0.3,1.3-0.3C90.9,20.7,91.4,20.9,91.8,21.3z"/>
	<path d="M98.7,21.3c0.4,0.4,0.6,1.1,0.6,2v3.2c0,0.2-0.1,0.4-0.2,0.6c-0.1,0.1-0.3,0.2-0.6,0.2c-0.2,0-0.4-0.1-0.6-0.2
		s-0.2-0.3-0.2-0.5v-0.3c-0.1,0.3-0.4,0.6-0.7,0.8c-0.3,0.2-0.7,0.3-1.1,0.3c-0.4,0-0.8-0.1-1.2-0.3c-0.3-0.2-0.6-0.4-0.8-0.7
		c-0.2-0.3-0.3-0.6-0.3-1c0-0.5,0.1-0.8,0.4-1.1c0.2-0.3,0.6-0.5,1.2-0.6c0.5-0.1,1.3-0.2,2.2-0.2h0.3v-0.3c0-0.4-0.1-0.7-0.3-0.9
		s-0.5-0.3-0.9-0.3c-0.3,0-0.5,0-0.8,0.1c-0.3,0.1-0.6,0.2-0.9,0.3c-0.2,0.1-0.4,0.2-0.5,0.2c-0.2,0-0.3-0.1-0.4-0.2
		C94,22.2,94,22.1,94,21.9c0-0.1,0-0.3,0.1-0.4s0.2-0.2,0.4-0.3c0.3-0.2,0.7-0.3,1.1-0.4c0.4-0.1,0.8-0.1,1.2-0.1
		C97.6,20.7,98.3,20.9,98.7,21.3z M97.4,25.7c0.3-0.3,0.4-0.7,0.4-1.1v-0.3h-0.2c-0.6,0-1,0-1.4,0.1c-0.3,0.1-0.6,0.1-0.7,0.3
		s-0.2,0.3-0.2,0.5c0,0.3,0.1,0.5,0.3,0.7s0.4,0.3,0.7,0.3C96.8,26.1,97.1,26,97.4,25.7z"/>
	<path d="M105.8,21.3c0.4,0.4,0.6,1.1,0.6,2v3.2c0,0.2-0.1,0.4-0.2,0.6c-0.1,0.1-0.3,0.2-0.6,0.2c-0.2,0-0.4-0.1-0.6-0.2
		s-0.2-0.3-0.2-0.5v-0.3c-0.1,0.3-0.4,0.6-0.7,0.8c-0.3,0.2-0.7,0.3-1.1,0.3c-0.4,0-0.8-0.1-1.2-0.3c-0.3-0.2-0.6-0.4-0.8-0.7
		c-0.2-0.3-0.3-0.6-0.3-1c0-0.5,0.1-0.8,0.4-1.1c0.2-0.3,0.6-0.5,1.2-0.6c0.5-0.1,1.3-0.2,2.2-0.2h0.3v-0.3c0-0.4-0.1-0.7-0.3-0.9
		s-0.5-0.3-0.9-0.3c-0.3,0-0.5,0-0.8,0.1c-0.3,0.1-0.6,0.2-0.9,0.3c-0.2,0.1-0.4,0.2-0.5,0.2c-0.2,0-0.3-0.1-0.4-0.2
		c-0.1-0.1-0.1-0.3-0.1-0.4c0-0.1,0-0.3,0.1-0.4s0.2-0.2,0.4-0.3c0.3-0.2,0.7-0.3,1.1-0.4c0.4-0.1,0.8-0.1,1.2-0.1
		C104.7,20.7,105.3,20.9,105.8,21.3z M104.4,25.7c0.3-0.3,0.4-0.7,0.4-1.1v-0.3h-0.2c-0.6,0-1,0-1.4,0.1c-0.3,0.1-0.6,0.1-0.7,0.3
		s-0.2,0.3-0.2,0.5c0,0.3,0.1,0.5,0.3,0.7s0.4,0.3,0.7,0.3C103.8,26.1,104.2,26,104.4,25.7z"/>
	<path d="M113.4,21.3c0.4,0.4,0.6,1.1,0.6,2v3.2c0,0.2-0.1,0.4-0.2,0.6s-0.3,0.2-0.6,0.2c-0.3,0-0.5-0.1-0.6-0.2s-0.2-0.3-0.2-0.6
		v-3.1c0-0.5-0.1-0.9-0.3-1.1c-0.2-0.2-0.5-0.3-0.9-0.3c-0.5,0-0.8,0.1-1.1,0.4c-0.3,0.3-0.4,0.7-0.4,1.2v2.9c0,0.2-0.1,0.4-0.2,0.6
		s-0.3,0.2-0.6,0.2s-0.4-0.1-0.6-0.2s-0.2-0.3-0.2-0.6v-5c0-0.2,0.1-0.4,0.2-0.5s0.3-0.2,0.6-0.2c0.2,0,0.4,0.1,0.6,0.2
		c0.1,0.1,0.2,0.3,0.2,0.5v0.4c0.2-0.4,0.5-0.6,0.9-0.8c0.4-0.2,0.8-0.3,1.2-0.3C112.5,20.7,113.1,20.9,113.4,21.3z"/>
	<path d="M121.6,18.2c0.2,0.1,0.2,0.3,0.2,0.5v7.8c0,0.2-0.1,0.4-0.2,0.6s-0.3,0.2-0.6,0.2s-0.4-0.1-0.6-0.2s-0.2-0.3-0.2-0.6v-0.3
		c-0.2,0.4-0.5,0.6-0.8,0.8c-0.4,0.2-0.8,0.3-1.2,0.3c-0.5,0-1-0.1-1.5-0.4s-0.8-0.7-1-1.2c-0.2-0.5-0.4-1.1-0.4-1.7
		c0-0.7,0.1-1.2,0.4-1.7c0.2-0.5,0.6-0.9,1-1.1c0.4-0.3,0.9-0.4,1.5-0.4c0.5,0,0.9,0.1,1.2,0.3c0.4,0.2,0.6,0.5,0.8,0.8v-3.1
		c0-0.2,0.1-0.4,0.2-0.5c0.1-0.1,0.3-0.2,0.6-0.2S121.4,18,121.6,18.2z M119.8,25.5c0.3-0.4,0.4-0.9,0.4-1.5s-0.1-1.2-0.4-1.5
		c-0.3-0.4-0.7-0.5-1.2-0.5c-0.5,0-0.9,0.2-1.2,0.5c-0.3,0.3-0.4,0.8-0.4,1.5c0,0.7,0.1,1.2,0.4,1.5c0.3,0.4,0.7,0.5,1.2,0.5
		C119.1,26,119.5,25.8,119.8,25.5z"/>
	<path d="M127.5,23.8c0-1.9,0.5-3.7,1.4-5.3c0.1-0.2,0.2-0.3,0.4-0.4c0.1-0.1,0.3-0.1,0.4-0.1c0.1,0,0.3,0,0.4,0.1s0.1,0.2,0.1,0.4
		c0,0.1,0,0.2-0.1,0.3c-0.6,1.6-1,3.2-1,5c0,0.9,0.1,1.7,0.2,2.5c0.2,0.8,0.4,1.6,0.7,2.4c0,0.1,0.1,0.2,0.1,0.3
		c0,0.2,0,0.3-0.1,0.4c-0.1,0.1-0.2,0.1-0.4,0.1c-0.1,0-0.3,0-0.4-0.1s-0.3-0.2-0.4-0.4C127.9,27.4,127.5,25.7,127.5,23.8z"/>
	<path d="M131.7,19.3c-0.2-0.2-0.3-0.4-0.3-0.6c0-0.3,0.1-0.5,0.3-0.6c0.2-0.2,0.4-0.2,0.7-0.2c0.3,0,0.5,0.1,0.7,0.2
		c0.2,0.2,0.3,0.4,0.3,0.6c0,0.3-0.1,0.5-0.3,0.6c-0.2,0.2-0.4,0.2-0.7,0.2S131.8,19.4,131.7,19.3z M131.8,27
		c-0.2-0.1-0.2-0.3-0.2-0.6v-5c0-0.3,0.1-0.4,0.2-0.6c0.2-0.1,0.3-0.2,0.6-0.2s0.4,0.1,0.6,0.2c0.2,0.1,0.2,0.3,0.2,0.6v5
		c0,0.3-0.1,0.4-0.2,0.6c-0.2,0.1-0.4,0.2-0.6,0.2S131.9,27.2,131.8,27z"/>
	<path d="M140.3,21.3c0.4,0.4,0.6,1.1,0.6,2v3.2c0,0.2-0.1,0.4-0.2,0.6s-0.3,0.2-0.6,0.2c-0.3,0-0.5-0.1-0.6-0.2s-0.2-0.3-0.2-0.6
		v-3.1c0-0.5-0.1-0.9-0.3-1.1c-0.2-0.2-0.5-0.3-0.9-0.3c-0.5,0-0.8,0.1-1.1,0.4c-0.3,0.3-0.4,0.7-0.4,1.2v2.9c0,0.2-0.1,0.4-0.2,0.6
		s-0.3,0.2-0.6,0.2s-0.4-0.1-0.6-0.2s-0.2-0.3-0.2-0.6v-5c0-0.2,0.1-0.4,0.2-0.5s0.3-0.2,0.6-0.2c0.2,0,0.4,0.1,0.6,0.2
		c0.1,0.1,0.2,0.3,0.2,0.5v0.4c0.2-0.4,0.5-0.6,0.9-0.8c0.4-0.2,0.8-0.3,1.2-0.3C139.3,20.7,139.9,20.9,140.3,21.3z"/>
	<path d="M151.9,26.5c0,0.2-0.1,0.4-0.2,0.5s-0.3,0.2-0.5,0.2s-0.4-0.1-0.5-0.2l-3-2.8v2.2c0,0.3-0.1,0.4-0.2,0.6
		c-0.2,0.1-0.4,0.2-0.6,0.2s-0.4-0.1-0.6-0.2c-0.2-0.1-0.2-0.3-0.2-0.6v-7.8c0-0.3,0.1-0.4,0.2-0.6c0.2-0.1,0.3-0.2,0.6-0.2
		s0.4,0.1,0.6,0.2c0.2,0.1,0.2,0.3,0.2,0.6v4.9l2.8-2.7c0.2-0.2,0.3-0.2,0.5-0.2c0.2,0,0.4,0.1,0.5,0.2c0.1,0.1,0.2,0.3,0.2,0.5
		c0,0.2-0.1,0.4-0.2,0.5l-2,1.9l2.3,2C151.8,26.1,151.9,26.3,151.9,26.5z"/>
	<path d="M164.9,18.1c0.1-0.1,0.3-0.1,0.4-0.1c0.2,0,0.4,0.1,0.5,0.2c0.2,0.1,0.2,0.3,0.2,0.5c0,0.1,0,0.2-0.1,0.3l-2.8,7.7
		c-0.1,0.2-0.2,0.3-0.3,0.4c-0.2,0.1-0.3,0.1-0.5,0.1c-0.2,0-0.4,0-0.5-0.1c-0.2-0.1-0.3-0.2-0.3-0.4l-2.2-6.1l-2.2,6.1
		c-0.1,0.2-0.2,0.3-0.3,0.4c-0.2,0.1-0.3,0.1-0.5,0.1c-0.2,0-0.4,0-0.5-0.1c-0.2-0.1-0.3-0.2-0.3-0.4l-2.8-7.7
		c0-0.1-0.1-0.2-0.1-0.3c0-0.2,0.1-0.4,0.2-0.5c0.2-0.1,0.3-0.2,0.6-0.2c0.2,0,0.3,0,0.5,0.1c0.1,0.1,0.2,0.2,0.3,0.4l2.2,6.4
		l2.3-6.3c0.1-0.2,0.2-0.3,0.3-0.4s0.3-0.1,0.5-0.1s0.3,0,0.5,0.1s0.2,0.2,0.3,0.4l2.2,6.4l2.2-6.4
		C164.7,18.3,164.8,18.1,164.9,18.1z"/>
	<path d="M173.3,23.3v3.2c0,0.2-0.1,0.4-0.2,0.6s-0.3,0.2-0.6,0.2c-0.3,0-0.5-0.1-0.6-0.2s-0.2-0.3-0.2-0.6v-3.2
		c0-0.5-0.1-0.8-0.3-1c-0.2-0.2-0.5-0.3-0.9-0.3c-0.5,0-0.8,0.1-1.1,0.4c-0.3,0.3-0.4,0.7-0.4,1.2v2.9c0,0.2-0.1,0.4-0.2,0.6
		s-0.3,0.2-0.6,0.2s-0.4-0.1-0.6-0.2s-0.2-0.3-0.2-0.6v-7.8c0-0.2,0.1-0.4,0.2-0.5c0.2-0.1,0.3-0.2,0.6-0.2s0.4,0.1,0.6,0.2
		s0.2,0.3,0.2,0.5v3c0.2-0.3,0.5-0.6,0.9-0.8c0.4-0.2,0.8-0.3,1.2-0.3C172.6,20.7,173.3,21.5,173.3,23.3z"/>
	<path d="M175.7,29.4c-0.1,0.1-0.3,0.1-0.4,0.1c-0.1,0-0.3,0-0.4-0.1c-0.1-0.1-0.1-0.2-0.1-0.4c0-0.1,0-0.2,0.1-0.3
		c0.3-0.8,0.6-1.6,0.7-2.4c0.2-0.8,0.2-1.7,0.2-2.5c0-1.8-0.3-3.4-1-5c0-0.1-0.1-0.2-0.1-0.3c0-0.2,0-0.3,0.1-0.4
		c0.1-0.1,0.2-0.1,0.4-0.1c0.1,0,0.3,0,0.4,0.1c0.1,0.1,0.3,0.2,0.4,0.4c0.9,1.6,1.4,3.4,1.4,5.3c0,1.9-0.5,3.7-1.4,5.3
		C175.9,29.2,175.8,29.4,175.7,29.4z"/>
</g>
</svg>
