<?xml version="1.0" encoding="utf-8"?>
<!-- Generator: Adobe Illustrator 24.1.2, SVG Export Plug-In . SVG Version: 6.00 Build 0)  -->
<svg version="1.1" id="Layer_1" xmlns="http://www.w3.org/2000/svg" xmlns:xlink="http://www.w3.org/1999/xlink" x="0px" y="0px"
	 viewBox="0 0 376 241" style="enable-background:new 0 0 376 241;" xml:space="preserve">
<style type="text/css">
	.st0{fill:#FFFFFF;}
	.st1{fill:#D5D5D5;}
	.st2{fill:none;stroke:#D5D5D5;stroke-dasharray:10;}
	.st3{fill:none;stroke:#00F53F;stroke-width:5;stroke-linecap:round;}
	.st4{fill:#F7F7F7;}
</style>
<g id="Layer_2_1_">
	<g id="Layer_1-2">
		<path id="Rectangle_7-2" class="st0" d="M15,0h346c8.3,0,15,6.7,15,15v211c0,8.3-6.7,15-15,15H15c-8.3,0-15-6.7-15-15V15
			C0,6.7,6.7,0,15,0z"/>
		<g id="Verbruik_per_dag_in_kWh_">
			<g>
				<path d="M12.4,17.8c0.2,0,0.4,0.1,0.6,0.2c0.2,0.1,0.3,0.3,0.3,0.5c0,0.1,0,0.2-0.1,0.3l-3.6,7.8c-0.1,0.2-0.2,0.3-0.4,0.4
					c-0.3,0.2-0.7,0.2-1,0c-0.2-0.1-0.3-0.2-0.4-0.4l-3.6-7.8c0-0.1-0.1-0.2-0.1-0.3c0-0.2,0.1-0.4,0.3-0.5c0.2-0.1,0.4-0.2,0.6-0.2
					c0.1,0,0.3,0,0.4,0.1c0.1,0.1,0.2,0.2,0.3,0.3l3,6.6l3-6.6C11.8,18,12,17.8,12.4,17.8z"/>
				<path d="M18.8,25.4c0.1,0.1,0.1,0.3,0.1,0.5c0,0.3-0.2,0.6-0.5,0.7c-0.3,0.2-0.7,0.3-1,0.4c-0.3,0.1-0.7,0.1-1.1,0.1
					c-0.9,0-1.8-0.3-2.4-0.9c-0.6-0.6-1-1.5-0.9-2.4c0-0.6,0.1-1.2,0.4-1.7c0.2-0.5,0.6-0.9,1.1-1.2c0.5-0.3,1-0.4,1.6-0.4
					c0.5,0,1,0.1,1.5,0.4c0.4,0.3,0.8,0.6,1,1.1c0.3,0.5,0.4,1.1,0.4,1.6c0,0.4-0.2,0.6-0.5,0.6h-3.9c0,0.5,0.2,1,0.5,1.3
					c0.3,0.3,0.8,0.5,1.3,0.4c0.2,0,0.5,0,0.7-0.1c0.2-0.1,0.5-0.2,0.7-0.3c0.2-0.1,0.4-0.2,0.6-0.2C18.5,25.3,18.7,25.3,18.8,25.4z
					 M15.1,22c-0.3,0.3-0.5,0.7-0.5,1.2h2.9c0-0.4-0.1-0.9-0.4-1.2c-0.3-0.3-0.6-0.4-1-0.4C15.8,21.6,15.4,21.8,15.1,22z"/>
				<path d="M24.4,20.7c0.1,0.1,0.2,0.3,0.2,0.5c0,0.2,0,0.4-0.2,0.5c-0.2,0.1-0.4,0.2-0.6,0.2h-0.4c-0.4,0-0.8,0.2-1.1,0.5
					c-0.2,0.3-0.4,0.7-0.4,1.1v2.8c0,0.2-0.1,0.4-0.2,0.6c-0.2,0.1-0.4,0.2-0.6,0.2c-0.2,0-0.4-0.1-0.6-0.2
					c-0.2-0.2-0.2-0.4-0.2-0.6v-5c0-0.2,0.1-0.4,0.2-0.6c0.2-0.1,0.4-0.2,0.6-0.2c0.2,0,0.4,0.1,0.5,0.2c0.1,0.1,0.2,0.3,0.2,0.5
					v0.5c0.2-0.4,0.4-0.7,0.7-0.9c0.3-0.2,0.7-0.3,1.1-0.4h0.2C24,20.5,24.2,20.6,24.4,20.7z"/>
				<path d="M30.4,20.9c0.4,0.3,0.8,0.7,1,1.1c0.2,0.5,0.4,1.1,0.4,1.7c0,0.6-0.1,1.2-0.4,1.8c-0.2,0.5-0.6,0.9-1,1.2
					c-0.4,0.3-0.9,0.4-1.5,0.4c-0.4,0-0.9-0.1-1.2-0.3c-0.4-0.2-0.6-0.5-0.8-0.8v0.3c0,0.2-0.1,0.4-0.2,0.6c-0.3,0.3-0.8,0.3-1.2,0
					c-0.1-0.1-0.2-0.4-0.2-0.6v-7.8c0-0.2,0.1-0.4,0.2-0.5c0.2-0.1,0.4-0.2,0.6-0.2c0.2,0,0.4,0.1,0.6,0.2c0.2,0.1,0.2,0.3,0.2,0.5
					v3.1c0.2-0.3,0.5-0.6,0.8-0.8c0.4-0.2,0.8-0.3,1.2-0.3C29.4,20.5,29.9,20.6,30.4,20.9z M29.7,25.3c0.3-0.5,0.5-1,0.4-1.5
					c0-0.5-0.1-1.1-0.4-1.5c-0.6-0.7-1.7-0.7-2.3-0.1c0,0-0.1,0.1-0.1,0.1c-0.3,0.4-0.5,1-0.4,1.5c0,0.5,0.1,1.1,0.4,1.5
					c0.6,0.7,1.6,0.7,2.3,0.1C29.6,25.4,29.6,25.4,29.7,25.3L29.7,25.3z"/>
				<path d="M37.2,20.7c0.1,0.1,0.2,0.3,0.2,0.5c0,0.2,0,0.4-0.2,0.5c-0.2,0.1-0.4,0.2-0.6,0.2h-0.4c-0.4,0-0.8,0.2-1.1,0.5
					c-0.2,0.3-0.4,0.7-0.4,1.1v2.8c0,0.2-0.1,0.4-0.2,0.6c-0.3,0.3-0.8,0.3-1.2,0c-0.2-0.2-0.2-0.4-0.2-0.6v-5
					c0-0.2,0.1-0.4,0.2-0.6c0.2-0.1,0.4-0.2,0.6-0.2c0.2,0,0.4,0.1,0.5,0.2c0.1,0.1,0.2,0.3,0.2,0.5v0.5c0.2-0.4,0.4-0.7,0.7-0.9
					c0.3-0.2,0.7-0.3,1.1-0.4h0.2C36.8,20.5,37,20.6,37.2,20.7z"/>
				<path d="M43.7,20.7c0.2,0.1,0.2,0.4,0.2,0.6v5c0,0.2-0.1,0.4-0.2,0.5C43.5,27,43.3,27,43.1,27c-0.2,0-0.4-0.1-0.5-0.2
					c-0.1-0.1-0.2-0.3-0.2-0.5V26c-0.2,0.3-0.5,0.6-0.8,0.8c-0.3,0.2-0.7,0.3-1.1,0.3c-1.6,0-2.3-0.9-2.3-2.6v-3.2
					c0-0.2,0.1-0.4,0.2-0.6c0.2-0.1,0.4-0.2,0.6-0.2c0.2,0,0.4,0.1,0.6,0.2c0.2,0.1,0.2,0.4,0.2,0.6v3.2c0,0.4,0.1,0.7,0.3,1
					c0.2,0.2,0.5,0.4,0.8,0.3c0.4,0,0.8-0.1,1.1-0.5c0.3-0.3,0.4-0.8,0.4-1.2v-2.9c0-0.2,0.1-0.4,0.2-0.6
					C42.8,20.4,43.3,20.4,43.7,20.7L43.7,20.7z"/>
				<path d="M45.7,19.1c-0.2-0.2-0.3-0.4-0.3-0.6c0-0.2,0.1-0.5,0.3-0.6c0.2-0.2,0.4-0.2,0.7-0.2c0.3,0,0.5,0.1,0.7,0.2
					c0.2,0.2,0.3,0.4,0.3,0.6c0,0.2-0.1,0.5-0.3,0.6c-0.2,0.2-0.4,0.3-0.7,0.2C46.1,19.4,45.9,19.3,45.7,19.1z M45.8,26.9
					c-0.2-0.2-0.2-0.4-0.2-0.6v-5c0-0.2,0.1-0.4,0.2-0.6c0.3-0.3,0.8-0.3,1.2,0c0.2,0.1,0.3,0.4,0.2,0.6v5c0,0.2-0.1,0.4-0.2,0.6
					C46.6,27.1,46.1,27.1,45.8,26.9z"/>
				<path d="M54.8,26.3c0,0.2-0.1,0.4-0.2,0.5c-0.1,0.1-0.3,0.2-0.5,0.2c-0.2,0-0.4-0.1-0.5-0.2l-3-2.8v2.2c0,0.2-0.1,0.4-0.2,0.6
					c-0.2,0.1-0.4,0.2-0.6,0.2c-0.2,0-0.4-0.1-0.6-0.2c-0.2-0.1-0.2-0.4-0.2-0.6v-7.8c0-0.2,0-0.4,0.2-0.5c0.2-0.1,0.4-0.2,0.6-0.2
					c0.2,0,0.4,0.1,0.6,0.2c0.2,0.1,0.2,0.4,0.2,0.6v4.9l2.8-2.7c0.1-0.1,0.3-0.2,0.5-0.2c0.4,0,0.7,0.3,0.7,0.7
					c0,0.2-0.1,0.4-0.3,0.5l-2,1.9l2.3,2C54.7,25.9,54.8,26.1,54.8,26.3z"/>
				<path d="M64.5,20.9c0.4,0.3,0.8,0.7,1,1.2c0.2,0.5,0.4,1.1,0.4,1.8c0,0.6-0.1,1.2-0.4,1.7c-0.2,0.5-0.6,0.9-1,1.1
					c-0.4,0.3-1,0.4-1.5,0.4c-0.4,0-0.8-0.1-1.2-0.3c-0.3-0.2-0.6-0.5-0.8-0.8v2.6c0,0.2-0.1,0.4-0.2,0.5c-0.2,0.1-0.4,0.2-0.6,0.2
					c-0.2,0-0.4-0.1-0.6-0.2c-0.1-0.1-0.2-0.3-0.2-0.5v-7.3c0-0.2,0.1-0.4,0.2-0.6c0.3-0.3,0.8-0.3,1.2,0c0.2,0.1,0.2,0.3,0.2,0.6
					v0.3c0.2-0.4,0.5-0.6,0.8-0.8c0.4-0.2,0.8-0.3,1.2-0.3C63.5,20.5,64,20.6,64.5,20.9z M63.8,25.3c0.3-0.4,0.5-1,0.4-1.5
					c0-0.5-0.1-1.1-0.4-1.5c-0.6-0.7-1.6-0.7-2.3-0.1c0,0-0.1,0.1-0.1,0.1c-0.3,0.4-0.4,1-0.4,1.5c0,0.5,0.1,1.1,0.4,1.5
					c0.3,0.4,0.7,0.6,1.2,0.5C63.1,25.9,63.5,25.7,63.8,25.3z"/>
				<path d="M72.6,25.4c0.1,0.1,0.1,0.3,0.1,0.5c0,0.3-0.2,0.6-0.5,0.7c-0.3,0.2-0.7,0.3-1,0.4c-0.3,0.1-0.7,0.1-1.1,0.1
					c-0.9,0.1-1.8-0.3-2.4-0.9c-0.6-0.6-0.9-1.5-0.9-2.4c0-0.6,0.1-1.2,0.4-1.7c0.2-0.5,0.6-0.9,1.1-1.2c0.5-0.3,1-0.4,1.6-0.4
					c0.5,0,1,0.1,1.5,0.4c0.4,0.3,0.8,0.6,1,1.1c0.2,0.5,0.4,1.1,0.3,1.6c0,0.4-0.2,0.6-0.5,0.6h-3.8c0,0.5,0.2,1,0.5,1.3
					c0.3,0.3,0.8,0.5,1.3,0.4c0.3,0,0.5,0,0.7-0.1c0.2-0.1,0.4-0.2,0.7-0.3c0.2-0.1,0.4-0.2,0.6-0.2C72.4,25.3,72.5,25.3,72.6,25.4z
					 M68.9,22c-0.3,0.3-0.5,0.8-0.5,1.2h2.9c0-0.4-0.1-0.9-0.4-1.2c-0.3-0.3-0.6-0.4-1-0.4C69.6,21.6,69.2,21.7,68.9,22z"/>
				<path d="M78.2,20.7c0.1,0.1,0.2,0.3,0.2,0.5c0,0.2,0,0.4-0.2,0.5c-0.2,0.1-0.4,0.2-0.6,0.2h-0.4c-0.4,0-0.8,0.2-1.1,0.5
					c-0.2,0.3-0.4,0.7-0.3,1.1v2.8c0,0.2-0.1,0.4-0.2,0.6c-0.2,0.1-0.4,0.2-0.6,0.2c-0.2,0-0.4-0.1-0.6-0.2
					c-0.2-0.2-0.2-0.4-0.2-0.6v-5c0-0.2,0.1-0.4,0.2-0.6c0.2-0.1,0.4-0.2,0.6-0.2c0.2,0,0.4,0.1,0.5,0.2c0.1,0.1,0.2,0.3,0.2,0.5
					v0.5c0.1-0.4,0.4-0.7,0.7-0.9c0.3-0.2,0.7-0.3,1.1-0.4h0.2C77.8,20.5,78,20.6,78.2,20.7z"/>
				<path d="M88.5,18c0.2,0.1,0.2,0.3,0.2,0.5v7.8c0,0.2-0.1,0.4-0.2,0.6c-0.2,0.1-0.4,0.2-0.6,0.2c-0.2,0-0.4-0.1-0.6-0.2
					c-0.2-0.1-0.2-0.4-0.2-0.6V26c-0.2,0.4-0.5,0.6-0.8,0.8c-0.4,0.2-0.8,0.3-1.2,0.3c-0.5,0-1-0.1-1.5-0.4c-0.4-0.3-0.8-0.7-1-1.2
					c-0.3-0.5-0.4-1.1-0.4-1.8c0-0.6,0.1-1.2,0.4-1.8c0.2-0.5,0.6-0.9,1-1.1c0.4-0.3,0.9-0.4,1.5-0.4c0.4,0,0.8,0.1,1.2,0.3
					c0.3,0.2,0.6,0.5,0.8,0.8v-3.1c0-0.2,0.1-0.4,0.2-0.5c0.2-0.1,0.4-0.2,0.6-0.2C88.1,17.8,88.3,17.9,88.5,18z M86.7,25.3
					c0.3-0.4,0.5-1,0.4-1.5c0-0.5-0.1-1.1-0.4-1.5c-0.6-0.7-1.7-0.7-2.3-0.1c0,0-0.1,0.1-0.1,0.1c-0.3,0.4-0.5,1-0.4,1.5
					c0,0.5,0.1,1.1,0.4,1.5c0.3,0.4,0.7,0.6,1.2,0.5C85.9,25.9,86.4,25.7,86.7,25.3L86.7,25.3z"/>
				<path d="M95.1,21.1c0.5,0.6,0.7,1.3,0.7,2v3.2c0,0.2-0.1,0.4-0.2,0.5c-0.2,0.1-0.4,0.2-0.6,0.2c-0.2,0-0.4-0.1-0.6-0.2
					c-0.1-0.1-0.2-0.3-0.2-0.5V26c-0.1,0.3-0.4,0.6-0.7,0.8c-0.3,0.2-0.7,0.3-1.1,0.3c-0.4,0-0.8-0.1-1.2-0.3
					c-0.3-0.2-0.6-0.4-0.8-0.7c-0.2-0.3-0.3-0.6-0.3-1c0-0.4,0.1-0.8,0.4-1.1c0.3-0.3,0.7-0.5,1.2-0.6c0.7-0.1,1.5-0.2,2.2-0.2h0.3
					v-0.3c0-0.3,0-0.7-0.2-0.9c-0.2-0.2-0.6-0.3-0.9-0.3c-0.3,0-0.5,0-0.8,0.1c-0.3,0.1-0.6,0.2-0.9,0.3c-0.2,0.1-0.3,0.1-0.5,0.2
					c-0.1,0-0.3-0.1-0.4-0.2c-0.1-0.1-0.2-0.3-0.1-0.4c0-0.1,0-0.3,0.1-0.4c0.1-0.1,0.2-0.2,0.4-0.3c0.3-0.2,0.7-0.3,1.1-0.4
					c0.4-0.1,0.8-0.1,1.2-0.1C93.9,20.4,94.6,20.7,95.1,21.1z M93.8,25.5c0.3-0.3,0.4-0.7,0.4-1.1v-0.3H94c-0.5,0-0.9,0-1.4,0.1
					c-0.3,0-0.5,0.1-0.7,0.3c-0.1,0.1-0.2,0.3-0.2,0.5c0,0.3,0.1,0.5,0.3,0.7c0.2,0.2,0.5,0.3,0.7,0.3
					C93.2,25.9,93.5,25.8,93.8,25.5z"/>
				<path d="M103.4,20.7c0.2,0.1,0.2,0.3,0.2,0.6v5.1c0.1,0.8-0.2,1.7-0.8,2.3c-0.7,0.6-1.6,0.8-2.4,0.8c-0.8,0-1.6-0.2-2.3-0.5
					c-0.3-0.1-0.5-0.4-0.5-0.7c0-0.2,0-0.3,0.1-0.5c0.1-0.1,0.2-0.2,0.3-0.2c0.1,0,0.2,0,0.3,0.1l0.3,0.1c0.3,0.1,0.6,0.2,0.8,0.3
					c0.3,0.1,0.6,0.1,0.8,0.1c0.8,0.1,1.6-0.4,1.7-1.3c0-0.1,0-0.3,0-0.4v-0.8c-0.2,0.4-0.5,0.6-0.8,0.8c-0.4,0.2-0.8,0.3-1.3,0.3
					c-0.5,0-1-0.1-1.5-0.4c-0.4-0.3-0.8-0.7-1-1.1c-0.2-0.5-0.4-1.1-0.4-1.6c0-0.6,0.1-1.1,0.3-1.7c0.2-0.5,0.6-0.8,1-1.1
					c0.4-0.3,1-0.4,1.5-0.4c0.4,0,0.9,0.1,1.3,0.3c0.4,0.2,0.6,0.5,0.8,0.8v-0.3c0-0.2,0.1-0.4,0.2-0.5c0.2-0.1,0.4-0.2,0.6-0.2
					C103,20.5,103.2,20.6,103.4,20.7z M101.6,25c0.3-0.4,0.5-0.9,0.4-1.4c0-0.5-0.1-1-0.4-1.4c-0.7-0.7-1.7-0.7-2.4,0c0,0,0,0,0,0
					c-0.6,0.8-0.6,2,0,2.8C99.8,25.7,100.9,25.7,101.6,25C101.5,25.1,101.6,25.1,101.6,25z"/>
				<path d="M109.3,23.6c0-1.9,0.5-3.7,1.4-5.3c0.1-0.1,0.2-0.3,0.3-0.4c0.1-0.1,0.3-0.1,0.4-0.1c0.1,0,0.3,0,0.4,0.1
					c0.1,0.1,0.2,0.2,0.2,0.4c0,0.1,0,0.2-0.1,0.3c-0.7,1.6-1,3.3-1,5c0,0.8,0.1,1.7,0.2,2.5c0.2,0.8,0.4,1.7,0.7,2.4
					c0,0.1,0.1,0.2,0.1,0.3c0,0.1,0,0.3-0.2,0.4c-0.1,0.1-0.2,0.1-0.4,0.1c-0.1,0-0.3,0-0.4-0.1c-0.1-0.1-0.3-0.2-0.3-0.4
					C109.7,27.3,109.2,25.4,109.3,23.6z"/>
				<path d="M113.5,19.1c-0.2-0.2-0.3-0.4-0.3-0.6c0-0.2,0.1-0.5,0.3-0.6c0.2-0.2,0.5-0.2,0.7-0.2c0.3,0,0.5,0.1,0.7,0.2
					c0.2,0.2,0.3,0.4,0.3,0.6c0,0.2-0.1,0.5-0.3,0.6c-0.2,0.2-0.4,0.3-0.7,0.2C113.9,19.4,113.7,19.3,113.5,19.1z M113.6,26.9
					c-0.2-0.2-0.2-0.4-0.2-0.6v-5c0-0.2,0.1-0.4,0.2-0.6c0.2-0.1,0.4-0.2,0.6-0.2c0.2,0,0.4,0.1,0.6,0.2c0.2,0.1,0.3,0.4,0.2,0.6v5
					c0,0.2-0.1,0.4-0.2,0.6c-0.2,0.1-0.4,0.2-0.6,0.2C114,27.1,113.8,27,113.6,26.9z"/>
				<path d="M122.1,21.1c0.4,0.6,0.6,1.3,0.6,2v3.2c0,0.2-0.1,0.4-0.2,0.6c-0.2,0.1-0.4,0.2-0.6,0.2c-0.2,0-0.4-0.1-0.6-0.2
					c-0.1-0.2-0.2-0.4-0.2-0.6v-3.1c0-0.4-0.1-0.8-0.3-1.1c-0.2-0.2-0.6-0.4-0.9-0.3c-0.4,0-0.8,0.1-1.1,0.5
					c-0.3,0.3-0.4,0.7-0.4,1.2v2.9c0,0.2-0.1,0.4-0.2,0.6c-0.2,0.1-0.4,0.2-0.6,0.2c-0.2,0-0.4-0.1-0.6-0.2
					c-0.2-0.1-0.2-0.4-0.2-0.6v-5c0-0.2,0.1-0.4,0.2-0.5c0.2-0.1,0.4-0.2,0.6-0.2c0.2,0,0.4,0.1,0.6,0.2c0.1,0.1,0.2,0.3,0.2,0.5
					v0.4c0.2-0.3,0.5-0.6,0.9-0.8c0.4-0.2,0.8-0.3,1.2-0.3C121,20.5,121.6,20.7,122.1,21.1z"/>
				<path d="M133.7,26.3c0,0.2-0.1,0.4-0.2,0.5c-0.1,0.2-0.3,0.2-0.5,0.2c-0.2,0-0.4-0.1-0.5-0.2l-3-2.8v2.2c0,0.2-0.1,0.4-0.2,0.6
					c-0.2,0.1-0.4,0.2-0.6,0.2c-0.2,0-0.4-0.1-0.6-0.2c-0.2-0.1-0.2-0.4-0.2-0.6v-7.8c0-0.2,0-0.4,0.2-0.5c0.2-0.1,0.4-0.2,0.6-0.2
					c0.2,0,0.4,0.1,0.6,0.2c0.2,0.1,0.3,0.4,0.2,0.6v4.9l2.8-2.7c0.3-0.3,0.7-0.3,1,0c0,0,0,0,0,0c0.1,0.1,0.2,0.3,0.2,0.5
					c0,0.2-0.1,0.4-0.3,0.5l-2,1.9l2.3,2C133.6,25.9,133.7,26.1,133.7,26.3z"/>
				<path d="M146.7,17.9c0.1-0.1,0.3-0.1,0.4-0.1c0.2,0,0.4,0.1,0.5,0.2c0.2,0.1,0.2,0.3,0.2,0.5c0,0.1,0,0.2-0.1,0.3l-2.8,7.7
					c-0.1,0.2-0.2,0.3-0.3,0.4c-0.3,0.2-0.7,0.2-1.1,0c-0.2-0.1-0.3-0.2-0.3-0.4l-2.2-6.1l-2.2,6.1c-0.1,0.2-0.2,0.3-0.3,0.4
					c-0.2,0.1-0.3,0.1-0.5,0.1c-0.2,0-0.4,0-0.5-0.1c-0.2-0.1-0.3-0.2-0.3-0.4l-2.8-7.7c0-0.1-0.1-0.2-0.1-0.3
					c0-0.2,0.1-0.4,0.2-0.5c0.2-0.1,0.4-0.2,0.6-0.2c0.2,0,0.3,0,0.5,0.1c0.1,0.1,0.3,0.2,0.3,0.4l2.2,6.4l2.3-6.3
					c0.1-0.2,0.2-0.3,0.3-0.4c0.1-0.1,0.3-0.2,0.5-0.1c0.2,0,0.3,0.1,0.5,0.1c0.1,0.1,0.2,0.3,0.3,0.4l2.2,6.4l2.3-6.4
					C146.5,18.1,146.6,18,146.7,17.9z"/>
				<path d="M155.2,23.1v3.2c0,0.2-0.1,0.4-0.2,0.6c-0.2,0.1-0.4,0.2-0.6,0.2c-0.2,0-0.4-0.1-0.6-0.2c-0.2-0.1-0.2-0.4-0.2-0.6v-3.2
					c0-0.4-0.1-0.7-0.3-1c-0.2-0.2-0.6-0.3-0.9-0.3c-0.4,0-0.8,0.1-1.1,0.5c-0.3,0.3-0.5,0.7-0.4,1.2v2.9c0,0.2-0.1,0.4-0.2,0.6
					c-0.2,0.1-0.4,0.2-0.6,0.2c-0.2,0-0.4-0.1-0.6-0.2c-0.1-0.2-0.2-0.4-0.2-0.6v-7.8c0-0.2,0.1-0.4,0.2-0.5
					c0.2-0.1,0.4-0.2,0.6-0.2c0.2,0,0.4,0.1,0.6,0.2c0.2,0.1,0.2,0.3,0.2,0.5v3c0.2-0.3,0.5-0.6,0.9-0.8c0.4-0.2,0.8-0.3,1.2-0.3
					C154.4,20.5,155.2,21.4,155.2,23.1z"/>
				<path d="M157.5,29.3c-0.1,0.1-0.3,0.1-0.4,0.1c-0.1,0-0.3,0-0.4-0.1c-0.1-0.1-0.2-0.2-0.1-0.4c0-0.1,0-0.2,0.1-0.3
					c0.3-0.8,0.6-1.6,0.7-2.4c0.2-0.8,0.2-1.7,0.2-2.5c0-1.7-0.3-3.4-1-5c0-0.1-0.1-0.2-0.1-0.3c0-0.1,0-0.3,0.1-0.4
					c0.1-0.1,0.2-0.1,0.4-0.1c0.1,0,0.3,0,0.4,0.1c0.1,0.1,0.3,0.2,0.4,0.4c1.9,3.3,1.9,7.3,0,10.6C157.7,29,157.6,29.2,157.5,29.3z
					"/>
			</g>
		</g>
		<rect id="Rectangle_8" y="46" class="st1" width="376" height="1"/>
		<g id="_50">
			<g>
				<path d="M18.1,61.2c0.3,0.2,0.5,0.4,0.7,0.7C19,62.2,19,62.6,19,63c0,0.4-0.1,0.8-0.3,1.1c-0.2,0.3-0.5,0.6-0.8,0.8
					c-0.4,0.2-0.8,0.3-1.2,0.3c-0.4,0-0.7-0.1-1.1-0.2c-0.3-0.1-0.6-0.3-0.9-0.5c-0.1-0.1-0.2-0.3-0.2-0.4c0-0.1,0-0.2,0.1-0.3
					c0.1-0.1,0.2-0.1,0.3-0.1c0.1,0,0.1,0,0.2,0l0.2,0.1c0.2,0.2,0.5,0.3,0.8,0.4c0.2,0.1,0.5,0.1,0.7,0.1c0.3,0,0.7-0.1,0.9-0.3
					c0.4-0.5,0.4-1.2,0-1.7c-0.2-0.2-0.5-0.3-0.9-0.3c-0.2,0-0.4,0-0.6,0.1c-0.2,0.1-0.4,0.2-0.6,0.3c-0.1,0.1-0.2,0.1-0.4,0.1
					c-0.1,0-0.2,0-0.3-0.1c-0.1-0.1-0.1-0.2-0.1-0.3v-2.8c0-0.1,0-0.3,0.1-0.4c0.1-0.1,0.3-0.2,0.4-0.1h3c0.4,0,0.5,0.1,0.5,0.5
					s-0.2,0.4-0.5,0.4h-2.4v1.7c0.3-0.2,0.7-0.3,1.1-0.3C17.4,60.9,17.7,61,18.1,61.2z"/>
				<path d="M20.4,64.3c-0.4-0.7-0.6-1.6-0.6-2.4c-0.1-0.8,0.1-1.7,0.6-2.4c0.7-0.9,2.1-1.1,3.1-0.4c0.1,0.1,0.3,0.2,0.4,0.4
					c0.8,1.5,0.8,3.3,0,4.8c-0.7,0.9-2.1,1.1-3.1,0.4C20.6,64.5,20.5,64.4,20.4,64.3L20.4,64.3z M23,63.6c0.2-0.6,0.3-1.2,0.3-1.8
					c0-0.6-0.1-1.2-0.3-1.8c-0.2-0.4-0.5-0.6-0.9-0.6c-0.4,0-0.7,0.2-0.9,0.6c-0.2,0.6-0.3,1.2-0.3,1.8c0,0.6,0.1,1.2,0.3,1.8
					c0.2,0.4,0.5,0.6,0.9,0.6C22.5,64.1,22.8,63.9,23,63.6z"/>
			</g>
		</g>
		<g id="_40">
			<g>
				<path d="M19.1,92c0.1,0.1,0.1,0.2,0.1,0.3c0,0.3-0.2,0.4-0.5,0.4h-0.5v0.7c0,0.3-0.2,0.6-0.5,0.6c0,0-0.1,0-0.1,0
					c-0.2,0-0.3,0-0.4-0.2c-0.1-0.1-0.2-0.3-0.2-0.4v-0.7h-2.4c-0.1,0-0.3,0-0.4-0.1c-0.1-0.1-0.1-0.2-0.1-0.3
					c0-0.1,0.1-0.3,0.1-0.4l2.8-4c0.1-0.1,0.1-0.1,0.2-0.2c0.1,0,0.2-0.1,0.3-0.1c0.2,0,0.3,0.1,0.4,0.2c0.1,0.1,0.2,0.3,0.2,0.4
					v3.7h0.5C18.9,91.9,19,91.9,19.1,92z M17.1,91.9v-2.4l-1.7,2.4L17.1,91.9z"/>
				<path d="M20.4,93.3c-0.4-0.7-0.6-1.6-0.6-2.4c-0.1-0.8,0.1-1.7,0.6-2.4c0.7-0.9,2.1-1.1,3.1-0.4c0.1,0.1,0.3,0.2,0.4,0.4
					c0.8,1.5,0.8,3.3,0,4.8c-0.7,0.9-2.1,1.1-3.1,0.4C20.6,93.5,20.5,93.4,20.4,93.3L20.4,93.3z M23,92.6c0.2-0.6,0.3-1.2,0.3-1.8
					c0-0.6-0.1-1.2-0.3-1.8c-0.2-0.4-0.5-0.6-0.9-0.6c-0.4,0-0.7,0.2-0.9,0.6c-0.2,0.6-0.3,1.2-0.3,1.8c0,0.6,0.1,1.2,0.3,1.8
					c0.2,0.4,0.5,0.6,0.9,0.6C22.5,93.1,22.8,92.9,23,92.6z"/>
			</g>
		</g>
		<g id="_30">
			<g>
				<path d="M18.5,121.3c0.2,0.3,0.3,0.6,0.3,1c0,0.5-0.2,1-0.6,1.3c-0.5,0.3-1,0.5-1.6,0.5c-0.4,0-0.8-0.1-1.1-0.2
					c-0.3-0.1-0.6-0.3-0.9-0.5c-0.1-0.1-0.2-0.3-0.2-0.4c0-0.1,0-0.2,0.1-0.3c0.1-0.1,0.2-0.1,0.3-0.1c0.1,0,0.1,0,0.2,0l0.2,0.1
					c0.2,0.2,0.5,0.3,0.7,0.4c0.2,0.1,0.5,0.1,0.7,0.1c0.3,0,0.6-0.1,0.9-0.2c0.2-0.2,0.3-0.5,0.3-0.7c0-0.3-0.1-0.5-0.3-0.7
					c-0.3-0.2-0.6-0.3-0.9-0.2H16c-0.1,0-0.2,0-0.3-0.1c-0.1-0.1-0.1-0.2-0.1-0.3c0-0.1,0-0.2,0.1-0.3c0.1-0.1,0.2-0.1,0.3-0.1h0.4
					c0.8,0,1.2-0.3,1.2-0.9c0-0.2-0.1-0.5-0.3-0.7c-0.2-0.2-0.5-0.3-0.7-0.2c-0.5,0-1,0.2-1.4,0.5l-0.2,0.1c-0.1,0-0.1,0-0.2,0
					c-0.1,0-0.2-0.1-0.3-0.1c-0.1-0.1-0.1-0.2-0.1-0.3c0-0.1,0-0.2,0-0.2c0-0.1,0.1-0.1,0.2-0.2c0.3-0.2,0.6-0.4,0.9-0.5
					c0.3-0.1,0.7-0.2,1.1-0.2c0.5,0,1.1,0.1,1.5,0.5c0.4,0.3,0.6,0.8,0.5,1.2c0,0.3-0.1,0.6-0.3,0.9c-0.2,0.3-0.4,0.5-0.7,0.6
					C18,120.8,18.3,121,18.5,121.3z"/>
				<path d="M20.4,123.3c-0.4-0.7-0.6-1.6-0.6-2.4c-0.1-0.8,0.1-1.7,0.6-2.4c0.7-0.9,2.1-1.1,3.1-0.4c0.1,0.1,0.3,0.2,0.4,0.4
					c0.8,1.5,0.8,3.3,0,4.8c-0.7,0.9-2.1,1.1-3.1,0.4C20.6,123.5,20.5,123.4,20.4,123.3L20.4,123.3z M23,122.6
					c0.2-0.6,0.3-1.2,0.3-1.8c0-0.6,0-1.2-0.3-1.8c-0.2-0.4-0.5-0.6-0.9-0.6c-0.4,0-0.7,0.2-0.9,0.6c-0.2,0.6-0.3,1.2-0.3,1.8
					c0,0.6,0.1,1.2,0.3,1.8c0.2,0.4,0.5,0.6,0.9,0.6C22.5,123.1,22.8,122.9,23,122.6L23,122.6z"/>
			</g>
		</g>
		<g id="_20">
			<g>
				<path d="M19,152.5c0,0.3-0.2,0.5-0.5,0.5h-3.4c-0.1,0-0.3,0-0.4-0.1c-0.1-0.1-0.1-0.2-0.1-0.4c0-0.2,0.1-0.4,0.2-0.5l2-2.2
					c0.2-0.2,0.4-0.5,0.5-0.8c0.1-0.2,0.2-0.4,0.2-0.7c0-0.2-0.1-0.5-0.3-0.6c-0.2-0.2-0.4-0.2-0.7-0.2c-0.2,0-0.5,0-0.7,0.1
					c-0.2,0.1-0.5,0.2-0.7,0.4c-0.1,0-0.1,0.1-0.2,0.1c-0.1,0-0.1,0-0.2,0c-0.1,0-0.2-0.1-0.3-0.1c-0.1-0.1-0.1-0.2-0.1-0.3
					c0-0.1,0-0.2,0-0.2c0-0.1,0.1-0.1,0.2-0.2c0.3-0.2,0.6-0.4,0.9-0.5c0.3-0.1,0.7-0.2,1.1-0.2c0.5,0,1.1,0.1,1.5,0.5
					c0.4,0.3,0.6,0.8,0.5,1.3c0,0.3-0.1,0.7-0.2,1c-0.2,0.4-0.5,0.8-0.8,1.1l-1.5,1.6h2.4C18.8,152.1,19,152.2,19,152.5z"/>
				<path d="M20.4,152.3c-0.4-0.7-0.6-1.6-0.6-2.4c-0.1-0.8,0.1-1.7,0.6-2.4c0.7-0.9,2.1-1.1,3.1-0.4c0.1,0.1,0.3,0.2,0.4,0.4
					c0.8,1.5,0.8,3.3,0,4.8c-0.7,0.9-2.1,1.1-3.1,0.4C20.6,152.5,20.5,152.4,20.4,152.3L20.4,152.3z M23,151.6
					c0.2-0.6,0.3-1.2,0.3-1.8c0-0.6,0-1.2-0.3-1.8c-0.2-0.4-0.5-0.6-0.9-0.6c-0.4,0-0.7,0.2-0.9,0.6c-0.2,0.6-0.3,1.2-0.3,1.8
					c0,0.6,0.1,1.2,0.3,1.8c0.2,0.4,0.5,0.6,0.9,0.6C22.5,152.1,22.8,151.9,23,151.6z"/>
			</g>
		</g>
		<g id="_10">
			<g>
				<path d="M19,180.5c0,0.3-0.2,0.5-0.5,0.5h-3c-0.4,0-0.6-0.2-0.6-0.5s0.2-0.5,0.6-0.5h0.9V176l-0.9,0.5c-0.1,0-0.1,0.1-0.2,0.1
					c-0.1,0-0.2-0.1-0.3-0.2c-0.1-0.1-0.1-0.2-0.1-0.4c0-0.2,0.1-0.3,0.2-0.4l1.4-0.9c0.2-0.1,0.3-0.2,0.5-0.2c0.1,0,0.3,0,0.4,0.1
					c0.1,0.1,0.2,0.3,0.1,0.4v4.9h1C18.9,180.1,19,180.2,19,180.5z"/>
				<path d="M20.4,180.3c-0.4-0.7-0.6-1.6-0.6-2.4c-0.1-0.8,0.1-1.7,0.6-2.4c0.7-0.9,2.1-1.1,3.1-0.4c0.1,0.1,0.3,0.2,0.4,0.4
					c0.8,1.5,0.8,3.3,0,4.8c-0.7,0.9-2.1,1.1-3.1,0.4C20.6,180.5,20.5,180.4,20.4,180.3L20.4,180.3z M23,179.6
					c0.2-0.6,0.3-1.2,0.3-1.8c0-0.6,0-1.2-0.3-1.8c-0.2-0.4-0.5-0.6-0.9-0.6c-0.4,0-0.7,0.2-0.9,0.6c-0.2,0.6-0.3,1.2-0.3,1.8
					c0,0.6,0.1,1.2,0.3,1.8c0.2,0.4,0.5,0.6,0.9,0.6C22.5,180.1,22.8,179.9,23,179.6L23,179.6z"/>
			</g>
		</g>
		<g id="Ma">
			<g>
				<path d="M48.7,221.8c0.1,0.1,0.2,0.3,0.2,0.4v5.3c0,0.1,0,0.3-0.2,0.4c-0.1,0.1-0.2,0.2-0.4,0.1c-0.1,0-0.3,0-0.4-0.1
					c-0.1-0.1-0.1-0.3-0.1-0.4v-3.7l-1.5,2.9c-0.1,0.1-0.1,0.2-0.2,0.3c-0.1,0.1-0.2,0.1-0.3,0.1c-0.1,0-0.2,0-0.3-0.1
					c-0.1-0.1-0.2-0.2-0.2-0.3l-1.5-2.9v3.7c0,0.1,0,0.3-0.1,0.4c-0.1,0.1-0.2,0.2-0.4,0.1c-0.1,0-0.3,0-0.4-0.1
					c-0.1-0.1-0.1-0.3-0.1-0.4v-5.3c0-0.2,0-0.3,0.2-0.4c0.1-0.1,0.2-0.2,0.4-0.2c0.2,0,0.5,0.2,0.5,0.4l2,3.8l2-3.8
					c0.1-0.2,0.3-0.4,0.5-0.4C48.5,221.6,48.6,221.7,48.7,221.8z"/>
				<path d="M53.4,223.9c0.3,0.4,0.5,0.9,0.4,1.4v2.2c0,0.1,0,0.3-0.1,0.4c-0.1,0.1-0.3,0.2-0.4,0.1c-0.1,0-0.3,0-0.4-0.1
					c-0.1-0.1-0.2-0.2-0.2-0.4v-0.2c-0.1,0.2-0.3,0.4-0.5,0.6c-0.2,0.1-0.5,0.2-0.8,0.2c-0.3,0-0.6-0.1-0.8-0.2
					c-0.2-0.1-0.4-0.3-0.6-0.5c-0.1-0.2-0.2-0.5-0.2-0.7c0-0.3,0.1-0.5,0.3-0.8c0.2-0.2,0.5-0.4,0.8-0.4c0.5-0.1,1-0.1,1.5-0.1h0.2
					v-0.2c0-0.2,0-0.5-0.2-0.6c-0.2-0.1-0.4-0.2-0.6-0.2c-0.2,0-0.4,0-0.5,0.1c-0.2,0.1-0.4,0.1-0.6,0.2c-0.1,0.1-0.2,0.1-0.3,0.1
					c-0.1,0-0.2,0-0.3-0.1c-0.1-0.1-0.1-0.2-0.1-0.3c0-0.1,0-0.2,0.1-0.3c0.1-0.1,0.2-0.2,0.3-0.2c0.2-0.1,0.5-0.2,0.8-0.3
					c0.3-0.1,0.6-0.1,0.9-0.1C52.6,223.5,53.1,223.6,53.4,223.9z M52.5,226.9c0.2-0.2,0.3-0.5,0.3-0.8V226h-0.2
					c-0.3,0-0.6,0-0.9,0.1c-0.2,0-0.3,0.1-0.5,0.2c-0.1,0.1-0.1,0.2-0.1,0.4c0,0.2,0.1,0.3,0.2,0.5c0.1,0.1,0.3,0.2,0.5,0.2
					C52.1,227.3,52.3,227.2,52.5,226.9L52.5,226.9z"/>
			</g>
		</g>
		<g id="Di">
			<g>
				<path d="M92.8,227.9c-0.1-0.1-0.2-0.3-0.2-0.4v-5.3c0-0.1,0-0.3,0.2-0.4c0.1-0.1,0.3-0.2,0.4-0.1H95c0.9-0.1,1.8,0.2,2.4,0.8
					c0.6,0.6,0.9,1.5,0.9,2.3c0.1,0.9-0.3,1.7-0.9,2.4c-0.7,0.6-1.5,0.9-2.4,0.8h-1.8C93.1,228,92.9,228,92.8,227.9z M95,227.1
					c1.2-0.1,2.2-1.1,2.1-2.4c-0.1-1.1-1-2-2.1-2.1h-1.1v4.4H95z"/>
				<path d="M99.4,222.5c-0.1-0.1-0.2-0.3-0.2-0.4c0-0.2,0.1-0.3,0.2-0.4c0.1-0.1,0.3-0.2,0.5-0.2c0.2,0,0.3,0.1,0.5,0.2
					c0.1,0.1,0.2,0.3,0.2,0.4c0,0.2-0.1,0.3-0.2,0.4c-0.1,0.1-0.3,0.2-0.5,0.2C99.8,222.7,99.6,222.7,99.4,222.5z M99.5,227.9
					c-0.1-0.1-0.2-0.2-0.2-0.4V224c0-0.2,0-0.3,0.2-0.4c0.2-0.2,0.6-0.2,0.8,0c0.1,0.1,0.2,0.2,0.2,0.4v3.5c0,0.2-0.1,0.3-0.2,0.4
					C100.1,228.1,99.8,228.1,99.5,227.9L99.5,227.9z"/>
			</g>
		</g>
		<g id="Wo">
			<g>
				<path d="M145.8,221.7c0.1-0.1,0.2-0.1,0.3-0.1c0.1,0,0.3,0,0.4,0.1c0.1,0.1,0.2,0.2,0.1,0.4c0,0.1,0,0.2,0,0.2l-1.9,5.4
					c0,0.1-0.1,0.2-0.2,0.3c-0.2,0.1-0.5,0.1-0.7,0c-0.1-0.1-0.2-0.2-0.2-0.3l-1.5-4.2l-1.5,4.2c0,0.1-0.1,0.2-0.2,0.3
					c-0.2,0.1-0.5,0.1-0.7,0c-0.1-0.1-0.2-0.2-0.2-0.3l-1.9-5.4c0-0.1,0-0.2,0-0.2c0-0.1,0.1-0.3,0.2-0.4c0.1-0.1,0.2-0.1,0.4-0.1
					c0.1,0,0.2,0,0.3,0.1c0.1,0.1,0.2,0.2,0.2,0.3l1.5,4.4l1.5-4.4c0-0.1,0.1-0.2,0.2-0.3c0.1-0.1,0.2-0.1,0.3-0.1
					c0.1,0,0.2,0,0.3,0.1c0.1,0.1,0.2,0.2,0.2,0.3l1.5,4.4l1.6-4.5C145.7,221.9,145.7,221.8,145.8,221.7z"/>
				<path d="M147.9,227.8c-0.3-0.2-0.6-0.5-0.8-0.8c-0.2-0.4-0.3-0.8-0.3-1.2c0-0.4,0.1-0.8,0.3-1.2c0.2-0.3,0.5-0.6,0.8-0.8
					c0.7-0.4,1.6-0.4,2.4,0c0.3,0.2,0.6,0.5,0.8,0.8c0.2,0.4,0.3,0.8,0.3,1.2c0,0.4-0.1,0.8-0.3,1.2c-0.2,0.3-0.5,0.6-0.8,0.8
					C149.5,228.2,148.6,228.2,147.9,227.8L147.9,227.8z M149.9,226.8c0.4-0.7,0.4-1.5,0-2.1c-0.4-0.5-1.2-0.5-1.6,0c0,0,0,0,0,0
					c-0.2,0.3-0.3,0.7-0.3,1.1c0,0.4,0.1,0.7,0.3,1.1C148.6,227.3,149.4,227.3,149.9,226.8C149.9,226.9,149.9,226.9,149.9,226.8
					L149.9,226.8z"/>
			</g>
		</g>
		<g id="Do">
			<g>
				<path d="M191.8,227.9c-0.1-0.1-0.2-0.3-0.1-0.4v-5.3c0-0.1,0-0.3,0.1-0.4c0.1-0.1,0.3-0.2,0.4-0.1h1.8c0.9-0.1,1.8,0.2,2.4,0.8
					c0.6,0.6,0.9,1.5,0.9,2.3c0.1,0.9-0.3,1.7-0.9,2.4c-0.7,0.6-1.5,0.9-2.4,0.8h-1.8C192.1,228,191.9,228,191.8,227.9z
					 M193.9,227.1c1.2-0.1,2.2-1.1,2.1-2.4c-0.1-1.1-1-2-2.1-2.1h-1.1v4.4H193.9z"/>
				<path d="M199.2,227.8c-0.3-0.2-0.6-0.5-0.8-0.8c-0.2-0.4-0.3-0.8-0.3-1.2c0-0.4,0.1-0.8,0.3-1.2c0.2-0.3,0.4-0.6,0.8-0.8
					c0.4-0.2,0.8-0.3,1.2-0.3c0.4,0,0.8,0.1,1.2,0.3c0.3,0.2,0.6,0.5,0.8,0.8c0.2,0.4,0.3,0.8,0.3,1.2c0,0.4-0.1,0.8-0.3,1.2
					c-0.2,0.3-0.4,0.6-0.8,0.8c-0.4,0.2-0.8,0.3-1.2,0.3C200,228.1,199.6,228,199.2,227.8z M201.2,226.8c0.4-0.7,0.4-1.5,0-2.1
					c-0.2-0.2-0.5-0.4-0.8-0.4c-0.3,0-0.6,0.1-0.8,0.4c-0.2,0.3-0.3,0.7-0.3,1.1c0,0.4,0.1,0.7,0.3,1.1c0.2,0.2,0.5,0.4,0.8,0.4
					C200.7,227.2,201,227.1,201.2,226.8L201.2,226.8z"/>
			</g>
		</g>
		<g id="Vr">
			<g>
				<path d="M245.8,221.6c0.1,0,0.3,0,0.4,0.1c0.1,0.1,0.2,0.2,0.2,0.4c0,0.1,0,0.2-0.1,0.2l-2.5,5.4c-0.1,0.1-0.1,0.2-0.3,0.3
					c-0.1,0.1-0.2,0.1-0.4,0.1c-0.1,0-0.2,0-0.4-0.1c-0.1-0.1-0.2-0.2-0.3-0.3l-2.5-5.4c0-0.1-0.1-0.1-0.1-0.2
					c0-0.1,0.1-0.3,0.2-0.4c0.1-0.1,0.3-0.1,0.4-0.1c0.1,0,0.2,0,0.3,0.1c0.1,0.1,0.2,0.1,0.2,0.2l2.1,4.6l2.1-4.6
					C245.4,221.7,245.6,221.6,245.8,221.6z"/>
				<path d="M249.3,223.6c0.1,0.1,0.1,0.2,0.1,0.4c0,0.1,0,0.3-0.1,0.4c-0.1,0.1-0.3,0.2-0.4,0.1h-0.3c-0.3,0-0.6,0.1-0.8,0.4
					c-0.2,0.2-0.3,0.5-0.3,0.8v1.9c0,0.2,0,0.3-0.2,0.4c-0.1,0.1-0.3,0.1-0.4,0.1c-0.1,0-0.3,0-0.4-0.1c-0.1-0.1-0.2-0.2-0.2-0.4
					V224c0-0.1,0-0.3,0.2-0.4c0.1-0.1,0.2-0.1,0.4-0.1c0.1,0,0.3,0,0.4,0.1c0.1,0.1,0.1,0.2,0.1,0.4v0.4c0.1-0.3,0.3-0.5,0.5-0.6
					c0.2-0.1,0.5-0.2,0.8-0.2h0.2C249.1,223.5,249.2,223.5,249.3,223.6z"/>
			</g>
		</g>
		<g id="Za">
			<g>
				<path d="M291.2,227.5c0,0.3-0.2,0.5-0.5,0.5h-3.8c-0.1,0-0.3,0-0.4-0.1c-0.1-0.1-0.1-0.2-0.1-0.4c0-0.1,0.1-0.3,0.1-0.4l3.2-4.5
					h-2.8c-0.4,0-0.5-0.1-0.5-0.5s0.2-0.5,0.5-0.5h3.7c0.1,0,0.3,0,0.4,0.1c0.1,0.1,0.1,0.2,0.1,0.4c0,0.1-0.1,0.3-0.1,0.4l-3.2,4.5
					h2.9C291,227.1,291.2,227.2,291.2,227.5z"/>
				<path d="M295.2,223.9c0.3,0.4,0.5,0.9,0.4,1.4v2.2c0,0.1,0,0.3-0.1,0.4c-0.1,0.1-0.3,0.2-0.4,0.1c-0.1,0-0.3,0-0.4-0.1
					c-0.1-0.1-0.2-0.2-0.1-0.4v-0.2c-0.1,0.2-0.3,0.4-0.5,0.6c-0.2,0.1-0.5,0.2-0.8,0.2c-0.3,0-0.6-0.1-0.8-0.2
					c-0.2-0.1-0.4-0.3-0.6-0.5c-0.1-0.2-0.2-0.5-0.2-0.7c0-0.3,0.1-0.5,0.3-0.8c0.2-0.2,0.5-0.4,0.8-0.4c0.5-0.1,1-0.1,1.5-0.1h0.2
					v-0.2c0-0.2,0-0.5-0.2-0.6c-0.2-0.1-0.4-0.2-0.6-0.2c-0.2,0-0.4,0-0.5,0.1c-0.2,0.1-0.4,0.1-0.6,0.2c-0.1,0.1-0.2,0.1-0.3,0.1
					c-0.1,0-0.2,0-0.3-0.1c-0.1-0.1-0.1-0.2-0.1-0.3c0-0.1,0-0.2,0.1-0.3c0.1-0.1,0.2-0.2,0.3-0.2c0.2-0.1,0.5-0.2,0.8-0.3
					c0.3-0.1,0.6-0.1,0.9-0.1C294.3,223.5,294.8,223.6,295.2,223.9z M294.3,226.9c0.2-0.2,0.3-0.5,0.3-0.8V226h-0.2
					c-0.3,0-0.6,0-0.9,0.1c-0.2,0-0.3,0.1-0.5,0.2c-0.1,0.1-0.1,0.2-0.1,0.4c0,0.2,0.1,0.3,0.2,0.5c0.1,0.1,0.3,0.2,0.5,0.2
					C293.8,227.3,294.1,227.2,294.3,226.9L294.3,226.9z"/>
			</g>
		</g>
		<g id="Zo">
			<g>
				<path d="M337.2,227.5c0,0.3-0.2,0.5-0.5,0.5h-3.8c-0.1,0-0.3,0-0.4-0.1c-0.1-0.1-0.1-0.2-0.1-0.4c0-0.1,0.1-0.3,0.1-0.4l3.2-4.5
					h-2.8c-0.4,0-0.5-0.1-0.5-0.5s0.2-0.5,0.5-0.5h3.7c0.1,0,0.3,0,0.4,0.1c0.1,0.1,0.1,0.2,0.1,0.4c0,0.1-0.1,0.3-0.1,0.4l-3.2,4.5
					h2.9C337,227.1,337.2,227.2,337.2,227.5z"/>
				<path d="M338.8,227.8c-0.3-0.2-0.6-0.5-0.8-0.8c-0.2-0.4-0.3-0.8-0.3-1.2c0-0.4,0.1-0.8,0.3-1.2c0.2-0.3,0.4-0.6,0.8-0.8
					c0.4-0.2,0.8-0.3,1.2-0.3c0.4,0,0.8,0.1,1.2,0.3c0.3,0.2,0.6,0.5,0.8,0.8c0.2,0.4,0.3,0.8,0.3,1.2c0,0.4-0.1,0.8-0.3,1.2
					c-0.2,0.3-0.4,0.6-0.8,0.8c-0.4,0.2-0.8,0.3-1.2,0.3C339.5,228.1,339.1,228,338.8,227.8z M340.8,226.8c0.4-0.7,0.4-1.5,0-2.1
					c-0.2-0.2-0.5-0.4-0.8-0.4c-0.3,0-0.6,0.1-0.8,0.4c-0.4,0.7-0.4,1.5,0,2.1c0.2,0.2,0.5,0.4,0.8,0.4
					C340.2,227.2,340.6,227.1,340.8,226.8L340.8,226.8z"/>
			</g>
		</g>
		<g id="_0">
			<g>
				<path d="M20.9,208.3c-0.7-1.3-0.7-3,0-4.3c0.7-0.8,2-1,2.8-0.2c0.1,0.1,0.2,0.2,0.2,0.2c0.4,0.6,0.6,1.4,0.5,2.1
					c0,0.8-0.1,1.5-0.5,2.1c-0.7,0.8-2,1-2.8,0.2C21,208.5,20.9,208.4,20.9,208.3L20.9,208.3z M23.2,207.8c0.3-1,0.3-2.1,0-3.2
					c-0.2-0.4-0.7-0.6-1.2-0.4c-0.2,0.1-0.3,0.2-0.4,0.4c-0.3,1-0.3,2.1,0,3.2c0.2,0.4,0.7,0.6,1.2,0.4
					C23,208.1,23.1,207.9,23.2,207.8z"/>
			</g>
		</g>
		<line id="Line_1" class="st2" x1="42.2" y1="63.6" x2="342.6" y2="63.6"/>
		<line id="Line_2" class="st2" x1="42.2" y1="92.6" x2="342.6" y2="92.6"/>
		<line id="Line_3" class="st2" x1="42.2" y1="121.5" x2="342.6" y2="121.5"/>
		<line id="Line_4" class="st2" x1="42.2" y1="150.4" x2="342.6" y2="150.4"/>
		<line id="Line_5" class="st2" x1="42.2" y1="179.3" x2="342.6" y2="179.3"/>
		<line id="Line_6" class="st2" x1="41.4" y1="208.2" x2="341.8" y2="208.2"/>
		<path id="Path_38" class="st3" d="M48.6,150L95,120.7l47.8,6.6l50.7-12.5l45.9,24.7l50-24.7l46.4-11.4"/>
		<path id="Rectangle_64" class="st0" d="M302,0h59c8.3,0,15,6.7,15,15v16c0,8.3-6.7,15-15,15h-59c-8.3,0-15-6.7-15-15V15
			C287,6.7,293.7,0,302,0z"/>
		<g id="M">
			<g>
				<path d="M335.7,18c0.2,0.2,0.2,0.4,0.2,0.6v7.7c0,0.2-0.1,0.4-0.2,0.6c-0.1,0.1-0.3,0.2-0.5,0.2c-0.2,0-0.4-0.1-0.5-0.2
					c-0.1-0.2-0.2-0.4-0.2-0.6v-5.4l-2.2,4.2c-0.1,0.2-0.2,0.3-0.3,0.4c-0.1,0.1-0.3,0.1-0.4,0.1c-0.2,0-0.3,0-0.4-0.1
					c-0.1-0.1-0.3-0.3-0.3-0.4l-2.2-4.1v5.3c0,0.2-0.1,0.4-0.2,0.6c-0.1,0.2-0.3,0.2-0.5,0.2c-0.2,0-0.4-0.1-0.5-0.2
					c-0.1-0.2-0.2-0.4-0.2-0.6v-7.7c0-0.2,0.1-0.4,0.2-0.6c0.2-0.2,0.4-0.2,0.6-0.2c0.4,0,0.7,0.2,0.8,0.6l2.9,5.5l2.9-5.5
					c0.1-0.3,0.4-0.5,0.8-0.6C335.3,17.8,335.6,17.8,335.7,18z"/>
			</g>
		</g>
		<path id="Rectangle_65-2" class="st4" d="M213,0h59c8.3,0,15,6.7,15,15v16c0,8.3-6.7,15-15,15h-59c-8.3,0-15-6.7-15-15V15
			C198,6.7,204.7,0,213,0z"/>
		<g id="D">
			<g>
				<path d="M248.1,17.9c0.1-0.1,0.3-0.1,0.4-0.1c0.2,0,0.4,0.1,0.5,0.2c0.1,0.1,0.2,0.3,0.2,0.5c0,0.1,0,0.2-0.1,0.3l-2.8,7.7
					c-0.1,0.2-0.2,0.3-0.3,0.4c-0.3,0.2-0.7,0.2-1.1,0c-0.2-0.1-0.3-0.2-0.3-0.4l-2.2-6.1l-2.2,6.1c-0.1,0.2-0.2,0.3-0.4,0.4
					c-0.2,0.1-0.3,0.1-0.5,0.1c-0.2,0-0.4,0-0.5-0.1c-0.2-0.1-0.3-0.2-0.3-0.4l-2.8-7.7c0-0.1-0.1-0.2-0.1-0.3
					c0-0.2,0.1-0.4,0.3-0.5c0.2-0.1,0.4-0.2,0.6-0.2c0.2,0,0.3,0,0.5,0.1c0.1,0.1,0.2,0.2,0.3,0.4l2.2,6.4l2.3-6.3
					c0.1-0.2,0.2-0.3,0.3-0.4c0.1-0.1,0.3-0.2,0.5-0.1c0.2,0,0.3,0.1,0.5,0.1c0.1,0.1,0.3,0.3,0.3,0.4l2.2,6.4l2.3-6.4
					C247.8,18.2,247.9,18,248.1,17.9z"/>
			</g>
		</g>
	</g>
</g>
</svg>
