<svg xmlns="http://www.w3.org/2000/svg" viewBox="0 0 18.22 11.65"><defs><style>.cls-1{fill:#00f53f;}</style></defs><g id="Layer_2" data-name="Layer 2"><g id="Layer_1-2" data-name="Layer 1"><path id="Path_126" data-name="Path 126" class="cls-1" d="M18.22,5.79a1.6,1.6,0,0,0-.46-1.13L13.56.46a1.61,1.61,0,0,0-2.25,0l-.09.1a1.59,1.59,0,0,0,0,2.25l1.35,1.34H1.66a1.66,1.66,0,1,0,0,3.31H12.6L11.22,8.84a1.59,1.59,0,0,0,0,2.25l.09.09a1.59,1.59,0,0,0,2.25,0L17.76,7a1.55,1.55,0,0,0,.45-1.15s0,0,0,0Z"/></g></g></svg>